<?xml version="1.0" encoding="UTF-8"?>
<svg xmlns="http://www.w3.org/2000/svg" onmouseup="{ if(window.parent.document.onmouseup) window.parent.document.onmouseup(arguments[0]);}" xml:space="preserve" enable-background="new 0 0 591.5 156.8" viewBox="0 0 591.5 156.8" y="0px" x="0px" id="Layer_1" version="1.1" xmlns:xlink="http://www.w3.org/1999/xlink"><g><g><path data-cppathid="10000" d="M258.8,66.5c1,0.4,0.9,2.3-0.2,2.6c-4.3-0.2-8.2-0.3-12.2-0.3c-4.7,0-9,0.1-13.4,0.3c-0.8-0.4-1.2-2.1-0.2-2.6l2.7-0.5    c4-0.6,4.3-1.3,4.3-7.4V21.5h-0.2c-2.7,5-4.1,7.7-6,11.3l-8.6,16c-3.4,6.3-8.4,16.4-10.2,20.7c-0.4,0.4-1.9,0.4-2.6,0    c-1.7-4.9-6-13.8-8.3-18.3l-8.9-17.4c-1.9-3.8-4.6-9.5-5.8-12.2h-0.2c-0.2,4.4-0.4,11.5-0.6,15.3c-0.2,5.5-0.4,13.6-0.4,21    c0,6,0.1,7.3,4.4,8.1l3.3,0.5c0.7,0.5,0.7,2.3-0.1,2.6c-3.7-0.2-6.8-0.3-10.5-0.3c-3.2,0-6.8,0.1-10.7,0.3    c-0.9-0.5-0.9-2.2-0.3-2.6l1.7-0.2c4.8-0.5,5.5-1.9,6.2-7.4c0.7-5.7,1-11.6,1.5-21c0.4-6.2,1-13.7,1-19.2c0-4.3-1.5-6.1-5.4-6.7    l-3.4-0.5c-0.6-0.6-0.5-2.4,0.4-2.6c3,0.2,5.7,0.3,9.4,0.3c3.5,0,7,0,10.7-0.3c0.4,5.4,2.9,10.2,5.5,15.1l11,20.9    c0.8,1.5,3.4,6.1,4.7,8.2c1.6-2.6,2.9-5.2,5.2-9.4L232,26c3.2-6,6.4-11.3,8.1-17.3c2.7,0.2,6,0.3,8.2,0.3c4.2,0,7.7-0.1,10.5-0.3    c1.1,0.4,1.3,2.1,0.3,2.6l-3.3,0.5c-4.4,0.6-5.4,2.1-5.4,6.9c0,13.4,0.2,26.8,0.9,40.3c0.3,6.1,1.4,6.6,4.6,7.1L258.8,66.5"/><path data-cppathid="10001" d="M301.7,55.5c0,5.1,0.1,9.6,2.5,9.6c1.4,0,2.9-0.3,4.3-0.6c0.8,0.5,1,2.4-0.3,3.1c-4.4,0.5-12.1,1.6-16.4,3.4    c-0.5-0.1-0.8-0.5-0.9-0.9c0.2-1.1,0.4-2.4,0.3-3.4c-0.1-0.7-0.4-1-1-1c-4.2,2.3-8.6,4.4-13.6,4.4c-9,0-11.9-4.5-11.9-12.1V43.9    c0-6.3-0.4-7.1-2.9-7.7l-1.4-0.4c-0.6-0.5-0.6-2.1,0.2-2.4c6-0.1,11.7-0.9,13.9-1.6c0.5,0.1,0.9,0.4,1,0.8    c-0.2,1.1-0.3,3.3-0.3,7.7v14c0,5.3,1.1,10.3,8.2,10.3c2.3,0,4.9-0.8,6.6-2.3c1-0.9,1.2-1.7,1.2-5.1V43.6c0-5.8-0.6-6.2-4.4-7.3    l-1.6-0.5c-0.7-0.5-0.7-2.1,0.1-2.5c6.7-0.1,13.7-0.7,15.7-1.6c0.5,0.1,0.9,0.4,1,0.8c-0.2,1.7-0.3,4.4-0.3,7.7V55.5"/><path data-cppathid="10002" d="M314,67.2c-1-1.7-1.6-6.4-1.4-10.2c0.6-0.7,2.1-0.8,2.8-0.2c1.8,5.1,5.5,9.9,10.8,9.9c3.1,0,5.6-1.9,5.6-5.1    c0-3.4-3.3-5.5-6.8-7.1c-5.2-2.3-10.6-5.6-10.6-11.4c-0.1-7.1,6.6-11.2,14.9-11.2c4.1,0,7.9,1.1,9.3,1.8c1,1.9,1.5,4.7,1.5,8.8    c-0.3,0.7-2,1-2.7,0.5c-1.5-4.2-4.7-7.6-8.6-7.6c-3.2,0-5.6,2.1-5.6,4.7c0,2.6,2.9,4.5,6.7,6.2c5.4,2.4,11.1,5.4,11.1,12.6    c0,7.9-7.7,11.3-15.6,11.3C321.3,70.1,317.2,69.4,314,67.2"/><path data-cppathid="10003" d="M357.8,34.7c0,1.1,0.2,1.5,0.9,1.5c3.5-2.4,7.8-4.4,12.8-4.4c8.6,0,12.8,5,12.8,12.7v13.5c0,6.7,0.4,7.8,3.8,8.2l2.3,0.3    c0.9,0.6,0.8,2.3-0.2,2.6c-4.2-0.2-7.6-0.3-11.3-0.3c-3.3,0-6.7,0.1-10.2,0.3c-0.8-0.4-0.9-2-0.2-2.6l1.5-0.2    c3.4-0.5,3.8-1.5,3.8-8.3V45.3c0-4.4-2.1-8-8-8c-3.3,0-5.6,1.5-6.8,2.6c-1.1,1.1-1.2,2.4-1.2,6v12.2c0,6.7,0.4,7.8,3.8,8.3    l1.5,0.2c0.7,0.6,0.6,2.3-0.2,2.6c-3.5-0.2-6.9-0.3-10.6-0.3c-3.2,0-6.6,0.1-10.8,0.3c-0.8-0.4-0.9-2-0.2-2.6l2.2-0.3    c3.4-0.5,3.8-1.5,3.8-8.2V19.2c0-6.1-0.2-6.6-2.3-7.9l-1.4-0.8c-0.6-0.4-0.7-1.8,0-2.1c3.9-1,9-2.9,13.1-4.4    c0.6-0.1,1.2,0.3,1.4,0.7c-0.2,3.6-0.3,9.3-0.3,13.1V34.7"/><path data-cppathid="10004" d="M400.7,44.7c0-4.1,0-5.2-2.5-6.5l-1.2-0.6c-0.3-0.4-0.3-1.6,0.1-2.1c4.3-1.3,9.6-3.3,12.6-4.9c0.6,0,1.2,0.3,1.4,0.8    c-0.1,1.7-0.2,3.3-0.2,4.1c0,0.6,0.4,1.1,1,1.1c3.1-2,6.4-4.7,9.8-4.7c3.5,0,5.5,2.1,5.5,4.4c0,3.5-2.9,5.3-5.6,5.3    c-1,0-1.9-0.3-2.7-0.7c-2.5-1.5-4.2-1.7-4.8-1.7c-2.3,0-2.9,2.1-2.9,6.5v12.4c0,6.7,0.4,7.7,3.9,8.1l3.9,0.4    c0.7,0.6,0.6,2.3-0.2,2.6c-6-0.2-9.4-0.3-13.1-0.3c-3.3,0-6.6,0.1-10.4,0.3c-0.8-0.4-0.9-2-0.2-2.6l1.8-0.3    c3.4-0.5,3.8-1.5,3.8-8.2V44.7"/><path data-cppathid="10005" d="M468.6,50.5c0,12.9-10,19.6-21.9,19.6c-11.5,0-21.1-6.6-21.1-18.5c0-12.2,10.2-19.8,21.9-19.8    C458.8,31.9,468.6,38.7,468.6,50.5 M448,66.5c6.9,0,8.9-7.4,8.9-14.4c0-7.6-2.9-16.6-10.3-16.6c-5.1,0-9.1,4.7-9.1,14.8    C437.5,58.5,440.8,66.5,448,66.5z"/></g><g><g><path data-cppathid="10006" d="M513.7,50.5c0,12.9-10,19.6-21.9,19.6c-11.5,0-21.1-6.6-21.1-18.5c0-12.2,10.2-19.8,21.9-19.8     C504,31.9,513.7,38.7,513.7,50.5 M493.1,66.5c6.9,0,8.9-7.4,8.9-14.4c0-7.6-2.9-16.6-10.3-16.6c-5.1,0-9.1,4.7-9.1,14.8     C482.6,58.5,485.9,66.5,493.1,66.5z"/><path data-cppathid="10007" d="M521.6,44.7c0-4.1,0-5.2-2.5-6.5l-1.2-0.6c-0.3-0.4-0.3-1.6,0.1-2.1c4.4-1.1,9.8-3.3,13-4.9c0.7,0,1.1,0.4,1.3,0.7     c-0.2,1.7-0.2,3.4-0.2,4.2c0,0.6,0.3,0.8,0.9,0.9c4.9-2.4,7.5-4.5,14.3-4.5c4.3,0,7.6,2.1,9,3.8c0.6,0.8,1.2,1.4,1.6,1.4     s1-0.3,2.2-0.9c4.7-2.6,8.1-4.3,12.8-4.3c8.4,0,12.2,5.1,12.2,12.2v14.1c0,6.7,0.4,7.7,3.8,8.2l2.2,0.3c0.9,0.6,0.4,2.3,0,2.6     c-4.3-0.2-7.7-0.3-11.4-0.3c-3.3,0-6.7,0.1-10.3,0.3c-0.8-0.4-0.9-2-0.2-2.6l1.6-0.3c3.4-0.5,3.8-1.5,3.8-8.2V45.7     c0-4.8-1.8-8.4-8.1-8.4c-2.9,0-5.5,1.4-6.7,2.7c-1,1.1-1.2,2.2-1.2,4.7v13.3c0,6.7,0.4,7.8,3.8,8.3l1.5,0.2     c0.7,0.6,0.6,2.3-0.2,2.6c-3.5-0.2-6.8-0.3-10.5-0.3c-3.3,0-6.7,0.1-10,0.3c-0.8-0.4-0.9-2-0.2-2.6l1.3-0.2     c3.4-0.5,3.8-1.5,3.8-8.3V45.7c0-4.8-1.8-8.4-7.6-8.4c-3.4,0-6,1.5-7.1,2.8c-1.2,1.5-1.3,2.3-1.3,5.8v12.2c0,6.7,0.4,7.8,3.8,8.3     l1.5,0.2c0.7,0.6,0.6,2.3-0.2,2.6c-3.5-0.2-6.9-0.3-10.6-0.3c-3.3,0-6.6,0.1-10.4,0.3c-0.8-0.4-0.9-2-0.2-2.6l1.8-0.3     c3.4-0.5,3.8-1.5,3.8-8.2V44.7"/></g></g><g><path data-cppathid="10008" d="M237.1,107.3c-0.7,0.7-2.5,0.8-3.2,0.2c-1.7-5.7-6.2-13.2-19.4-13.2c-12.7,0-25.5,8.2-25.5,26.8    c0,19.3,13.3,28.7,26.2,28.7c12.6,0,18.1-7.6,20.9-13.5c0.9-0.8,2.5-0.5,3,0.4c-0.7,6.1-3.4,12.1-4.8,13.8    c-1.2,0.2-2.4,0.5-3.5,0.8c-2.2,0.6-9.1,2.2-15.6,2.2c-9.9,0-18.4-1.8-25.6-6.1c-8.1-4.8-14.2-13.1-14.2-24.9    c0-10.6,5.2-18.9,12.6-24c7.4-5.1,17.5-7.7,27.6-7.7c5.7,0,12.6,0.9,17.3,2c1.2,0.3,1.9,0.4,2.8,0.5    C235.9,95.2,236.1,100.6,237.1,107.3"/><path data-cppathid="10009" d="M286.6,133.6c0,12.9-10,19.6-21.9,19.6c-11.5,0-21.1-6.6-21.1-18.5c0-12.2,10.2-19.8,21.9-19.8    C276.8,114.9,286.6,121.8,286.6,133.6 M265.9,149.5c6.9,0,8.9-7.4,8.9-14.4c0-7.6-2.9-16.6-10.3-16.6c-5.1,0-9.1,4.7-9.1,14.8    C255.4,141.5,258.7,149.5,265.9,149.5z"/><path data-cppathid="10010" d="M330.1,138.6c0,5.1,0.1,9.6,2.5,9.6c1.4,0,2.9-0.3,4.3-0.6c0.8,0.5,1,2.4-0.3,3.1c-4.4,0.5-12.1,1.6-16.4,3.4    c-0.5-0.1-0.8-0.5-0.9-0.9c0.2-1.1,0.4-2.4,0.3-3.4c-0.1-0.7-0.4-1-1-1c-4.2,2.3-8.6,4.4-13.6,4.4c-9,0-11.9-4.5-11.9-12.1v-14.1    c0-6.3-0.4-7.1-2.9-7.7l-1.4-0.4c-0.6-0.5-0.6-2.1,0.2-2.4c6-0.1,11.7-0.9,13.9-1.6c0.5,0.1,0.9,0.4,1,0.8    c-0.2,1.1-0.3,3.3-0.3,7.7v14c0,5.3,1.1,10.3,8.2,10.3c2.3,0,4.9-0.8,6.6-2.3c1-0.9,1.2-1.7,1.2-5.1v-13.7c0-5.8-0.6-6.2-4.4-7.3    l-1.6-0.5c-0.7-0.5-0.7-2.1,0.1-2.5c6.7-0.1,13.7-0.7,15.7-1.6c0.5,0.1,0.9,0.4,1,0.8c-0.2,1.7-0.3,4.4-0.3,7.7V138.6"/><path data-cppathid="10011" d="M356.8,141.1c0,6.7,0.4,7.8,3.8,8.3l1.5,0.2c0.7,0.6,0.6,2.3-0.2,2.6c-3.5-0.2-6.9-0.3-10.6-0.3c-3.2,0-6.6,0.1-10.8,0.3    c-0.8-0.4-0.9-2-0.2-2.6l2.2-0.3c3.4-0.5,3.8-1.5,3.8-8.2v-13.3c0-4.1,0-5.2-2.5-6.5l-1.2-0.6c-0.3-0.4-0.3-1.6,0.1-2.1    c4.3-1.1,9.8-3.3,13-4.9c0.7,0,1.1,0.4,1.3,0.7c-0.2,1.7-0.2,3.4-0.2,4.2c0,0.6,0.3,0.8,0.9,0.9c4.7-2.4,7.5-4.5,13.7-4.5    c8.1,0,11.9,5.1,11.9,12.2v14.1c0,6.7,0.4,7.8,3.8,8.2l2.3,0.3c0.7,0.6,0.6,2.3-0.2,2.6c-4.2-0.2-7.6-0.3-11.3-0.3    c-3.3,0-6.7,0.1-10.2,0.3c-0.8-0.4-0.9-2-0.2-2.6l1.5-0.2c3.4-0.5,3.8-1.5,3.8-8.3v-12.5c0-4.6-2-8.3-8-8.3    c-3.1,0-5.6,1.5-6.6,2.8c-1.3,1.6-1.4,2.4-1.4,5.8V141.1"/><path data-cppathid="10012" d="M423,116.2c1.3,1.1,2,2.5,2,4.6c0,2.9-1.7,4.3-2.5,4.3c-0.7,0-1.2-0.2-1.9-1c-2.2-2.6-5.2-5.5-9.1-5.5    c-5.7,0-11.6,5.1-11.6,13.6c0,7.3,5.2,14.3,14.3,14.3c6.5,0,8.8-2.2,10.8-4.8c0.9-0.1,2,0.5,2.1,1.6c-3.6,7.3-11.3,9.9-17.6,9.9    c-5.3,0-10.5-1.9-13.9-4.9c-3.5-3.1-5.8-7.8-5.8-13.1c0-10.6,8.5-20.3,24.6-20.3C417.3,114.9,420.2,115.3,423,116.2"/><path data-cppathid="10013" d="M445.9,141.1c0,6.7,0.4,7.6,3.8,8.2l1.8,0.3c0.7,0.6,0.6,2.3-0.2,2.6c-3.7-0.2-7.1-0.3-10.8-0.3c-3.3,0-6.7,0.1-10.5,0.3    c-0.8-0.4-0.9-2-0.2-2.6l1.8-0.3c3.4-0.5,3.8-1.5,3.8-8.2v-13.3c0-4.1,0-5.2-2.5-6.5l-1.2-0.6c-0.3-0.4-0.3-1.6,0.1-2.1    c5.2-1.4,10.2-3.4,13-4.9c0.6,0.1,1.1,0.3,1.4,0.7c-0.2,3-0.3,7.3-0.3,11.1V141.1 M434.5,101.1c0-3.1,2.5-5.4,6.1-5.4    s6.1,2.4,6.1,5.4c0,3.1-2.5,5.4-6.1,5.4S434.5,104.2,434.5,101.1z"/><path data-cppathid="10014" d="M461.2,102.2c0-6.1-0.1-6.6-2.6-8.1l-1.1-0.6c-0.6-0.4-0.7-1.8,0-2.1c3.9-1,9.1-2.9,13.1-4.4c0.6-0.1,1.2,0.3,1.4,0.7    c-0.2,3.6-0.3,9.3-0.3,13.2v40.2c0,6.7,0.4,7.7,3.8,8.2l2.2,0.3c0.7,0.6,0.6,2.3-0.2,2.6c-4.1-0.2-7.5-0.3-11.2-0.3    c-3.3,0-6.7,0.1-10.8,0.3c-0.8-0.4-0.9-2-0.2-2.6l2.1-0.3c3.4-0.5,3.8-1.5,3.8-8.2V102.2"/></g><g><g><rect data-cppathid="10015" height="156.2" width="155.7" y="0.3" x="0.5"/><path data-cppathid="10016" d="M156.8,78.4c0,43.3-35.1,78.4-78.4,78.4S0,121.7,0,78.4S35.1,0,78.4,0S156.8,35.1,156.8,78.4" fill="#FFFFFF"/><path data-cppathid="10017" d="M99.9,10.7c1.6,3.6,2.9,7.6,2.9,11.6c2,0.9,1.8-1.8,3.3-2.4c4-4,10.4-4.9,15.8-2.9     c9.3,3.3,17.3,11.6,20.2,21.3c1.6,6.7-2,12.4-6.4,16.9l0.4,0.7c6.4-0.4,13.8,2.4,16.7,8.7c4.7,10.2,3.1,24.2-4,32.4     c-3.6,3.8-9.1,4.4-13.6,4.7l-0.2,0.2c4.4,4.7,8,10.7,6,17.3c-2.9,10-11.8,18.4-21.6,21.3c-6,1.3-12.7-0.9-16.9-5.8     c-1.1,1.1,0.2,2.7-0.7,4c-0.4,6-4,11.3-9.8,13.3c-2,0.7-4.2,2-6.4,1.8c-7.3,2-15.6,0.7-21.8-2.7c-4.9-2.4-8-8.2-8.2-13.6     c-1.3-0.7,0.7-4.7-2-2.7c-3.6,5.1-10.7,6-16.9,4.9l-4.4-1.6c-2.2-1.8-4-3.1-6.4-4.4c-5.8-5.3-10.7-12.2-10.7-20.2     c0.2-5.3,4-8.4,6.7-12.4c-1.3-0.9-3.8,0-5.6-0.7C11.3,99.8,7,95.8,4.8,92c-3.6-6.2-4.9-15.3-2-22.4c1.1-4.9,4.2-10,8.7-12     c3.3-1.6,6.7-2.7,10.7-2.4l0.4-0.2c-1.3-2-4-3.8-4.2-6.2c-2.2-1.1-1.6-3.3-2.2-5.1c0.2-1.1,0-3.3,0.2-4.9     c0.9-1.3,0.6-2.6,1.4-3.7C20,29.1,26.1,23.3,31,19.3c5.8-2.4,12.7-4.9,18.9-1.6c2.2,1.1,3.8,2.7,5.8,4.4c1.3-1.6,0-3.8,0.7-5.8     c0.9-5.6,5.8-10.2,11.1-12C77,0.2,87.9,2.2,96.4,6.9L99.9,10.7" fill="#8F9194"/></g></g><g><path data-cppathid="10018" d="M68.8,112.7c0.2,4.9,0.4,8.4-0.2,13.3c-1.1,2.4-2.7-0.7-4.4,0c-2.7,0.2-5.1,1.8-7.1,3.8    c-0.9-1.3,0-3.8-0.9-5.3c-0.7-2.2-2.9-4-4.4-4.7h-0.4c-0.2-2.7,3.6-5.8,5.8-8.2c0.9-1.3,3.6-2,2.4-3.6c-2.7-0.4-3.6-2.2-5.8-4.2    l-0.2,0.2c-1.6-2-4.4-5.3-6.2-8c-0.2-0.7-0.9-0.2-1.1,0.2c-1.6,2.2-2.7,3.3-4.4,5.3c-1.3,0.4-2.4,2-4,3.1c-2.4,1.8-1.6-3.1-4-3.6    c-2-0.9-4.4-2.2-7.1-1.8c-0.4-1.1,2.4-2.4,2.9-4c0.9-2.2,1.3-4.7,0.2-6.9l0.4-0.7c4.4-0.4,8.7-1.3,12.9-0.2c0-0.2,0.4-0.2,0.4-0.7    h-0.7l0.7-0.4c-1.6-5.1-0.9-10.9,0-16c-0.9-2-3.6,0.4-5.3-0.9c-0.9,0.2-1.8,0.9-2.4,0c-2.2-0.2-4.4-0.2-6-1.3    c2-1.6,1.1-4.2,0.7-6.4l-2.9-4.2c0.9-0.9,2.7-0.2,3.8-0.4c2.7-0.4,5.1-2.9,6.2-5.3c3.8,1.6,6.9,5.3,9.6,8.2    c1.8,0.2,1.8-1.8,2.9-2.9c2.9-2.9,6.4-6.7,10-8.7c1.3-1.1-0.7-1.8-1.1-2.4h-0.2l-6.4-7.6c-0.7-1.6,1.3-1.3,2-1.8    c2.7-2.2,3.6-5.3,3.6-8.2c2.9,1.8,6.2,4,10,2.7c0.2-0.4,0.7-0.7,1.1-0.4c1.1,4.2,1.6,9.1,0.7,13.3c4.2,0.2,8.9-1.3,13.1-0.2    l5.1,0.9l0.4-0.7c-0.4-4.4-0.2-8.9,0.9-13.1c3.6,1.6,7.3,0.2,10-2.4l1.3-0.9c0,3.6,0.9,7.8,4.7,9.6c0.2,0,0.4,0.2,0.9,0.2    c0,2.4-2.9,4.4-4.2,6.4c-1.8,1.6-3.6,3.1-4.4,4.9c5.1,3.3,8.7,8.2,12.4,12.9c2.9-3.6,6.2-7.8,10.7-9.6c0.9,2.4,2.9,3.8,5.3,4.7    c1.3,0.7,3.3,0.2,5.1,0.4c-2.2,2.4-4.9,5.1-4.7,8.7L127,68c-1.1,1.1-3.3,0.9-4.4,1.6l-0.4-0.4c-3.3,0.2-6.7-0.2-9.6-0.7    c-0.4,3.1,1.3,6,0.9,9.1c0,2.7,0,5.8-0.7,8.4c0,0.4,0.4,0.9,1.1,0.7c4.2-0.4,7.8,0.2,11.8,1.1c1.6,0.9-0.9,2-0.4,3.3    c0.2,3.1,1.1,6.2,3.8,8.2l-0.7,0.7c-3.3-0.2-6.9,0.4-8.7,3.6c-0.2,0.7,0.2,1.6-0.7,1.8c-3.8-2.2-7.3-5.3-10-8.9    c-3.3,4.7-7.8,9.3-12.2,12l-0.9,1.3c3.8,2.7,6.7,6,8.9,10c-0.4,0.9-1.6,0.9-2.4,1.3c-2.4,2.2-3.1,5.6-3.3,8.4    c-2-1.6-4.7-3.8-7.6-3.6l-3.1,0.9c-1.8-4.7-0.9-9.8-1.3-14.4c-2.7,0.9-5.6,0.4-8.2,1.3c-2.2-0.7-3.7,0.6-6.1-0.5L68.8,112.7" fill="#FFFFFF"/></g></g></svg>