<?xml version="1.0" encoding="UTF-8"?>
<svg xmlns="http://www.w3.org/2000/svg" onmouseup="{ if(window.parent.document.onmouseup) window.parent.document.onmouseup(arguments[0]);}" xml:space="preserve" style="enable-background:new 0 0 275.8 29.5;" viewBox="0 0 275.8 29.5" y="0px" x="0px" id="Capa_1" version="1.1" xmlns:xlink="http://www.w3.org/1999/xlink"><style type="text/css">
	.st0{fill:none;stroke:#FFFFFF;stroke-width:0.25;}
</style><g><path data-cppathid="10000" d="M32.6,17.1c-1.8,2.5-4.9,3.5-9.6,3.5c-0.6,0-15.2,0-15.2,0v6.9H2.5V2.3H23c4.7,0,7.8,1.1,9.3,3   c1.1,1.4,1.8,3.4,1.8,6.2C34.1,13.9,33.6,15.8,32.6,17.1z M28.3,8.8c-0.8-1.3-2.8-2-6.2-2H7.7v9.1H22c3.6,0,5.4-0.7,6.3-2   c0.4-0.6,0.5-1.5,0.5-2.6C28.8,10.4,28.6,9.4,28.3,8.8z" class="st0"/><path data-cppathid="10001" d="M39.3,27.5h-5.7L50.5,2.3h5.9l16.4,25.2H67l-3.8-5.6h-20L39.3,27.5z M54.8,8.7l-1.5-2.5l-1.5,2.5l-5.9,8.6   h14.7L54.8,8.7z" class="st0"/><path data-cppathid="10002" d="M107.5,13.6c-0.9,1.4-2.6,2.8-5.1,3l9.3,10.9h-6l-8.7-10.2H82.6v10.2h-5.2V2.3h21.1c4.4,0,7.2,1.2,8.7,2.9   c0.9,1.1,1.4,2.4,1.4,4.3C108.6,11.1,108.2,12.5,107.5,13.6z M102.8,8.3c-0.8-0.9-2-1.4-4.5-1.4H82.6v5.8H99c2.3,0,3.4-0.4,3.9-1.2   c0.4-0.6,0.5-1.1,0.5-1.6C103.4,9.3,103.3,8.7,102.8,8.3z" class="st0"/><path data-cppathid="10003" d="M132.1,7v20.5h-5.3V7h-14.2V2.3h33.7V7H132.1z" class="st0"/><path data-cppathid="10004" d="M150.9,27.5V2.3h29.5V7h-24.3v5.6h23.8v4.6h-23.8v5.7h24.6v4.7H150.9z" class="st0"/><path data-cppathid="10005" d="M233.7,6.2c2.7,2.4,3.7,5.1,3.7,8.6c0,3.6-1.3,6.5-3.6,8.6c-3.2,3.1-8.5,4.5-15.2,4.5   c-6.3,0-11.2-1.6-14.6-4.3c-2.7-2.1-4.2-5-4.2-8.8c0-3.3,1.1-6,3.7-8.4c3.7-3.4,8.4-4.7,15.1-4.7C225.4,1.7,230.2,3.2,233.7,6.2z    M229.8,20c1.6-1.4,2.3-3.2,2.3-5.2c0-2-0.6-3.9-2.4-5.3c-2.5-2-5.7-3.1-11.1-3.1c-5.1,0-9,1.2-11.1,3.2c-1.6,1.4-2.3,3.2-2.3,5.3   c0,2.4,0.9,4.1,2.9,5.6c2.6,2,5.9,2.9,10.6,2.9C223.8,23.3,227.3,22.4,229.8,20z" class="st0"/><path data-cppathid="10006" d="M272.2,19.7c0,0.2,0,0.3,0,0.5c0,5.1-4.7,7.7-15.3,7.7c-9.3,0-13.5-2-15-5.5c-0.4-1-0.6-2.3-0.6-3.1h5.5   c0,0.5,0.1,1.2,0.4,1.6c1.1,1.9,4.1,2.6,9.8,2.6c6.9,0,9.5-1.2,9.6-3.6c0-0.1,0-0.2,0-0.3c0-2-2.1-2.9-7.7-2.9c-0.8,0-9.1,0-9.1,0   v-4c0,0,8.4,0,9.1,0c3.9,0,6.2-0.8,6.2-2.8c0-0.1,0-0.3,0-0.5c0-1.7-2.2-3.4-8.4-3.4c-4.9,0-7.4,0.9-8.3,2.6   c-0.3,0.6-0.4,1.3-0.4,1.9h-5.2c0.1-1.1,0.3-2.1,0.7-3c1.5-3.7,5.8-5.7,13.8-5.7c9.6,0,12.9,2.8,13.3,6.4c0,0.3,0,0.5,0,0.7   c0,2.4-1.6,4.7-5.8,5.1C269.4,14.5,272.2,16.7,272.2,19.7z" class="st0"/></g></svg>