<?xml version="1.0" encoding="UTF-8"?>
<svg xmlns="http://www.w3.org/2000/svg" onmouseup="{ if(window.parent.document.onmouseup) window.parent.document.onmouseup(arguments[0]);}" viewBox="0 0 1030 95.58" data-name="Capa 1" id="Capa_1"><defs><style>.cls-1{fill:#fff;}</style></defs><path data-cppathid="10000" d="M25.34,39V6.37h38.2v6.06H32.06v7.18H62.83v5.88H32.06v7.39H63.91V39Z" class="cls-1"/><path data-cppathid="10001" d="M73.13,39c-.25-.08-.42-.92-.42-2.34V9.21A15.49,15.49,0,0,0,72.5,6h6.43a19.25,19.25,0,0,1,.17,3.13V36.31c0,1.21.08,2.5.5,2.67Z" class="cls-1"/><path data-cppathid="10002" d="M143.84,33.84c-2.92,3.51-8.35,5.51-15.28,5.51-5.17,0-11.85-1.25-14.11-4V46.74H108V16.06h6.22v3.88c1.76-2.42,7.52-4.55,14.37-4.55,7.76,0,12.81,2.09,15.4,5.51a10.63,10.63,0,0,1,2.17,6.51A10,10,0,0,1,143.84,33.84Zm-6-10.18c-2-2-5.8-3.05-10.93-3.05s-9.4,1.21-11.28,3.46a5.27,5.27,0,0,0-1.42,3.6A4.79,4.79,0,0,0,115.58,31c1.8,2,5.84,3.22,11.36,3.22,5.3,0,9.22-1.17,11.23-3.22a5.19,5.19,0,0,0,1.37-3.63A4.93,4.93,0,0,0,137.87,23.66Z" class="cls-1"/><path data-cppathid="10003" d="M177.9,22.2a38.45,38.45,0,0,0-7.35-.67c-5.63,0-11,3-11,9.14V39H153.1V16h6.26V21.9c1.13-3.21,5.56-5.8,11.07-6.13a33.91,33.91,0,0,1,7.47.21Z" class="cls-1"/><path data-cppathid="10004" d="M218.47,32.88c-2.84,4.1-8.93,6.6-18.37,6.6-8.89,0-15.19-2.5-18.16-6.51a10.24,10.24,0,0,1-1.83-5.6A8.81,8.81,0,0,1,181.86,22c3-4.09,9.06-6.72,18.24-6.72,9.52,0,15.37,2.92,18.21,6.59a9.17,9.17,0,0,1,.16,11Zm-6.26-8.81c-2.09-2-6.26-3.46-12.11-3.46S190.34,22,188,24.12a4.77,4.77,0,0,0,0,6.59c1.92,2.13,6.3,3.59,12.1,3.59,6.14,0,10.19-1.33,12.24-3.63a5,5,0,0,0,1.33-3.26A4.31,4.31,0,0,0,212.21,24.07Z" class="cls-1"/><path data-cppathid="10005" d="M253.37,17.15c1.83-1.55,6.93-1.84,9.22-1.47v4.47c-2.54,0-5.42.17-6.18.63a5.37,5.37,0,0,1,1.72,2.84,7.34,7.34,0,0,1-.13,2.67c-.92,3.84-5.05,6.39-15.57,6.39a37.54,37.54,0,0,1-10.15-1.3,1.3,1.3,0,0,0-1.16,1.3c0,1,.87,1.58,13.06,1.58,13.53,0,17.58,1.46,17.58,5.89,0,5.05-6.43,7.39-19.79,7.39-14.24,0-18.45-2.76-18.45-6,0-2.55,2.92-3.8,5.38-4.18-2-.75-3.38-2-3.38-3.88a3.8,3.8,0,0,1,3.93-3.55A6.56,6.56,0,0,1,225,24.45a6.11,6.11,0,0,1,0-2c.71-4.05,5.76-7.39,16.2-7.39C246.73,15.06,250.9,15.93,253.37,17.15Zm1.71,23.42c0-1.55-1.46-1.59-11.27-1.84-4-.08-9.48,0-11.94-.13-1.21.17-2.13.71-2.13,1.76,0,1.25,2,2.46,11.81,2.46C252.78,42.82,255,41.9,255.08,40.57Zm-23.84-17a4.7,4.7,0,0,0,0,1.05c.25,2.38,3.67,3.67,10.23,3.67,7.3,0,10.06-1.38,10.39-3.71a7,7,0,0,0,0-1.26c-.42-2.08-3.3-3.46-10.23-3.46C234.91,19.86,231.62,21.15,231.24,23.57Z" class="cls-1"/><path data-cppathid="10006" d="M291.6,22.2a38.45,38.45,0,0,0-7.35-.67c-5.63,0-11,3-11,9.14V39H266.8V16h6.26V21.9c1.13-3.21,5.56-5.8,11.07-6.13a33.91,33.91,0,0,1,7.47.21Z" class="cls-1"/><path data-cppathid="10007" d="M323.45,39a16.06,16.06,0,0,1-.38-2.63c-1.5,1.54-6.55,3.13-15.19,3.13-9.31,0-14.49-2.09-14.49-6.76v-.63c0-5,5-7.51,18.12-7.56,3.21,0,8.77.34,11.65.63a4.21,4.21,0,0,0-.67-2.42c-1-1.34-4.05-2.46-10.48-2.46-5.89,0-8.81.71-10,1.87a2.5,2.5,0,0,0-.54,1.38H295.1a7.09,7.09,0,0,1,.38-1.79c1.46-4,6.59-6.47,16.24-6.47,10.89,0,15.78,2.42,17,7.55a23.33,23.33,0,0,1,.37,4.85c0,.83-.08,3.88-.08,5.76a18.6,18.6,0,0,0,.71,5.55ZM311,28.83c-6.14,0-9,.71-10.27,1.84a2,2,0,0,0-.55,1.38,1.48,1.48,0,0,0,.34,1.08c1,1.13,3.71,1.76,8.22,1.76,8.81,0,14.45-1,14.45-5.55C320.4,29.08,315.43,28.83,311,28.83Z" class="cls-1"/><path data-cppathid="10008" d="M387.06,27.83c0-3.76-1.75-6.93-8.93-6.93-5,0-9.31,2.05-9.31,6.93V39h-6V27.29c0-3.92-3.51-6.39-8.68-6.39-5.85,0-9.52,3.3-9.52,6.81V39h-6.43V16h6.22v5.3c1.63-3.92,6.89-5.89,11.94-5.89,5.3,0,10,1.76,11.52,6,1.76-3.92,6.06-6,12.19-6,9.4,0,12.61,4.6,12.61,11.23,0,11.73,0,12,.42,12.32h-5.6C387.06,39,387.06,36.52,387.06,27.83Z" class="cls-1"/><path data-cppathid="10009" d="M429.8,39a16.34,16.34,0,0,1-.37-2.63c-1.51,1.54-6.56,3.13-15.2,3.13-9.31,0-14.49-2.09-14.49-6.76v-.63c0-5,5-7.51,18.12-7.56,3.22,0,8.77.34,11.65.63a4.13,4.13,0,0,0-.67-2.42c-1-1.34-4-2.46-10.48-2.46-5.88,0-8.81.71-10,1.87a2.44,2.44,0,0,0-.55,1.38h-6.38a7.52,7.52,0,0,1,.37-1.79c1.46-4,6.6-6.47,16.24-6.47,10.9,0,15.78,2.42,17,7.55a24,24,0,0,1,.38,4.85c0,.83-.08,3.88-.08,5.76a18.27,18.27,0,0,0,.71,5.55ZM417.32,28.83c-6.14,0-9,.71-10.27,1.84a2,2,0,0,0-.54,1.38,1.47,1.47,0,0,0,.33,1.08c1,1.13,3.72,1.76,8.23,1.76,8.81,0,14.44-1,14.44-5.55C426.75,29.08,421.79,28.83,417.32,28.83Z" class="cls-1"/><path data-cppathid="10010" d="M492.75,19.73V6.08h6.34V36.22a22.81,22.81,0,0,0,.25,2.76h-6.26l-.17-4.26c-2,3.09-7.93,4.72-14,4.72-8.44,0-13.86-2.09-16.41-5.8a10.51,10.51,0,0,1-1.92-6.1,10.91,10.91,0,0,1,1.88-6.3c2.5-3.8,7.68-6,15.7-6C484.9,15.27,490.41,16.64,492.75,19.73ZM468.28,24A5.44,5.44,0,0,0,467,27.5,5.2,5.2,0,0,0,468.28,31c2,2.25,6.1,3.34,12.11,3.34s10-1.17,11.61-3.68a5.46,5.46,0,0,0,.87-3.17,5.13,5.13,0,0,0-1.29-3.59c-2-2.17-5.93-3.3-11.73-3.3S470,21.78,468.28,24Z" class="cls-1"/><path data-cppathid="10011" d="M543.21,34.35c-2.54,2.63-7.89,5.17-17.45,5.17-8.76,0-15.15-1.92-18-6.26a10.7,10.7,0,0,1-1.76-6,9.81,9.81,0,0,1,1.8-5.64c3-4.05,9.52-6.35,17.91-6.35,10.31,0,17.24,3.59,18.87,10a22.38,22.38,0,0,1,.58,4.39H512.44A4.12,4.12,0,0,0,514.32,32c2,1.71,5.89,2.79,11.82,2.79a25.83,25.83,0,0,0,9.47-1.46,6.82,6.82,0,0,0,2-1.5h7.1A7.27,7.27,0,0,1,543.21,34.35ZM537.28,23c-1.54-1.63-5.59-2.92-11.73-2.92-5.84,0-10.48,1.25-12.1,3.13a3.74,3.74,0,0,0-1,2.17h26.18A3.41,3.41,0,0,0,537.28,23Z" class="cls-1"/><path data-cppathid="10012" d="M585.53,39.48c-12.31,0-16.78-1.84-18.16-6.43a5.83,5.83,0,0,1-.29-1.54h6.3a2.06,2.06,0,0,0,.46,1.25c1,1.13,4,1.75,11.73,1.75,9.73,0,11.11-1.08,11.11-2.5,0-1.59-1.25-1.92-9.69-2.34-1.62-.08-4.55-.29-6.51-.42-9.23-.54-12.81-2.67-12.81-6.85,0-4.59,5.34-7.18,16-7.18s15.57,1.59,17.32,5.89A6.77,6.77,0,0,1,601.4,23h-6.31a2.41,2.41,0,0,0-.37-.88c-1-1.08-3.84-1.79-10.61-1.79-9.18,0-10.35.87-10.35,2.17s1,1.67,9,2.08c2,.13,5,.3,7,.38,9.72.38,13.06,2.5,13.06,7.06C602.77,36.85,598.1,39.48,585.53,39.48Z" class="cls-1"/><path data-cppathid="10013" d="M637.33,39a16.34,16.34,0,0,1-.37-2.63c-1.5,1.54-6.56,3.13-15.2,3.13-9.31,0-14.48-2.09-14.48-6.76v-.63c0-5,5-7.51,18.11-7.56,3.22,0,8.77.34,11.65.63a4.13,4.13,0,0,0-.67-2.42c-1-1.34-4-2.46-10.47-2.46-5.89,0-8.81.71-10,1.87a2.52,2.52,0,0,0-.55,1.38H609a7.52,7.52,0,0,1,.37-1.79c1.46-4,6.6-6.47,16.24-6.47,10.9,0,15.78,2.42,17,7.55a24,24,0,0,1,.38,4.85c0,.83-.08,3.88-.08,5.76A18.27,18.27,0,0,0,643.6,39ZM624.85,28.83c-6.14,0-9,.71-10.27,1.84a2,2,0,0,0-.54,1.38,1.47,1.47,0,0,0,.33,1.08c1,1.13,3.72,1.76,8.23,1.76,8.81,0,14.44-1,14.44-5.55C634.29,29.08,629.32,28.83,624.85,28.83Z" class="cls-1"/><path data-cppathid="10014" d="M680,39c-.29,0-.46-1.38-.46-11.19,0-4.55-3.09-6.89-9.89-6.89-5.81,0-11.11,2.72-11.11,6.93V39H652.1V16h6.23v5.3c2.08-4.47,8.18-6,14.06-6,9.94,0,13.61,4.88,13.61,11.35,0,11.65.13,11.86.34,12.32Z" class="cls-1"/><path data-cppathid="10015" d="M730,34.35c-2.55,2.63-7.89,5.17-17.45,5.17-8.77,0-15.16-1.92-18-6.26a10.76,10.76,0,0,1-1.75-6,9.81,9.81,0,0,1,1.8-5.64c3-4.05,9.51-6.35,17.9-6.35,10.32,0,17.25,3.59,18.88,10a22.38,22.38,0,0,1,.58,4.39H699.27A4.12,4.12,0,0,0,701.15,32c2,1.71,5.89,2.79,11.81,2.79a25.86,25.86,0,0,0,9.48-1.46,6.82,6.82,0,0,0,2-1.5h7.09A7.23,7.23,0,0,1,730,34.35ZM724.11,23c-1.54-1.63-5.59-2.92-11.73-2.92-5.84,0-10.48,1.25-12.11,3.13a3.79,3.79,0,0,0-1,2.17h26.18A3.41,3.41,0,0,0,724.11,23Z" class="cls-1"/><path data-cppathid="10016" d="M765.77,39a16.06,16.06,0,0,1-.38-2.63c-1.5,1.54-6.55,3.13-15.19,3.13-9.31,0-14.49-2.09-14.49-6.76v-.63c0-5,5-7.51,18.12-7.56,3.21,0,8.76.34,11.65.63a4.21,4.21,0,0,0-.67-2.42c-1-1.34-4-2.46-10.48-2.46-5.89,0-8.81.71-10,1.87a2.5,2.5,0,0,0-.54,1.38h-6.39a7.09,7.09,0,0,1,.38-1.79c1.46-4,6.59-6.47,16.24-6.47,10.89,0,15.78,2.42,17,7.55a23.33,23.33,0,0,1,.37,4.85c0,.83-.08,3.88-.08,5.76A18.27,18.27,0,0,0,772,39ZM753.29,28.83c-6.14,0-9,.71-10.28,1.84a2,2,0,0,0-.54,1.38,1.44,1.44,0,0,0,.34,1.08c1,1.13,3.71,1.76,8.22,1.76,8.81,0,14.45-1,14.45-5.55C762.72,29.08,757.75,28.83,753.29,28.83Z" class="cls-1"/><path data-cppathid="10017" d="M829.38,27.83c0-3.76-1.75-6.93-8.93-6.93-5,0-9.31,2.05-9.31,6.93V39h-6V27.29c0-3.92-3.51-6.39-8.68-6.39-5.85,0-9.52,3.3-9.52,6.81V39h-6.43V16h6.22v5.3c1.63-3.92,6.89-5.89,11.94-5.89,5.3,0,10,1.76,11.52,6,1.75-3.92,6-6,12.19-6C831.8,15.43,835,20,835,26.66c0,11.73,0,12,.42,12.32h-5.6C829.38,39,829.38,36.52,829.38,27.83Z" class="cls-1"/><path data-cppathid="10018" d="M845,12.89V6.29h6.72v6.6ZM845.69,39c-.37-.08-.54-1.13-.54-3.47V16h6.52V35.47c0,2.59,0,3.18.58,3.51Z" class="cls-1"/><path data-cppathid="10019" d="M896.79,34.35c-2.55,2.63-7.89,5.17-17.45,5.17-8.77,0-15.15-1.92-18-6.26a10.76,10.76,0,0,1-1.75-6,9.81,9.81,0,0,1,1.8-5.64c3-4.05,9.52-6.35,17.91-6.35,10.31,0,17.24,3.59,18.87,10a22.38,22.38,0,0,1,.58,4.39H866A4.12,4.12,0,0,0,867.9,32c2,1.71,5.89,2.79,11.82,2.79a25.83,25.83,0,0,0,9.47-1.46,6.82,6.82,0,0,0,2-1.5h7.09A7.23,7.23,0,0,1,896.79,34.35ZM890.86,23c-1.54-1.63-5.59-2.92-11.73-2.92-5.84,0-10.48,1.25-12.11,3.13a3.79,3.79,0,0,0-1,2.17H892.2A3.41,3.41,0,0,0,890.86,23Z" class="cls-1"/><path data-cppathid="10020" d="M932.89,39c-.29,0-.46-1.38-.46-11.19,0-4.55-3.08-6.89-9.89-6.89-5.8,0-11.1,2.72-11.1,6.93V39H905V16h6.22v5.3c2.08-4.47,8.18-6,14.07-6,9.93,0,13.61,4.88,13.61,11.35,0,11.65.12,11.86.33,12.32Z" class="cls-1"/><path data-cppathid="10021" d="M957.14,21.65V30c0,3.05,1.34,4.18,5,4.18a43.77,43.77,0,0,0,6-.5v4.93a35.14,35.14,0,0,1-8,.83c-5.6,0-9.44-1.79-9.44-8.1V21.65h-7v-5.3h7c.17-1.54.17-5.88.17-5.88l6.22-.17v6.05h11.35v5.3Z" class="cls-1"/><path data-cppathid="10022" d="M1010.91,32.88c-2.84,4.1-8.94,6.6-18.37,6.6-8.89,0-15.2-2.5-18.16-6.51a10.17,10.17,0,0,1-1.84-5.6A8.81,8.81,0,0,1,974.29,22c3-4.09,9.06-6.72,18.25-6.72,9.52,0,15.36,2.92,18.2,6.59a9.19,9.19,0,0,1,.17,11Zm-6.26-8.81c-2.09-2-6.27-3.46-12.11-3.46s-9.77,1.34-12.15,3.51a4.8,4.8,0,0,0,0,6.59c1.92,2.13,6.31,3.59,12.11,3.59,6.13,0,10.18-1.33,12.23-3.63a5,5,0,0,0,1.34-3.26A4.35,4.35,0,0,0,1004.65,24.07Z" class="cls-1"/><path data-cppathid="10023" d="M53.85,69.82V56.17H60.2V86.31a22.81,22.81,0,0,0,.25,2.76H54.18L54,84.81c-2,3.09-7.94,4.72-14,4.72-8.43,0-13.86-2.09-16.41-5.81a10.45,10.45,0,0,1-1.92-6.09,11,11,0,0,1,1.88-6.31c2.51-3.79,7.68-6,15.7-6C46,65.35,51.51,66.73,53.85,69.82ZM29.39,74a5.39,5.39,0,0,0-1.26,3.55,5.14,5.14,0,0,0,1.26,3.5c2,2.26,6.09,3.34,12.1,3.34s10-1.17,11.61-3.67A5.47,5.47,0,0,0,54,77.59,5.14,5.14,0,0,0,52.68,74c-2-2.17-5.93-3.3-11.73-3.3S31.14,71.87,29.39,74Z" class="cls-1"/><path data-cppathid="10024" d="M104.32,84.43c-2.55,2.63-7.9,5.18-17.46,5.18-8.76,0-15.15-1.92-18-6.26a10.69,10.69,0,0,1-1.75-6.06,9.87,9.87,0,0,1,1.79-5.63c3-4,9.52-6.35,17.91-6.35,10.31,0,17.24,3.59,18.87,10a22.3,22.3,0,0,1,.59,4.38H73.55a4.05,4.05,0,0,0,1.88,2.38c2,1.72,5.88,2.8,11.81,2.8a25.94,25.94,0,0,0,9.48-1.46,6.77,6.77,0,0,0,2-1.5h7.1A7.11,7.11,0,0,1,104.32,84.43ZM98.39,73.12c-1.55-1.63-5.6-2.92-11.73-2.92-5.85,0-10.48,1.25-12.11,3.13a3.64,3.64,0,0,0-1,2.17H99.72A3.43,3.43,0,0,0,98.39,73.12Z" class="cls-1"/><path data-cppathid="10025" d="M132.11,89.07c-.25-.09-.42-.92-.42-2.34V59.3a15.61,15.61,0,0,0-.21-3.26h6.43a19.39,19.39,0,0,1,.17,3.14V86.4c0,1.21.08,2.5.5,2.67Z" class="cls-1"/><path data-cppathid="10026" d="M175.81,89.07a16.34,16.34,0,0,1-.37-2.63c-1.5,1.54-6.56,3.13-15.2,3.13-9.31,0-14.48-2.09-14.48-6.76v-.63c0-5,5-7.52,18.12-7.56,3.21,0,8.76.34,11.64.63a4.13,4.13,0,0,0-.67-2.42c-1-1.34-4-2.47-10.47-2.47-5.89,0-8.81.71-10,1.88a2.43,2.43,0,0,0-.54,1.38h-6.39a7.52,7.52,0,0,1,.37-1.79c1.46-4,6.6-6.48,16.24-6.48,10.9,0,15.78,2.43,17,7.56a24,24,0,0,1,.37,4.84c0,.84-.08,3.89-.08,5.77a18.27,18.27,0,0,0,.71,5.55ZM163.33,78.92c-6.13,0-9,.71-10.27,1.84a2,2,0,0,0-.54,1.38,1.47,1.47,0,0,0,.33,1.08c1,1.13,3.72,1.76,8.23,1.76,8.81,0,14.44-1,14.44-5.56C172.77,79.17,167.8,78.92,163.33,78.92Z" class="cls-1"/><path data-cppathid="10027" d="M209.7,63v-6.6h6.72V63Zm.67,26.09c-.37-.09-.54-1.13-.54-3.47V66.11h6.51V85.56c0,2.59,0,3.17.58,3.51Z" class="cls-1"/><path data-cppathid="10028" d="M254.75,89.07c-.3,0-.46-1.38-.46-11.19,0-4.55-3.09-6.89-9.9-6.89-5.8,0-11.1,2.71-11.1,6.93V89.07h-6.43v-23h6.22v5.3c2.09-4.47,8.18-6,14.07-6,9.93,0,13.61,4.88,13.61,11.35,0,11.65.12,11.86.33,12.32Z" class="cls-1"/><path data-cppathid="10029" d="M299.66,69.82V56.17H306V86.31a22.81,22.81,0,0,0,.25,2.76H300l-.17-4.26c-2,3.09-7.93,4.72-14,4.72-8.44,0-13.86-2.09-16.41-5.81a10.45,10.45,0,0,1-1.92-6.09,11,11,0,0,1,1.88-6.31c2.5-3.79,7.68-6,15.7-6C291.81,65.35,297.32,66.73,299.66,69.82ZM275.19,74a5.44,5.44,0,0,0-1.25,3.55,5.18,5.18,0,0,0,1.25,3.5c2,2.26,6.1,3.34,12.11,3.34s10-1.17,11.61-3.67a5.46,5.46,0,0,0,.87-3.17A5.13,5.13,0,0,0,298.49,74c-2-2.17-5.93-3.3-11.73-3.3S277,71.87,275.19,74Z" class="cls-1"/><path data-cppathid="10030" d="M349.2,89.07h-6.26l-.16-4.14c-3,3.89-8.77,4.72-14.2,4.72-8.39,0-13.48-2.5-13.48-9.81-.05-13.23-.17-13.4-.42-13.73h6.64c.21,0,.25,5.63.25,11.56,0,5,2.46,6.55,9.6,6.55,6.85,0,11.4-2.83,11.4-6.68V66.11h6.51V84.43C349.08,87.69,349.2,88.94,349.2,89.07Z" class="cls-1"/><path data-cppathid="10031" d="M374.25,89.57c-12.32,0-16.79-1.84-18.17-6.43a5.83,5.83,0,0,1-.29-1.55h6.31a2,2,0,0,0,.46,1.26c1,1.12,4,1.75,11.73,1.75,9.72,0,11.1-1.08,11.1-2.5,0-1.59-1.25-1.92-9.68-2.34-1.63-.09-4.55-.29-6.52-.42-9.22-.54-12.81-2.67-12.81-6.85,0-4.59,5.34-7.18,16-7.18S388,66.9,389.73,71.2a6.77,6.77,0,0,1,.38,1.84H383.8a2.41,2.41,0,0,0-.37-.88c-1-1.09-3.84-1.8-10.6-1.8-9.19,0-10.36.88-10.36,2.18s1,1.67,9,2.08c2,.13,5,.29,7,.38,9.73.37,13.07,2.5,13.07,7C391.49,86.94,386.81,89.57,374.25,89.57Z" class="cls-1"/><path data-cppathid="10032" d="M407.34,71.74v8.39c0,3.05,1.34,4.18,5,4.18a44.05,44.05,0,0,0,6.06-.5v4.92a34.56,34.56,0,0,1-8.06.84c-5.6,0-9.44-1.8-9.44-8.1V71.74h-7.05v-5.3h7.05c.17-1.54.17-5.89.17-5.89l6.22-.16v6h11.36v5.3Z" class="cls-1"/><path data-cppathid="10033" d="M450.25,72.28a39.22,39.22,0,0,0-7.34-.66c-5.64,0-11,3-11,9.14v8.31h-6.47v-23h6.26V72c1.13-3.21,5.55-5.8,11.06-6.13a33.41,33.41,0,0,1,7.47.2Z" class="cls-1"/><path data-cppathid="10034" d="M456.55,63v-6.6h6.72V63Zm.67,26.09c-.37-.09-.54-1.13-.54-3.47V66.11h6.51V85.56c0,2.59,0,3.17.59,3.51Z" class="cls-1"/><path data-cppathid="10035" d="M501.22,89.07a16.06,16.06,0,0,1-.38-2.63c-1.5,1.54-6.55,3.13-15.19,3.13-9.31,0-14.49-2.09-14.49-6.76v-.63c0-5,5-7.52,18.12-7.56,3.21,0,8.77.34,11.65.63a4.21,4.21,0,0,0-.67-2.42c-1-1.34-4.05-2.47-10.48-2.47-5.89,0-8.81.71-10,1.88a2.5,2.5,0,0,0-.54,1.38h-6.39a7.09,7.09,0,0,1,.38-1.79c1.46-4,6.59-6.48,16.24-6.48,10.89,0,15.78,2.43,17,7.56a23.93,23.93,0,0,1,.38,4.84c-.05.84-.09,3.89-.09,5.77a18.6,18.6,0,0,0,.71,5.55ZM488.74,78.92c-6.14,0-9,.71-10.27,1.84a2,2,0,0,0-.55,1.38,1.48,1.48,0,0,0,.34,1.08c1,1.13,3.71,1.76,8.22,1.76,8.81,0,14.45-1,14.45-5.56C498.17,79.17,493.2,78.92,488.74,78.92Z" class="cls-1"/><path data-cppathid="10036" d="M564.16,69.82V56.17h6.35V86.31a22.81,22.81,0,0,0,.25,2.76H564.5l-.17-4.26c-2,3.09-7.93,4.72-14,4.72-8.43,0-13.86-2.09-16.4-5.81A10.45,10.45,0,0,1,532,77.63a11,11,0,0,1,1.87-6.31c2.51-3.79,7.69-6,15.7-6C556.31,65.35,561.83,66.73,564.16,69.82ZM539.7,74a5.39,5.39,0,0,0-1.25,3.55,5.13,5.13,0,0,0,1.25,3.5c2,2.26,6.09,3.34,12.11,3.34s10-1.17,11.6-3.67a5.39,5.39,0,0,0,.88-3.17A5.14,5.14,0,0,0,563,74c-2-2.17-5.92-3.3-11.73-3.3S541.45,71.87,539.7,74Z" class="cls-1"/><path data-cppathid="10037" d="M614.63,84.43c-2.55,2.63-7.89,5.18-17.45,5.18-8.77,0-15.16-1.92-18-6.26a10.77,10.77,0,0,1-1.75-6.06,9.87,9.87,0,0,1,1.79-5.63c3-4,9.52-6.35,17.91-6.35,10.32,0,17.25,3.59,18.87,10a21.57,21.57,0,0,1,.59,4.38H583.86a4.09,4.09,0,0,0,1.88,2.38c2,1.72,5.88,2.8,11.81,2.8A25.86,25.86,0,0,0,607,83.39a6.64,6.64,0,0,0,2-1.5h7.1A7.11,7.11,0,0,1,614.63,84.43ZM608.7,73.12c-1.54-1.63-5.59-2.92-11.73-2.92-5.85,0-10.48,1.25-12.11,3.13a3.7,3.7,0,0,0-1,2.17H610A3.45,3.45,0,0,0,608.7,73.12Z" class="cls-1"/><path data-cppathid="10038" d="M642.42,89.07c-.25-.09-.42-.92-.42-2.34V59.3a15.61,15.61,0,0,0-.21-3.26h6.43a19.39,19.39,0,0,1,.17,3.14V86.4c0,1.21.08,2.5.5,2.67Z" class="cls-1"/><path data-cppathid="10039" d="M694.27,83c-2.84,4.09-8.94,6.6-18.37,6.6-8.89,0-15.2-2.51-18.16-6.51a10.17,10.17,0,0,1-1.84-5.6,8.76,8.76,0,0,1,1.76-5.38c3-4.1,9.05-6.73,18.24-6.73,9.52,0,15.36,2.93,18.2,6.6a9.19,9.19,0,0,1,.17,11ZM688,74.16c-2.09-2-6.27-3.46-12.11-3.46s-9.77,1.33-12.15,3.51a4.8,4.8,0,0,0,0,6.59c1.92,2.13,6.31,3.59,12.11,3.59,6.14,0,10.18-1.33,12.23-3.63a5,5,0,0,0,1.34-3.26A4.32,4.32,0,0,0,688,74.16Z" class="cls-1"/><path data-cppathid="10040" d="M718.47,89.57c-12.31,0-16.78-1.84-18.16-6.43a5.83,5.83,0,0,1-.29-1.55h6.3a2.07,2.07,0,0,0,.46,1.26c1,1.12,4.05,1.75,11.73,1.75,9.73,0,11.11-1.08,11.11-2.5,0-1.59-1.25-1.92-9.69-2.34-1.62-.09-4.55-.29-6.51-.42-9.22-.54-12.82-2.67-12.82-6.85,0-4.59,5.35-7.18,16-7.18S732.21,66.9,734,71.2a6.77,6.77,0,0,1,.38,1.84H728a2.41,2.41,0,0,0-.37-.88c-1-1.09-3.84-1.8-10.61-1.8-9.18,0-10.35.88-10.35,2.18s1,1.67,9,2.08c2,.13,5,.29,7,.38,9.73.37,13.06,2.5,13.06,7C735.71,86.94,731,89.57,718.47,89.57Z" class="cls-1"/><path data-cppathid="10041" d="M795.82,89.07h-6.51c-.34-.5-.42-1.71-.42-11.23,0-4.51-3-6.85-9.94-6.85-5.84,0-11.06,2.67-11.06,7.1v11h-6.43V55.92h6.22V71.45c2.05-4.18,7.18-6,14.07-6,9.14,0,13.61,4.13,13.61,11.06C795.36,88.15,795.44,88.94,795.82,89.07Z" class="cls-1"/><path data-cppathid="10042" d="M840.44,83c-2.84,4.09-8.93,6.6-18.37,6.6-8.89,0-15.19-2.51-18.16-6.51a10.17,10.17,0,0,1-1.84-5.6,8.82,8.82,0,0,1,1.76-5.38c3-4.1,9.06-6.73,18.24-6.73,9.52,0,15.36,2.93,18.2,6.6a9.19,9.19,0,0,1,.17,11Zm-6.26-8.81c-2.09-2-6.26-3.46-12.11-3.46S812.3,72,809.92,74.21a4.8,4.8,0,0,0,0,6.59c1.92,2.13,6.31,3.59,12.11,3.59,6.14,0,10.19-1.33,12.23-3.63a5,5,0,0,0,1.34-3.26A4.32,4.32,0,0,0,834.18,74.16Z" class="cls-1"/><path data-cppathid="10043" d="M877.13,89.07c-.29,0-.46-1.38-.46-11.19,0-4.55-3.09-6.89-9.89-6.89-5.81,0-11.11,2.71-11.11,6.93V89.07h-6.43v-23h6.22v5.3c2.09-4.47,8.18-6,14.07-6,9.94,0,13.61,4.88,13.61,11.35,0,11.65.13,11.86.33,12.32Z" class="cls-1"/><path data-cppathid="10044" d="M918.66,67.23c1.84-1.54,6.93-1.83,9.23-1.46v4.47c-2.55,0-5.43.17-6.18.63a5.37,5.37,0,0,1,1.71,2.83,7.38,7.38,0,0,1-.13,2.68c-.91,3.84-5,6.38-15.57,6.38a37.55,37.55,0,0,1-10.14-1.29,1.3,1.3,0,0,0-1.17,1.29c0,1,.87,1.59,13.07,1.59,13.52,0,17.57,1.46,17.57,5.89,0,5.05-6.43,7.39-19.79,7.39-14.23,0-18.45-2.76-18.45-6,0-2.54,2.92-3.8,5.39-4.17-2-.75-3.39-2-3.39-3.88A3.8,3.8,0,0,1,894.74,80a6.57,6.57,0,0,1-4.47-5.47,6.71,6.71,0,0,1,0-2c.71-4.05,5.76-7.39,16.2-7.39C912,65.15,916.2,66,918.66,67.23Zm1.71,23.42c0-1.54-1.46-1.58-11.27-1.83-4-.09-9.48,0-11.94-.13-1.21.17-2.13.71-2.13,1.75,0,1.26,2,2.47,11.81,2.47C918.08,92.91,920.33,92,920.37,90.65Zm-23.84-17a4.7,4.7,0,0,0,0,1c.25,2.38,3.68,3.67,10.23,3.67,7.31,0,10.06-1.38,10.4-3.72a6.24,6.24,0,0,0,0-1.25c-.41-2.09-3.29-3.46-10.23-3.46C900.21,70,896.91,71.24,896.53,73.66Z" class="cls-1"/><path data-cppathid="10045" d="M968,83c-2.84,4.09-8.94,6.6-18.37,6.6-8.89,0-15.2-2.51-18.16-6.51a10.17,10.17,0,0,1-1.84-5.6,8.76,8.76,0,0,1,1.76-5.38c3-4.1,9.05-6.73,18.24-6.73,9.52,0,15.36,2.93,18.2,6.6A9.19,9.19,0,0,1,968,83Zm-6.26-8.81c-2.09-2-6.27-3.46-12.11-3.46s-9.77,1.33-12.15,3.51a4.8,4.8,0,0,0,0,6.59c1.92,2.13,6.31,3.59,12.11,3.59,6.14,0,10.19-1.33,12.23-3.63a5,5,0,0,0,1.34-3.26A4.32,4.32,0,0,0,961.74,74.16Z" class="cls-1"/><path data-cppathid="10046" d="M992.2,89.57c-12.31,0-16.78-1.84-18.16-6.43a5.83,5.83,0,0,1-.29-1.55h6.3a2.07,2.07,0,0,0,.46,1.26c1,1.12,4,1.75,11.74,1.75,9.72,0,11.1-1.08,11.1-2.5,0-1.59-1.25-1.92-9.68-2.34-1.63-.09-4.56-.29-6.52-.42-9.22-.54-12.82-2.67-12.82-6.85,0-4.59,5.35-7.18,16-7.18s15.57,1.59,17.32,5.89a6.77,6.77,0,0,1,.38,1.84h-6.31a2.41,2.41,0,0,0-.37-.88c-1-1.09-3.84-1.8-10.61-1.8-9.18,0-10.35.88-10.35,2.18s1,1.67,9,2.08c2,.13,5,.29,7,.38,9.73.37,13.07,2.5,13.07,7C1009.45,86.94,1004.77,89.57,992.2,89.57Z" class="cls-1"/></svg>