<?xml version="1.0" encoding="UTF-8"?>
<svg xmlns="http://www.w3.org/2000/svg" onmouseup="{ if(window.parent.document.onmouseup) window.parent.document.onmouseup(arguments[0]);}" viewBox="0 0 497.1 96.69" data-name="Capa 1" id="Capa_1"><defs><style>.cls-1{fill:#fff;}</style></defs><path data-cppathid="10000" d="M57.5,54.32c-3,5.51-9.64,8.81-21.71,8.81S16.67,59.5,13.5,54.49a15.76,15.76,0,0,1-2.25-8.23,14.25,14.25,0,0,1,1.92-7.55c3.29-5.39,10.1-9.4,22.25-9.4s18.33,3.55,21.87,9.11A12.14,12.14,0,0,1,59,43H51.74a6.37,6.37,0,0,0-1.59-2.72c-2.21-2.42-7.13-4.63-14.77-4.63-8.1,0-14,2.38-16.24,6.55a8.62,8.62,0,0,0-.88,4,7.85,7.85,0,0,0,1.13,4.3c2.75,4.43,9.68,6.35,16,6.35,7.39,0,12.27-1.09,15.36-4.76A6.46,6.46,0,0,0,52,49.65h7.14A17.34,17.34,0,0,1,57.5,54.32Z" class="cls-1"/><path data-cppathid="10001" d="M93.6,62.63A16.34,16.34,0,0,1,93.23,60c-1.5,1.54-6.56,3.13-15.2,3.13-9.31,0-14.48-2.09-14.48-6.76v-.63c0-5,5-7.51,18.11-7.56,3.22,0,8.77.34,11.65.63a4.13,4.13,0,0,0-.67-2.42c-1-1.34-4-2.46-10.47-2.46-5.89,0-8.81.71-10,1.88a2.37,2.37,0,0,0-.54,1.37H65.26a7.52,7.52,0,0,1,.37-1.79c1.46-4,6.6-6.47,16.24-6.47,10.9,0,15.78,2.42,17,7.55a23.27,23.27,0,0,1,.38,4.85c0,.83-.08,3.88-.08,5.76a18.27,18.27,0,0,0,.71,5.55ZM81.12,52.49c-6.14,0-9,.71-10.27,1.83a2,2,0,0,0-.54,1.38,1.47,1.47,0,0,0,.33,1.08c1,1.13,3.72,1.76,8.23,1.76,8.81,0,14.44-1,14.44-5.55C90.56,52.74,85.59,52.49,81.12,52.49Z" class="cls-1"/><path data-cppathid="10002" d="M144.19,57.49C141.27,61,135.85,63,128.92,63c-5.18,0-11.86-1.26-14.12-4V70.4h-6.42V39.71h6.22v3.88C116.35,41.17,122.11,39,129,39c7.76,0,12.81,2.09,15.4,5.51a10.63,10.63,0,0,1,2.17,6.52A10,10,0,0,1,144.19,57.49Zm-6-10.18c-2-2-5.81-3.05-10.94-3.05s-9.4,1.21-11.27,3.47a5.18,5.18,0,0,0-1.42,3.59,4.83,4.83,0,0,0,1.33,3.29c1.8,2,5.85,3.22,11.36,3.22,5.3,0,9.22-1.17,11.23-3.22A5.19,5.19,0,0,0,139.9,51,5,5,0,0,0,138.23,47.31Z" class="cls-1"/><path data-cppathid="10003" d="M181,62.63a16.06,16.06,0,0,1-.38-2.63c-1.5,1.54-6.55,3.13-15.2,3.13-9.31,0-14.48-2.09-14.48-6.76v-.63c0-5,5-7.51,18.12-7.56,3.21,0,8.76.34,11.64.63a4.19,4.19,0,0,0-.66-2.42c-1-1.34-4-2.46-10.48-2.46-5.89,0-8.81.71-10,1.88a2.44,2.44,0,0,0-.54,1.37h-6.39a7.09,7.09,0,0,1,.38-1.79c1.46-4,6.59-6.47,16.23-6.47,10.9,0,15.79,2.42,17,7.55a24,24,0,0,1,.37,4.85c0,.83-.08,3.88-.08,5.76a18.27,18.27,0,0,0,.71,5.55ZM168.48,52.49c-6.13,0-9,.71-10.27,1.83a2,2,0,0,0-.54,1.38,1.47,1.47,0,0,0,.33,1.08c1,1.13,3.72,1.76,8.23,1.76,8.81,0,14.44-1,14.44-5.55C177.92,52.74,173,52.49,168.48,52.49Z" class="cls-1"/><path data-cppathid="10004" d="M225.17,48.85c-.79-3-4.72-4.59-12.19-4.59-5.93,0-10.23,1.25-12.32,3.67a5.07,5.07,0,0,0-1.12,3.26,5.19,5.19,0,0,0,1.17,3.3C202.58,56.83,207.22,58,213,58s9-.83,10.65-2.17A6,6,0,0,0,225.13,54h6.51A9.41,9.41,0,0,1,229.72,58c-2.71,3.09-7.93,5.09-16.74,5.09-9.14,0-15.28-2.25-18-5.89A10,10,0,0,1,193,51.07a9.44,9.44,0,0,1,2-6c3-3.8,9.22-6.18,18-6.18,9,0,14.49,2.25,17,6a10,10,0,0,1,1.51,3.92Z" class="cls-1"/><path data-cppathid="10005" d="M239.19,36.54v-6.6h6.72v6.6Zm.67,26.09c-.38-.08-.55-1.13-.55-3.47V39.67h6.52V59.12c0,2.59,0,3.18.58,3.51Z" class="cls-1"/><path data-cppathid="10006" d="M265.15,45.3v8.4c0,3,1.34,4.17,5,4.17a43.77,43.77,0,0,0,6.05-.5V62.3a35.14,35.14,0,0,1-8.05.83c-5.6,0-9.44-1.79-9.44-8.1V45.3h-7.05V40h7.05c.17-1.54.17-5.88.17-5.88l6.22-.17v6h11.35v5.3Z" class="cls-1"/><path data-cppathid="10007" d="M310.78,62.63A16.06,16.06,0,0,1,310.4,60c-1.5,1.54-6.55,3.13-15.19,3.13-9.31,0-14.49-2.09-14.49-6.76v-.63c0-5,5-7.51,18.12-7.56,3.21,0,8.76.34,11.65.63a4.21,4.21,0,0,0-.67-2.42c-1.05-1.34-4.05-2.46-10.48-2.46-5.89,0-8.81.71-10,1.88a2.44,2.44,0,0,0-.54,1.37h-6.39a7.09,7.09,0,0,1,.38-1.79c1.46-4,6.59-6.47,16.24-6.47,10.89,0,15.78,2.42,17,7.55a23.33,23.33,0,0,1,.37,4.85c0,.83-.08,3.88-.08,5.76a18.27,18.27,0,0,0,.71,5.55ZM298.3,52.49c-6.14,0-9,.71-10.28,1.83a2,2,0,0,0-.54,1.38,1.44,1.44,0,0,0,.34,1.08c1,1.13,3.71,1.76,8.22,1.76,8.81,0,14.45-1,14.45-5.55C307.73,52.74,302.76,52.49,298.3,52.49Z" class="cls-1"/><path data-cppathid="10008" d="M355,48.85c-.79-3-4.72-4.59-12.19-4.59-5.93,0-10.23,1.25-12.31,3.67a5.07,5.07,0,0,0-1.13,3.26,5.19,5.19,0,0,0,1.17,3.3C332.4,56.83,337,58,342.83,58s9-.83,10.65-2.17A6,6,0,0,0,354.94,54h6.51A9.3,9.3,0,0,1,359.53,58c-2.71,3.09-7.93,5.09-16.74,5.09-9.14,0-15.28-2.25-18-5.89a9.92,9.92,0,0,1-1.93-6.17,9.44,9.44,0,0,1,2-6c3-3.8,9.22-6.18,18-6.18,9,0,14.49,2.25,17,6a10,10,0,0,1,1.51,3.92Z" class="cls-1"/><path data-cppathid="10009" d="M369,36.54v-6.6h6.72v6.6Zm.67,26.09c-.38-.08-.54-1.13-.54-3.47V39.67h6.51V59.12c0,2.59,0,3.18.58,3.51Z" class="cls-1"/><path data-cppathid="10010" d="M421.81,56.53c-2.84,4.1-8.94,6.6-18.37,6.6-8.89,0-15.2-2.5-18.16-6.51a10.14,10.14,0,0,1-1.84-5.6,8.83,8.83,0,0,1,1.75-5.38c3-4.09,9.06-6.72,18.25-6.72,9.52,0,15.36,2.92,18.2,6.59a9.19,9.19,0,0,1,.17,11Zm-6.26-8.8c-2.09-2-6.27-3.47-12.11-3.47s-9.77,1.34-12.15,3.51a4.8,4.8,0,0,0,0,6.59c1.92,2.13,6.31,3.59,12.11,3.59,6.14,0,10.19-1.33,12.23-3.63A5,5,0,0,0,417,51.07,4.32,4.32,0,0,0,415.55,47.73ZM405.23,30.19H412l-6.39,7.22h-6Z" class="cls-1"/><path data-cppathid="10011" d="M458.5,62.63c-.3,0-.46-1.38-.46-11.19,0-4.55-3.09-6.89-9.9-6.89-5.8,0-11.1,2.72-11.1,6.93V62.63h-6.43v-23h6.22V45c2.09-4.47,8.18-6,14.07-6,9.93,0,13.61,4.88,13.61,11.35,0,11.65.12,11.86.33,12.32Z" class="cls-1"/></svg>