<?xml version="1.0" encoding="UTF-8"?>
<svg xmlns="http://www.w3.org/2000/svg" onmouseup="{ if(window.parent.document.onmouseup) window.parent.document.onmouseup(arguments[0]);}" viewBox="0 0 970.1 96.69" data-name="Capa 1" id="Capa_1"><defs><style>.cls-1{fill:#fff;}</style></defs><path data-cppathid="10000" d="M30,65h-7.3l21.71-32.6h7.68L73.33,65H65.77l-4.89-7.26H35ZM50,40.72,48.07,37.5l-2,3.22L38.47,51.86h19Z" class="cls-1"/><path data-cppathid="10001" d="M107.26,51.24c-.8-3-4.72-4.59-12.19-4.59-5.93,0-10.23,1.25-12.32,3.67a5,5,0,0,0-1.13,3.26,5.17,5.17,0,0,0,1.17,3.29c1.88,2.34,6.52,3.47,12.32,3.47s9-.84,10.64-2.17a5.79,5.79,0,0,0,1.47-1.84h6.51a9.41,9.41,0,0,1-1.92,4.09c-2.72,3.09-7.93,5.1-16.74,5.1-9.15,0-15.28-2.26-18-5.89a10,10,0,0,1-1.92-6.18,9.51,9.51,0,0,1,2-6c3-3.8,9.23-6.18,18-6.18,9,0,14.48,2.26,17,6a9.89,9.89,0,0,1,1.5,3.93Z" class="cls-1"/><path data-cppathid="10002" d="M129.67,47.69v8.39c0,3.05,1.33,4.18,5,4.18a43.83,43.83,0,0,0,6.05-.51v4.93a34.56,34.56,0,0,1-8.06.84c-5.59,0-9.43-1.8-9.43-8.1V47.69h-7.06v-5.3h7.06c.16-1.55.16-5.89.16-5.89l6.22-.17v6.06h11.36v5.3Z" class="cls-1"/><path data-cppathid="10003" d="M148.2,38.92V32.33h6.72v6.59ZM148.87,65c-.38-.08-.55-1.12-.55-3.46V42.05h6.52V61.51c0,2.59,0,3.17.58,3.5Z" class="cls-1"/><path data-cppathid="10004" d="M183.6,65H176l-16.41-23h7L179.8,60,193,42.05h6.81Z" class="cls-1"/><path data-cppathid="10005" d="M204.17,38.92V32.33h6.72v6.59ZM204.84,65c-.37-.08-.54-1.12-.54-3.46V42.05h6.51V61.51c0,2.59,0,3.17.59,3.5Z" class="cls-1"/><path data-cppathid="10006" d="M250.8,45.77V32.12h6.35V62.26A22.55,22.55,0,0,0,257.4,65h-6.26L251,60.76c-2,3.09-7.93,4.71-14,4.71-8.43,0-13.86-2.08-16.41-5.8a10.48,10.48,0,0,1-1.92-6.09,10.94,10.94,0,0,1,1.88-6.31c2.51-3.8,7.68-6,15.7-6C243,41.3,248.46,42.68,250.8,45.77ZM226.34,50a5.38,5.38,0,0,0-1.25,3.54A5.14,5.14,0,0,0,226.34,57c2,2.25,6.09,3.34,12.1,3.34s10-1.17,11.61-3.67a5.43,5.43,0,0,0,.88-3.18,5.17,5.17,0,0,0-1.3-3.59c-2-2.17-5.93-3.29-11.73-3.29S228.09,47.81,226.34,50Z" class="cls-1"/><path data-cppathid="10007" d="M294.17,65a16.06,16.06,0,0,1-.38-2.63c-1.5,1.55-6.55,3.14-15.19,3.14-9.31,0-14.49-2.09-14.49-6.77v-.62c0-5,5-7.52,18.12-7.56,3.21,0,8.77.33,11.65.63a4.26,4.26,0,0,0-.67-2.43c-1-1.33-4-2.46-10.48-2.46-5.89,0-8.81.71-10,1.88a2.5,2.5,0,0,0-.54,1.38h-6.39a7.16,7.16,0,0,1,.38-1.8c1.46-4,6.59-6.47,16.24-6.47,10.89,0,15.78,2.42,17,7.56a23.87,23.87,0,0,1,.38,4.84c-.05.84-.09,3.88-.09,5.76a18.49,18.49,0,0,0,.71,5.55ZM281.69,54.87c-6.14,0-9,.71-10.27,1.84a2,2,0,0,0-.55,1.37,1.49,1.49,0,0,0,.34,1.09c1,1.13,3.71,1.75,8.22,1.75,8.81,0,14.45-1,14.45-5.55C291.12,55.12,286.15,54.87,281.69,54.87Z" class="cls-1"/><path data-cppathid="10008" d="M338.41,45.77V32.12h6.35V62.26A22.55,22.55,0,0,0,345,65h-6.26l-.17-4.25c-2,3.09-7.93,4.71-14,4.71-8.43,0-13.86-2.08-16.4-5.8a10.48,10.48,0,0,1-1.92-6.09,10.94,10.94,0,0,1,1.88-6.31c2.5-3.8,7.68-6,15.69-6C330.57,41.3,336.08,42.68,338.41,45.77ZM314,50a5.43,5.43,0,0,0-1.25,3.54A5.19,5.19,0,0,0,314,57c2,2.25,6.1,3.34,12.11,3.34s10-1.17,11.6-3.67a5.43,5.43,0,0,0,.88-3.18,5.21,5.21,0,0,0-1.29-3.59c-2-2.17-5.93-3.29-11.74-3.29S315.7,47.81,314,50Z" class="cls-1"/><path data-cppathid="10009" d="M388.88,60.38c-2.55,2.63-7.89,5.18-17.45,5.18-8.77,0-15.16-1.92-18-6.27a10.74,10.74,0,0,1-1.75-6,9.78,9.78,0,0,1,1.8-5.63c3-4,9.51-6.35,17.91-6.35,10.31,0,17.24,3.59,18.87,10a22.28,22.28,0,0,1,.58,4.38H358.11A4.12,4.12,0,0,0,360,58c2,1.71,5.89,2.8,11.82,2.8a25.83,25.83,0,0,0,9.47-1.46,7,7,0,0,0,2-1.51h7.09A7.06,7.06,0,0,1,388.88,60.38ZM383,49.07c-1.54-1.63-5.59-2.93-11.73-2.93-5.84,0-10.48,1.26-12.11,3.14a3.76,3.76,0,0,0-1,2.17h26.18A3.37,3.37,0,0,0,383,49.07Z" class="cls-1"/><path data-cppathid="10010" d="M412.5,65.52c-12.31,0-16.78-1.84-18.16-6.43a5.45,5.45,0,0,1-.29-1.55h6.3a2,2,0,0,0,.46,1.25c1,1.13,4.05,1.76,11.73,1.76,9.73,0,11.11-1.09,11.11-2.51,0-1.58-1.25-1.92-9.69-2.34-1.63-.08-4.55-.29-6.51-.41-9.23-.55-12.82-2.67-12.82-6.85,0-4.59,5.35-7.18,16-7.18s15.58,1.59,17.33,5.89a6.68,6.68,0,0,1,.37,1.83h-6.3a2.56,2.56,0,0,0-.37-.87c-1-1.09-3.85-1.8-10.61-1.8-9.18,0-10.35.88-10.35,2.17s1,1.67,9,2.09c2,.13,5,.29,7,.38,9.72.37,13.06,2.5,13.06,7C429.74,62.89,425.07,65.52,412.5,65.52Z" class="cls-1"/><path data-cppathid="10011" d="M485,45.77V32.12h6.35V62.26a22.55,22.55,0,0,0,.25,2.75H485.3l-.17-4.25c-2,3.09-7.93,4.71-14,4.71-8.43,0-13.86-2.08-16.4-5.8a10.48,10.48,0,0,1-1.92-6.09,10.86,10.86,0,0,1,1.88-6.31c2.5-3.8,7.68-6,15.69-6C477.12,41.3,482.63,42.68,485,45.77ZM460.5,50a5.43,5.43,0,0,0-1.25,3.54A5.19,5.19,0,0,0,460.5,57c2,2.25,6.1,3.34,12.11,3.34s10-1.17,11.6-3.67a5.43,5.43,0,0,0,.88-3.18,5.21,5.21,0,0,0-1.29-3.59c-2-2.17-5.93-3.29-11.74-3.29S462.25,47.81,460.5,50Z" class="cls-1"/><path data-cppathid="10012" d="M535.43,60.38c-2.55,2.63-7.89,5.18-17.45,5.18-8.77,0-15.16-1.92-18-6.27a10.74,10.74,0,0,1-1.75-6,9.78,9.78,0,0,1,1.8-5.63c3-4,9.51-6.35,17.91-6.35,10.31,0,17.24,3.59,18.87,10a22.28,22.28,0,0,1,.58,4.38H504.66A4.12,4.12,0,0,0,506.54,58c2,1.71,5.89,2.8,11.82,2.8a25.83,25.83,0,0,0,9.47-1.46,7,7,0,0,0,2-1.51h7.09A7.06,7.06,0,0,1,535.43,60.38ZM529.5,49.07c-1.54-1.63-5.59-2.93-11.73-2.93-5.84,0-10.48,1.26-12.11,3.14a3.76,3.76,0,0,0-1,2.17h26.18A3.37,3.37,0,0,0,529.5,49.07Z" class="cls-1"/><path data-cppathid="10013" d="M580.59,65H573l-16.41-23h7L576.79,60,590,42.05h6.81Z" class="cls-1"/><path data-cppathid="10014" d="M634.19,60.38c-2.55,2.63-7.89,5.18-17.45,5.18-8.77,0-15.16-1.92-18-6.27a10.66,10.66,0,0,1-1.75-6,9.85,9.85,0,0,1,1.79-5.63c3-4,9.52-6.35,17.91-6.35,10.31,0,17.24,3.59,18.87,10a21.57,21.57,0,0,1,.59,4.38H603.42A4.12,4.12,0,0,0,605.3,58c2,1.71,5.88,2.8,11.81,2.8a25.9,25.9,0,0,0,9.48-1.46,6.83,6.83,0,0,0,2-1.51h7.1A7.06,7.06,0,0,1,634.19,60.38Zm-5.93-11.31c-1.55-1.63-5.6-2.93-11.73-2.93-5.85,0-10.48,1.26-12.11,3.14a3.64,3.64,0,0,0-1,2.17h26.17A3.4,3.4,0,0,0,628.26,49.07Z" class="cls-1"/><path data-cppathid="10015" d="M667.2,48.23a38.45,38.45,0,0,0-7.35-.67c-5.63,0-11,3-11,9.15V65H642.4v-23h6.26v5.89c1.13-3.21,5.56-5.8,11.07-6.14a33.91,33.91,0,0,1,7.47.21Z" class="cls-1"/><path data-cppathid="10016" d="M673.5,38.92V32.33h6.72v6.59ZM674.17,65c-.38-.08-.55-1.12-.55-3.46V42.05h6.52V61.51c0,2.59,0,3.17.58,3.5Z" class="cls-1"/><path data-cppathid="10017" d="M700,47.69V65h-6.56V47.69h-6.59v-5.3h6.59V40.13c0-5,2.71-8.64,9.94-8.64,2,0,7.43.25,8.26.38v5.21a36.29,36.29,0,0,0-5.51-.45c-4.84.08-6.26,1.62-6.26,3.84v1.92h22.46V61.51c0,2.59,0,3.17.59,3.5h-6.56c-.42-.08-.58-1.12-.58-3.46V47.69Z" class="cls-1"/><path data-cppathid="10018" d="M762.28,51.24c-.79-3-4.71-4.59-12.18-4.59-5.93,0-10.23,1.25-12.32,3.67a5,5,0,0,0-1.13,3.26,5.17,5.17,0,0,0,1.17,3.29c1.88,2.34,6.51,3.47,12.32,3.47s9-.84,10.64-2.17a5.76,5.76,0,0,0,1.46-1.84h6.52a9.41,9.41,0,0,1-1.92,4.09c-2.72,3.09-7.94,5.1-16.74,5.1-9.15,0-15.28-2.26-18-5.89a10,10,0,0,1-1.92-6.18,9.51,9.51,0,0,1,2-6c3-3.8,9.23-6.18,18-6.18,9,0,14.48,2.26,17,6a10,10,0,0,1,1.5,3.93Z" class="cls-1"/><path data-cppathid="10019" d="M803.4,65a16.06,16.06,0,0,1-.38-2.63c-1.5,1.55-6.55,3.14-15.19,3.14-9.31,0-14.49-2.09-14.49-6.77v-.62c0-5,5-7.52,18.12-7.56,3.21,0,8.77.33,11.65.63a4.26,4.26,0,0,0-.67-2.43c-1-1.33-4.05-2.46-10.48-2.46-5.89,0-8.81.71-10,1.88a2.5,2.5,0,0,0-.54,1.38h-6.39a7.16,7.16,0,0,1,.38-1.8c1.46-4,6.59-6.47,16.24-6.47,10.89,0,15.78,2.42,17,7.56A23.23,23.23,0,0,1,809,53.7c0,.84-.08,3.88-.08,5.76a18.49,18.49,0,0,0,.71,5.55ZM790.92,54.87c-6.14,0-9,.71-10.27,1.84a2,2,0,0,0-.55,1.37,1.49,1.49,0,0,0,.34,1.09c1,1.13,3.71,1.75,8.22,1.75,8.81,0,14.45-1,14.45-5.55C800.35,55.12,795.38,54.87,790.92,54.87Z" class="cls-1"/><path data-cppathid="10020" d="M847.6,51.24c-.79-3-4.72-4.59-12.19-4.59-5.93,0-10.23,1.25-12.31,3.67A5,5,0,0,0,822,53.58a5.17,5.17,0,0,0,1.17,3.29c1.88,2.34,6.51,3.47,12.31,3.47s9-.84,10.65-2.17a5.9,5.9,0,0,0,1.46-1.84h6.51a9.3,9.3,0,0,1-1.92,4.09c-2.71,3.09-7.93,5.1-16.74,5.1-9.14,0-15.28-2.26-18-5.89a10,10,0,0,1-1.92-6.18,9.51,9.51,0,0,1,2-6c3-3.8,9.22-6.18,18-6.18,9,0,14.49,2.26,17,6A10.06,10.06,0,0,1,854,51.24Z" class="cls-1"/><path data-cppathid="10021" d="M861.62,38.92V32.33h6.72v6.59ZM862.29,65c-.38-.08-.54-1.12-.54-3.46V42.05h6.51V61.51c0,2.59,0,3.17.58,3.5Z" class="cls-1"/><path data-cppathid="10022" d="M914.43,58.92c-2.84,4.09-8.94,6.6-18.37,6.6-8.89,0-15.2-2.51-18.16-6.52a10.14,10.14,0,0,1-1.84-5.59A8.87,8.87,0,0,1,877.82,48c3-4.09,9-6.72,18.24-6.72,9.52,0,15.36,2.92,18.2,6.6a9.19,9.19,0,0,1,.17,11Zm-6.26-8.81c-2.09-2-6.27-3.46-12.11-3.46s-9.77,1.33-12.15,3.5a4.81,4.81,0,0,0,0,6.6c1.92,2.13,6.31,3.59,12.11,3.59,6.14,0,10.19-1.34,12.23-3.63a5,5,0,0,0,1.34-3.26A4.32,4.32,0,0,0,908.17,50.11ZM897.86,32.58h6.76l-6.39,7.22h-6Z" class="cls-1"/><path data-cppathid="10023" d="M951.12,65c-.3,0-.46-1.37-.46-11.18,0-4.55-3.09-6.89-9.9-6.89-5.8,0-11.1,2.71-11.1,6.93V65h-6.43v-23h6.22v5.31c2.09-4.47,8.18-6,14.07-6,9.93,0,13.61,4.89,13.61,11.36,0,11.65.12,11.86.33,12.31Z" class="cls-1"/></svg>