<?xml version="1.0" encoding="UTF-8"?>
<svg xmlns="http://www.w3.org/2000/svg" onmouseup="{ if(window.parent.document.onmouseup) window.parent.document.onmouseup(arguments[0]);}" viewBox="0 0 1362.1 96.69" data-name="Capa 1" id="Capa_1"><defs><style>.cls-1{fill:#fff;}</style></defs><path data-cppathid="10000" d="M26.5,39.92h6.68c-.59,9.52-16.95,5.84-17.37,11.73v.71c.34,3,3.55,4.63,11.48,4.63,7,0,10-1.75,10.82-4.17a10,10,0,0,0,.29-1.59h7.05A16.61,16.61,0,0,1,44.62,55c-1.51,3.76-6.1,7.76-17.66,7.76-13.86,0-18.83-3.17-19-9.35V52.28C8.34,42.3,25.16,46.14,26.5,39.92Zm7-10.69v8.1H26.21v-8.1Z" class="cls-1"/><path data-cppathid="10001" d="M83.14,64.05a16.68,16.68,0,0,0,4.68,1.13l-3.3,5.22a23.4,23.4,0,0,1-7.3-2.47,26.32,26.32,0,0,1-6.43-5l-2.22-.12a25.18,25.18,0,0,1-14.69-5.3c-3.76-3.13-5.51-6.52-5.51-11.4A13.88,13.88,0,0,1,53,35.24c4.26-4.17,11-6,19.67-6S87.61,31.11,92.2,35c3.59,3,4.8,6.64,4.8,11.15a14.68,14.68,0,0,1-4.76,11.06,23.36,23.36,0,0,1-12.52,5.1A15.55,15.55,0,0,0,83.14,64.05Zm4.18-11a8.72,8.72,0,0,0,2.88-6.77,8.42,8.42,0,0,0-3.09-6.88c-3.17-2.68-7.47-4.09-14.45-4.09-6.63,0-11.77,1.5-14.48,4.09a8.84,8.84,0,0,0-3,6.88,8.36,8.36,0,0,0,3.76,7.44c3.38,2.5,7.68,3.59,13.78,3.59C79.43,57.29,84.06,56.12,87.32,53Z" class="cls-1"/><path data-cppathid="10002" d="M137.87,62.63H131.6l-.16-4.13c-3,3.88-8.77,4.71-14.2,4.71-8.39,0-13.48-2.5-13.48-9.81,0-13.23-.17-13.4-.42-13.73H110c.21,0,.25,5.63.25,11.56,0,5,2.46,6.56,9.6,6.56,6.85,0,11.4-2.84,11.4-6.68V39.67h6.51V58C137.74,61.25,137.87,62.5,137.87,62.63Z" class="cls-1"/><path data-cppathid="10003" d="M182.11,58c-2.55,2.63-7.89,5.17-17.45,5.17-8.77,0-15.16-1.92-18-6.26a10.76,10.76,0,0,1-1.75-6,9.84,9.84,0,0,1,1.8-5.64c3-4,9.51-6.34,17.91-6.34,10.31,0,17.24,3.59,18.87,10a22.38,22.38,0,0,1,.58,4.39H151.34a4.12,4.12,0,0,0,1.88,2.38c2,1.71,5.89,2.79,11.81,2.79A25.86,25.86,0,0,0,174.51,57a6.82,6.82,0,0,0,2-1.5h7.09A7.23,7.23,0,0,1,182.11,58Zm-5.93-11.32c-1.54-1.63-5.59-2.92-11.73-2.92-5.84,0-10.48,1.25-12.11,3.13a3.79,3.79,0,0,0-1,2.17h26.18A3.41,3.41,0,0,0,176.18,46.68Zm-9.64-16.49h6.76l-6.39,7.22h-6Z" class="cls-1"/><path data-cppathid="10004" d="M236.54,62.63a16.06,16.06,0,0,1-.38-2.63c-1.5,1.54-6.55,3.13-15.19,3.13-9.31,0-14.49-2.09-14.49-6.76v-.63c0-5,5-7.51,18.12-7.55,3.21,0,8.76.33,11.65.62a4.21,4.21,0,0,0-.67-2.42c-1.05-1.34-4.05-2.46-10.48-2.46-5.89,0-8.81.71-10,1.88a2.44,2.44,0,0,0-.54,1.37h-6.39a7.09,7.09,0,0,1,.38-1.79c1.46-4,6.59-6.47,16.24-6.47,10.89,0,15.78,2.42,17,7.55a23.33,23.33,0,0,1,.37,4.85c0,.83-.08,3.88-.08,5.76a18.27,18.27,0,0,0,.71,5.55ZM224.06,52.49c-6.14,0-9,.71-10.28,1.83a2,2,0,0,0-.54,1.38,1.44,1.44,0,0,0,.34,1.08c1,1.13,3.71,1.76,8.22,1.76,8.81,0,14.45-1,14.45-5.55C233.49,52.74,228.52,52.49,224.06,52.49Z" class="cls-1"/><path data-cppathid="10005" d="M287.13,57.49C284.21,61,278.78,63,271.85,63c-5.18,0-11.86-1.26-14.11-4V70.4h-6.43V39.71h6.22v3.88C259.28,41.17,265,39,271.89,39c7.77,0,12.82,2.09,15.41,5.51a10.7,10.7,0,0,1,2.17,6.52A10,10,0,0,1,287.13,57.49Zm-6-10.18c-2.05-2-5.8-3.05-10.94-3.05s-9.39,1.21-11.27,3.47a5.18,5.18,0,0,0-1.42,3.59,4.83,4.83,0,0,0,1.33,3.29c1.8,2,5.85,3.22,11.36,3.22,5.3,0,9.23-1.17,11.23-3.22A5.19,5.19,0,0,0,282.83,51,5,5,0,0,0,281.16,47.31Z" class="cls-1"/><path data-cppathid="10006" d="M321.19,45.85a38.53,38.53,0,0,0-7.35-.67c-5.64,0-11,3-11,9.14v8.31h-6.47v-23h6.26v5.88c1.13-3.21,5.55-5.8,11.06-6.13a34,34,0,0,1,7.48.21Z" class="cls-1"/><path data-cppathid="10007" d="M360.72,58c-2.55,2.63-7.89,5.17-17.45,5.17-8.77,0-15.16-1.92-18-6.26a10.68,10.68,0,0,1-1.75-6,9.91,9.91,0,0,1,1.79-5.64c3-4,9.52-6.34,17.91-6.34,10.31,0,17.24,3.59,18.87,10a22.4,22.4,0,0,1,.59,4.39H330a4.12,4.12,0,0,0,1.88,2.38c2,1.71,5.88,2.79,11.81,2.79A25.9,25.9,0,0,0,353.12,57a6.77,6.77,0,0,0,2-1.5h7.1A7.23,7.23,0,0,1,360.72,58Zm-5.93-11.32c-1.55-1.63-5.6-2.92-11.73-2.92-5.85,0-10.48,1.25-12.11,3.13a3.66,3.66,0,0,0-1,2.17h26.17A3.43,3.43,0,0,0,354.79,46.68Z" class="cls-1"/><path data-cppathid="10008" d="M396.82,62.63c-.29,0-.46-1.38-.46-11.19,0-4.55-3.09-6.89-9.89-6.89-5.81,0-11.11,2.72-11.11,6.93V62.63h-6.43v-23h6.22V45c2.09-4.47,8.19-6,14.07-6,9.94,0,13.61,4.88,13.61,11.35,0,11.65.13,11.86.34,12.32Z" class="cls-1"/><path data-cppathid="10009" d="M441.73,43.38V29.73h6.35V59.87a22.81,22.81,0,0,0,.25,2.76h-6.26l-.17-4.26c-2,3.09-7.93,4.72-14,4.72-8.43,0-13.86-2.09-16.4-5.8a10.44,10.44,0,0,1-1.93-6.1,10.91,10.91,0,0,1,1.88-6.3c2.51-3.8,7.69-6,15.7-6C433.88,38.92,439.39,40.3,441.73,43.38ZM417.27,47.6A5.39,5.39,0,0,0,416,51.15a5.14,5.14,0,0,0,1.25,3.51c2,2.25,6.09,3.34,12.1,3.34s10-1.17,11.61-3.68a5.39,5.39,0,0,0,.88-3.17,5.14,5.14,0,0,0-1.3-3.59c-2-2.17-5.92-3.3-11.73-3.3S419,45.43,417.27,47.6Z" class="cls-1"/><path data-cppathid="10010" d="M458,36.54v-6.6h6.72v6.6Zm.66,26.09c-.37-.08-.54-1.13-.54-3.47V39.67h6.51V59.12c0,2.59.05,3.18.59,3.51Z" class="cls-1"/><path data-cppathid="10011" d="M524,51.48c0-3.75-1.76-6.93-8.94-6.93-5,0-9.31,2.05-9.31,6.93V62.63h-6V50.94c0-3.92-3.51-6.39-8.68-6.39-5.85,0-9.52,3.3-9.52,6.81V62.63h-6.43v-23h6.22V45c1.63-3.92,6.89-5.89,11.94-5.89,5.3,0,10,1.76,11.52,6,1.76-3.92,6.06-6,12.19-6,9.4,0,12.61,4.6,12.61,11.23,0,11.74,0,12,.42,12.32h-5.59C524,62.63,524,60.17,524,51.48Z" class="cls-1"/><path data-cppathid="10012" d="M574.88,56.53c-2.83,4.1-8.93,6.6-18.36,6.6-8.9,0-15.2-2.5-18.16-6.51a10.14,10.14,0,0,1-1.84-5.6,8.83,8.83,0,0,1,1.75-5.38c3-4.09,9.06-6.72,18.25-6.72,9.51,0,15.36,2.92,18.2,6.59a9.17,9.17,0,0,1,.16,11Zm-6.26-8.8c-2.09-2-6.26-3.47-12.1-3.47s-9.77,1.34-12.15,3.51a4.77,4.77,0,0,0,0,6.59c1.92,2.13,6.3,3.59,12.11,3.59,6.13,0,10.18-1.33,12.23-3.63a5,5,0,0,0,1.33-3.25A4.28,4.28,0,0,0,568.62,47.73Z" class="cls-1"/><path data-cppathid="10013" d="M599.09,63.13c-12.32,0-16.78-1.84-18.16-6.43a5.45,5.45,0,0,1-.29-1.54h6.3a2.06,2.06,0,0,0,.46,1.25c1,1.13,4.05,1.75,11.73,1.75,9.73,0,11.11-1.08,11.11-2.5,0-1.59-1.26-1.92-9.69-2.34-1.63-.08-4.55-.29-6.51-.42-9.23-.54-12.82-2.67-12.82-6.84,0-4.6,5.35-7.18,16-7.18s15.57,1.58,17.33,5.88A6.67,6.67,0,0,1,615,46.6h-6.3a2.46,2.46,0,0,0-.38-.88c-1-1.08-3.84-1.79-10.6-1.79-9.18,0-10.35.87-10.35,2.17s1,1.67,9,2.09c2,.12,5,.29,7,.37,9.73.38,13.07,2.51,13.07,7.06C616.33,60.5,611.66,63.13,599.09,63.13Z" class="cls-1"/><path data-cppathid="10014" d="M656.65,70.4h-7.47l5.76-7.81L637.86,39.67h6.93l13.65,17.74L671.3,39.67h6.81Z" class="cls-1"/><path data-cppathid="10015" d="M731.78,48.85c-.79-3-4.71-4.59-12.19-4.59-5.93,0-10.23,1.25-12.31,3.67a5.07,5.07,0,0,0-1.13,3.26,5.19,5.19,0,0,0,1.17,3.3c1.88,2.34,6.51,3.46,12.31,3.46s9-.83,10.65-2.17A6,6,0,0,0,731.74,54h6.51A9.3,9.3,0,0,1,736.33,58c-2.71,3.09-7.93,5.09-16.74,5.09-9.14,0-15.28-2.25-18-5.89a10,10,0,0,1-1.92-6.17,9.49,9.49,0,0,1,2-6c3-3.8,9.23-6.18,18-6.18,9,0,14.49,2.25,17,6a10,10,0,0,1,1.5,3.92Z" class="cls-1"/><path data-cppathid="10016" d="M779.08,62.63h-6.27l-.16-4.13c-3,3.88-8.77,4.71-14.2,4.71-8.39,0-13.48-2.5-13.48-9.81,0-13.23-.17-13.4-.42-13.73h6.64c.21,0,.25,5.63.25,11.56,0,5,2.46,6.56,9.6,6.56,6.85,0,11.4-2.84,11.4-6.68V39.67H779V58C779,61.25,779.08,62.5,779.08,62.63Z" class="cls-1"/><path data-cppathid="10017" d="M816.22,62.63a16.34,16.34,0,0,1-.37-2.63c-1.51,1.54-6.56,3.13-15.2,3.13-9.31,0-14.49-2.09-14.49-6.76v-.63c0-5,5-7.51,18.12-7.55,3.22,0,8.77.33,11.65.62a4.13,4.13,0,0,0-.67-2.42c-1-1.34-4-2.46-10.48-2.46-5.88,0-8.8.71-10,1.88a2.46,2.46,0,0,0-.55,1.37h-6.38a7.05,7.05,0,0,1,.37-1.79c1.46-4,6.6-6.47,16.24-6.47,10.9,0,15.78,2.42,17,7.55a24,24,0,0,1,.38,4.85c0,.83-.08,3.88-.08,5.76a18.67,18.67,0,0,0,.7,5.55ZM803.74,52.49c-6.14,0-9,.71-10.27,1.83a2,2,0,0,0-.54,1.38,1.47,1.47,0,0,0,.33,1.08c1,1.13,3.72,1.76,8.23,1.76,8.81,0,14.44-1,14.44-5.55C813.18,52.74,808.21,52.49,803.74,52.49Zm3.13-22.3h6.77l-6.39,7.22h-6Z" class="cls-1"/><path data-cppathid="10018" d="M831.87,62.63c-.25-.08-.42-.92-.42-2.34V32.86a15.49,15.49,0,0,0-.21-3.25h6.43a19.25,19.25,0,0,1,.17,3.13V60c0,1.21.08,2.5.5,2.67Z" class="cls-1"/><path data-cppathid="10019" d="M901.37,58c-2.54,2.63-7.89,5.17-17.45,5.17-8.77,0-15.15-1.92-18-6.26a10.7,10.7,0,0,1-1.76-6,9.84,9.84,0,0,1,1.8-5.64c3-4,9.52-6.34,17.91-6.34,10.31,0,17.24,3.59,18.87,10a22.38,22.38,0,0,1,.58,4.39H870.61a4.06,4.06,0,0,0,1.87,2.38c2,1.71,5.89,2.79,11.82,2.79A25.83,25.83,0,0,0,893.77,57a6.82,6.82,0,0,0,2-1.5h7.1A7.27,7.27,0,0,1,901.37,58Zm-5.93-11.32c-1.54-1.63-5.59-2.92-11.73-2.92-5.84,0-10.48,1.25-12.1,3.13a3.66,3.66,0,0,0-1,2.17h26.17A3.41,3.41,0,0,0,895.44,46.68Z" class="cls-1"/><path data-cppathid="10020" d="M925,63.13c-12.31,0-16.78-1.84-18.16-6.43a5.83,5.83,0,0,1-.29-1.54h6.31a2,2,0,0,0,.46,1.25c1,1.13,4,1.75,11.73,1.75,9.72,0,11.1-1.08,11.1-2.5,0-1.59-1.25-1.92-9.68-2.34-1.63-.08-4.56-.29-6.52-.42-9.22-.54-12.81-2.67-12.81-6.84,0-4.6,5.34-7.18,16-7.18s15.57,1.58,17.32,5.88a6.77,6.77,0,0,1,.38,1.84h-6.31a2.41,2.41,0,0,0-.37-.88c-1-1.08-3.84-1.79-10.61-1.79-9.18,0-10.35.87-10.35,2.17s1,1.67,9,2.09c2,.12,5,.29,7,.37,9.73.38,13.07,2.51,13.07,7.06C942.24,60.5,937.56,63.13,925,63.13Z" class="cls-1"/><path data-cppathid="10021" d="M1016.83,51.48c0-3.75-1.76-6.93-8.94-6.93-5,0-9.31,2.05-9.31,6.93V62.63h-6V50.94c0-3.92-3.5-6.39-8.68-6.39-5.84,0-9.52,3.3-9.52,6.81V62.63H968v-23h6.22V45c1.63-3.92,6.89-5.89,11.94-5.89,5.3,0,10,1.76,11.53,6,1.75-3.92,6.05-6,12.19-6,9.39,0,12.6,4.6,12.6,11.23,0,11.74,0,12,.42,12.32h-5.59C1016.83,62.63,1016.83,60.17,1016.83,51.48Z" class="cls-1"/><path data-cppathid="10022" d="M1032.47,36.54v-6.6h6.72v6.6Zm.67,26.09c-.38-.08-.54-1.13-.54-3.47V39.67h6.51V59.12c0,2.59,0,3.18.58,3.51Z" class="cls-1"/><path data-cppathid="10023" d="M1077.13,45.3v8.4c0,3,1.34,4.17,5,4.17a43.92,43.92,0,0,0,6.06-.5V62.3a35.24,35.24,0,0,1-8.06.83c-5.6,0-9.44-1.79-9.44-8.1V45.3h-7.05V40h7.05c.17-1.54.17-5.88.17-5.88l6.22-.17v6h11.36v5.3Z" class="cls-1"/><path data-cppathid="10024" d="M1120.05,45.85a38.53,38.53,0,0,0-7.35-.67c-5.64,0-11,3-11,9.14v8.31h-6.47v-23h6.26v5.88c1.13-3.21,5.55-5.8,11.06-6.13a34,34,0,0,1,7.48.21Z" class="cls-1"/><path data-cppathid="10025" d="M1151.89,62.63a16.34,16.34,0,0,1-.37-2.63c-1.5,1.54-6.56,3.13-15.2,3.13-9.31,0-14.48-2.09-14.48-6.76v-.63c0-5,5-7.51,18.11-7.55,3.22,0,8.77.33,11.65.62a4.13,4.13,0,0,0-.67-2.42c-1-1.34-4-2.46-10.47-2.46-5.89,0-8.81.71-10,1.88a2.46,2.46,0,0,0-.55,1.37h-6.38a7.52,7.52,0,0,1,.37-1.79c1.46-4,6.6-6.47,16.24-6.47,10.9,0,15.78,2.42,17,7.55a24,24,0,0,1,.38,4.85c0,.83-.08,3.88-.08,5.76a18.27,18.27,0,0,0,.71,5.55Zm-12.48-10.14c-6.14,0-9,.71-10.27,1.83a2,2,0,0,0-.54,1.38,1.47,1.47,0,0,0,.33,1.08c1,1.13,3.72,1.76,8.23,1.76,8.81,0,14.44-1,14.44-5.55C1148.85,52.74,1143.88,52.49,1139.41,52.49Z" class="cls-1"/><path data-cppathid="10026" d="M1203.44,45.72a11,11,0,0,1,1.26,5.35,10.41,10.41,0,0,1-1.38,5.38c-2.51,4.18-8.14,6.56-15.74,6.56-5.89,0-12-1.42-14.49-4.26v3.88h-6.43V29.48h6.43v14c1.92-2.38,6-4.47,14.41-4.47C1196.26,39,1201.32,41.67,1203.44,45.72Zm-29.93,2.72a6.3,6.3,0,0,0-.62,2.75,5,5,0,0,0,.87,2.92c1.55,2.22,5.39,3.72,11.69,3.72,6.1,0,9.85-1.3,11.57-3.42a5.19,5.19,0,0,0,1.12-3.39,5.1,5.1,0,0,0-1.17-3.38c-1.92-2.34-6.22-3.42-11.69-3.42C1178.48,44.22,1174.93,46,1173.51,48.44Z" class="cls-1"/><path data-cppathid="10027" d="M1239.59,62.63a16.06,16.06,0,0,1-.38-2.63c-1.5,1.54-6.55,3.13-15.19,3.13-9.31,0-14.49-2.09-14.49-6.76v-.63c0-5,5-7.51,18.12-7.55,3.21,0,8.77.33,11.65.62a4.21,4.21,0,0,0-.67-2.42c-1.05-1.34-4.05-2.46-10.48-2.46-5.89,0-8.81.71-10,1.88a2.44,2.44,0,0,0-.54,1.37h-6.39a7.09,7.09,0,0,1,.38-1.79c1.46-4,6.59-6.47,16.24-6.47,10.89,0,15.78,2.42,17,7.55a23.33,23.33,0,0,1,.37,4.85c0,.83-.08,3.88-.08,5.76a18.6,18.6,0,0,0,.71,5.55Zm-12.48-10.14c-6.14,0-9,.71-10.27,1.83a2,2,0,0,0-.55,1.38,1.44,1.44,0,0,0,.34,1.08c1,1.13,3.71,1.76,8.22,1.76,8.81,0,14.45-1,14.45-5.55C1236.54,52.74,1231.57,52.49,1227.11,52.49Z" class="cls-1"/><path data-cppathid="10028" d="M1252.4,70.81a29.86,29.86,0,0,1-4.93-.33V64.93c.59,0,2.09.2,4.09.2,2.26,0,4.84-.91,4.84-4.63V39.67h6.48V60.25C1262.88,66.93,1258.53,70.81,1252.4,70.81Zm3.84-34.27V30H1263v6.56Z" class="cls-1"/><path data-cppathid="10029" d="M1308.38,56.53c-2.84,4.1-8.94,6.6-18.37,6.6-8.89,0-15.2-2.5-18.16-6.51A10.14,10.14,0,0,1,1270,51a8.83,8.83,0,0,1,1.75-5.38c3-4.09,9.06-6.72,18.25-6.72,9.52,0,15.36,2.92,18.2,6.59a9.19,9.19,0,0,1,.17,11Zm-6.27-8.8c-2.08-2-6.26-3.47-12.1-3.47s-9.77,1.34-12.15,3.51a4.8,4.8,0,0,0,0,6.59c1.92,2.13,6.3,3.59,12.11,3.59,6.14,0,10.18-1.33,12.23-3.63a5,5,0,0,0,1.34-3.25A4.29,4.29,0,0,0,1302.11,47.73Z" class="cls-1"/><path data-cppathid="10030" d="M1332.17,51.94h-6.77c.67-9.93,17-6.3,17.41-11.69a2,2,0,0,0,0-.71c-.29-3-3.46-4.46-11.4-4.46-7.05,0-10.06,1.75-10.85,4.13a7,7,0,0,0-.25,1.63h-7.1a17.27,17.27,0,0,1,.84-3.72c1.5-3.76,6.13-7.76,17.7-7.76,13.86,0,18.78,3.17,19,9.31v1.12C1350.33,49.77,1332.83,45.93,1332.17,51.94Zm-7.06,10.69v-8.1h7.39v8.1Z" class="cls-1"/></svg>