<?xml version="1.0" encoding="UTF-8"?>
<svg xmlns="http://www.w3.org/2000/svg" onmouseup="{ if(window.parent.document.onmouseup) window.parent.document.onmouseup(arguments[0]);}" viewBox="0 0 484.87 96.69" data-name="Capa 1" id="Capa_1"><defs><style>.cls-1{fill:#fff;}</style></defs><path data-cppathid="10000" d="M13.23,65V32.41H20V58.92H47.5V65Z" class="cls-1"/><path data-cppathid="10001" d="M86,65H79.77l-.17-4.13c-3,3.88-8.77,4.72-14.2,4.72-8.39,0-13.48-2.51-13.48-9.81,0-13.24-.17-13.4-.42-13.74h6.64c.21,0,.25,5.64.25,11.57,0,5,2.46,6.55,9.6,6.55,6.85,0,11.4-2.84,11.4-6.68V42.05H85.9V60.38C85.9,63.64,86,64.89,86,65Z" class="cls-1"/><path data-cppathid="10002" d="M144.51,53.87c0-3.76-1.75-6.93-8.93-6.93-5,0-9.31,2-9.31,6.93V65h-6V53.33c0-3.93-3.5-6.39-8.68-6.39-5.84,0-9.52,3.3-9.52,6.8V65H95.66v-23h6.22v5.31c1.63-3.93,6.89-5.89,11.94-5.89,5.31,0,10,1.75,11.53,6,1.75-3.93,6.05-6,12.19-6,9.39,0,12.61,4.59,12.61,11.23,0,11.73,0,12,.41,12.31H145C144.51,65,144.51,62.55,144.51,53.87Z" class="cls-1"/><path data-cppathid="10003" d="M160.15,38.92V32.33h6.72v6.59ZM160.82,65c-.38-.08-.54-1.12-.54-3.46V42.05h6.51V61.51c0,2.59,0,3.17.58,3.5Z" class="cls-1"/><path data-cppathid="10004" d="M205.2,65c-.3,0-.46-1.37-.46-11.18,0-4.55-3.09-6.89-9.9-6.89-5.8,0-11.1,2.71-11.1,6.93V65h-6.43v-23h6.22v5.31c2.09-4.47,8.18-6,14.07-6,9.93,0,13.61,4.89,13.61,11.36,0,11.65.12,11.86.33,12.31Z" class="cls-1"/><path data-cppathid="10005" d="M256.29,58.92c-2.84,4.09-8.94,6.6-18.37,6.6-8.9,0-15.2-2.51-18.16-6.52a10.14,10.14,0,0,1-1.84-5.59A8.86,8.86,0,0,1,219.67,48c3-4.09,9.06-6.72,18.25-6.72,9.52,0,15.36,2.92,18.2,6.6a9.19,9.19,0,0,1,.17,11ZM250,50.11c-2.08-2-6.26-3.46-12.1-3.46s-9.77,1.33-12.15,3.5a4.79,4.79,0,0,0,0,6.6c1.92,2.13,6.3,3.59,12.11,3.59,6.13,0,10.18-1.34,12.23-3.63a5,5,0,0,0,1.34-3.26A4.29,4.29,0,0,0,250,50.11ZM239.71,32.58h6.77l-6.39,7.22h-6Z" class="cls-1"/><path data-cppathid="10006" d="M313.93,53.87c0-3.76-1.75-6.93-8.93-6.93-5,0-9.31,2-9.31,6.93V65h-6V53.33c0-3.93-3.51-6.39-8.69-6.39-5.84,0-9.51,3.3-9.51,6.8V65h-6.43v-23h6.22v5.31c1.63-3.93,6.89-5.89,11.94-5.89,5.3,0,10,1.75,11.52,6,1.75-3.93,6.05-6,12.19-6,9.39,0,12.61,4.59,12.61,11.23,0,11.73,0,12,.42,12.31h-5.6C313.93,65,313.93,62.55,313.93,53.87Z" class="cls-1"/><path data-cppathid="10007" d="M363.77,60.38c-2.55,2.63-7.89,5.18-17.45,5.18-8.77,0-15.16-1.92-18-6.27a10.74,10.74,0,0,1-1.75-6,9.85,9.85,0,0,1,1.79-5.63c3-4,9.52-6.35,17.91-6.35,10.31,0,17.24,3.59,18.87,10a21.57,21.57,0,0,1,.59,4.38H333A4.12,4.12,0,0,0,334.88,58c2,1.71,5.88,2.8,11.81,2.8a25.9,25.9,0,0,0,9.48-1.46,6.83,6.83,0,0,0,2-1.51h7.1A7.06,7.06,0,0,1,363.77,60.38Zm-5.93-11.31c-1.55-1.63-5.6-2.93-11.73-2.93-5.85,0-10.48,1.26-12.11,3.14a3.64,3.64,0,0,0-1,2.17h26.17A3.4,3.4,0,0,0,357.84,49.07Z" class="cls-1"/><path data-cppathid="10008" d="M380.79,47.69v8.39c0,3.05,1.34,4.18,5,4.18a43.69,43.69,0,0,0,6.05-.51v4.93a34.46,34.46,0,0,1-8.05.84c-5.6,0-9.44-1.8-9.44-8.1V47.69h-7.05v-5.3h7.05c.17-1.55.17-5.89.17-5.89l6.22-.17v6.06h11.35v5.3Z" class="cls-1"/><path data-cppathid="10009" d="M423.7,48.23a38.34,38.34,0,0,0-7.34-.67c-5.64,0-11,3-11,9.15V65h-6.47v-23h6.26v5.89c1.12-3.22,5.55-5.8,11.06-6.14a33.91,33.91,0,0,1,7.47.21Z" class="cls-1"/><path data-cppathid="10010" d="M464.28,58.92c-2.84,4.09-8.94,6.6-18.37,6.6-8.89,0-15.2-2.51-18.16-6.52a10.14,10.14,0,0,1-1.84-5.59A8.86,8.86,0,0,1,427.66,48c3-4.09,9.06-6.72,18.25-6.72,9.52,0,15.36,2.92,18.2,6.6a9.19,9.19,0,0,1,.17,11ZM458,50.11c-2.09-2-6.27-3.46-12.11-3.46s-9.77,1.33-12.15,3.5a4.81,4.81,0,0,0,0,6.6c1.92,2.13,6.31,3.59,12.11,3.59,6.14,0,10.18-1.34,12.23-3.63a5,5,0,0,0,1.34-3.26A4.32,4.32,0,0,0,458,50.11Z" class="cls-1"/></svg>