<?xml version="1.0" encoding="UTF-8"?>
<svg xmlns="http://www.w3.org/2000/svg" onmouseup="{ if(window.parent.document.onmouseup) window.parent.document.onmouseup(arguments[0]);}" viewBox="0 0 1155.1 105.61" data-name="Capa 1" id="Capa_1"><defs><style>.cls-1{fill:#fff;}</style></defs><path data-cppathid="10000" d="M44.75,33.49C42.46,36.66,38.41,38,32.31,38H12.61v8.89H5.84V14.33H32.35c6.06,0,10.15,1.42,12.07,3.92a12.7,12.7,0,0,1,2.3,8A12.05,12.05,0,0,1,44.75,33.49ZM39.16,22.76c-1-1.63-3.63-2.59-8-2.59H12.57V31.9H31.06c4.63,0,7-.87,8.1-2.54a6.11,6.11,0,0,0,.67-3.3A6.79,6.79,0,0,0,39.16,22.76Z" class="cls-1"/><path data-cppathid="10001" d="M79.06,30.15a38.45,38.45,0,0,0-7.35-.67c-5.63,0-11,3.05-11,9.15v8.3H54.26V24h6.26v5.89c1.13-3.22,5.56-5.81,11.07-6.14a33.91,33.91,0,0,1,7.47.21Z" class="cls-1"/><path data-cppathid="10002" d="M119.63,40.84c-2.83,4.09-8.93,6.59-18.36,6.59-8.9,0-15.2-2.5-18.16-6.51a10.14,10.14,0,0,1-1.84-5.59A8.86,8.86,0,0,1,83,29.94c3-4.09,9.06-6.72,18.25-6.72,9.51,0,15.36,2.92,18.2,6.6a9.17,9.17,0,0,1,.16,11ZM113.37,32c-2.09-2.05-6.26-3.47-12.1-3.47S91.5,29.9,89.12,32.07a4.79,4.79,0,0,0,0,6.6c1.92,2.13,6.3,3.59,12.11,3.59,6.13,0,10.18-1.34,12.23-3.63a5.05,5.05,0,0,0,1.33-3.26A4.28,4.28,0,0,0,113.37,32Z" class="cls-1"/><path data-cppathid="10003" d="M157.87,33.16c-.8-3-4.72-4.6-12.19-4.6-5.93,0-10.23,1.26-12.32,3.68a5,5,0,0,0-1.13,3.25,5.17,5.17,0,0,0,1.17,3.3c1.88,2.34,6.52,3.47,12.32,3.47s9-.84,10.64-2.17a6.05,6.05,0,0,0,1.47-1.84h6.51a9.41,9.41,0,0,1-1.92,4.09c-2.72,3.09-7.93,5.09-16.74,5.09-9.15,0-15.28-2.25-18-5.88a10,10,0,0,1-1.92-6.18,9.51,9.51,0,0,1,2-6c3-3.8,9.23-6.18,18-6.18,9,0,14.48,2.25,17,6a9.89,9.89,0,0,1,1.5,3.93Z" class="cls-1"/><path data-cppathid="10004" d="M206.08,42.3c-2.55,2.63-7.89,5.18-17.45,5.18-8.77,0-15.16-1.93-18-6.27a10.74,10.74,0,0,1-1.75-6.05,9.91,9.91,0,0,1,1.79-5.64c3-4.05,9.52-6.34,17.91-6.34,10.32,0,17.25,3.59,18.87,10a21.47,21.47,0,0,1,.59,4.38H175.31a4.12,4.12,0,0,0,1.88,2.38c2,1.71,5.88,2.8,11.81,2.8a25.86,25.86,0,0,0,9.48-1.46,6.83,6.83,0,0,0,2-1.51h7.1A7.14,7.14,0,0,1,206.08,42.3ZM200.15,31c-1.54-1.63-5.59-2.93-11.73-2.93-5.85,0-10.48,1.26-12.11,3.13a3.75,3.75,0,0,0-1,2.17h26.18A3.45,3.45,0,0,0,200.15,31Z" class="cls-1"/><path data-cppathid="10005" d="M243.77,27.69V14h6.34V44.18a22.79,22.79,0,0,0,.25,2.75H244.1l-.16-4.26c-2,3.09-7.94,4.72-14,4.72-8.43,0-13.86-2.09-16.41-5.8a10.48,10.48,0,0,1-1.92-6.1,10.91,10.91,0,0,1,1.88-6.3c2.5-3.8,7.68-6,15.7-6C235.92,23.22,241.43,24.6,243.77,27.69ZM219.3,31.9a5.46,5.46,0,0,0-1.25,3.55A5.19,5.19,0,0,0,219.3,39c2,2.25,6.1,3.34,12.11,3.34s10-1.17,11.61-3.67a5.49,5.49,0,0,0,.87-3.18,5.15,5.15,0,0,0-1.29-3.59c-2-2.17-5.93-3.3-11.73-3.3S221.06,29.73,219.3,31.9Z" class="cls-1"/><path data-cppathid="10006" d="M260,20.84v-6.6h6.72v6.6Zm.67,26.09c-.38-.08-.54-1.12-.54-3.46V24h6.51V43.43c0,2.58,0,3.17.58,3.5Z" class="cls-1"/><path data-cppathid="10007" d="M326,35.79c0-3.76-1.75-6.93-8.93-6.93-5,0-9.31,2-9.31,6.93V46.93h-6V35.24c0-3.92-3.51-6.38-8.69-6.38-5.84,0-9.51,3.29-9.51,6.8V46.93H277.2V24h6.22v5.3c1.63-3.92,6.89-5.88,11.94-5.88,5.3,0,10,1.75,11.52,6,1.75-3.93,6.05-6,12.19-6,9.39,0,12.61,4.59,12.61,11.23,0,11.73,0,12,.42,12.31h-5.6C326,46.93,326,44.47,326,35.79Z" class="cls-1"/><path data-cppathid="10008" d="M341.69,20.84v-6.6h6.72v6.6Zm.66,26.09c-.37-.08-.54-1.12-.54-3.46V24h6.51V43.43c0,2.58,0,3.17.59,3.5Z" class="cls-1"/><path data-cppathid="10009" d="M393.45,42.3c-2.55,2.63-7.89,5.18-17.45,5.18-8.77,0-15.16-1.93-18-6.27a10.74,10.74,0,0,1-1.75-6.05,9.84,9.84,0,0,1,1.8-5.64c3-4.05,9.51-6.34,17.91-6.34,10.31,0,17.24,3.59,18.87,10a22.18,22.18,0,0,1,.58,4.38H362.68a4.12,4.12,0,0,0,1.88,2.38c2,1.71,5.89,2.8,11.81,2.8a25.86,25.86,0,0,0,9.48-1.46,7,7,0,0,0,2-1.51H395A7.14,7.14,0,0,1,393.45,42.3ZM387.52,31c-1.54-1.63-5.59-2.93-11.73-2.93-5.85,0-10.48,1.26-12.11,3.13a3.81,3.81,0,0,0-1,2.17h26.18A3.37,3.37,0,0,0,387.52,31Z" class="cls-1"/><path data-cppathid="10010" d="M429.55,46.93c-.29,0-.46-1.38-.46-11.19,0-4.55-3.09-6.88-9.89-6.88-5.8,0-11.11,2.71-11.11,6.93V46.93h-6.42V24h6.22v5.3c2.08-4.46,8.18-6,14.06-6,9.94,0,13.62,4.89,13.62,11.36,0,11.64.12,11.85.33,12.31Z" class="cls-1"/><path data-cppathid="10011" d="M453.8,29.61V38c0,3,1.34,4.17,5,4.17a43.9,43.9,0,0,0,6.05-.5V46.6a34.67,34.67,0,0,1-8.06.83c-5.59,0-9.43-1.79-9.43-8.1V29.61h-7.06v-5.3h7.06c.17-1.55.17-5.89.17-5.89l6.22-.17v6.06h11.35v5.3Z" class="cls-1"/><path data-cppathid="10012" d="M507.57,40.84c-2.84,4.09-8.94,6.59-18.37,6.59-8.89,0-15.2-2.5-18.16-6.51a10.14,10.14,0,0,1-1.84-5.59A8.86,8.86,0,0,1,471,29.94c3-4.09,9.06-6.72,18.25-6.72,9.52,0,15.36,2.92,18.2,6.6a9.19,9.19,0,0,1,.17,11ZM501.3,32c-2.08-2.05-6.26-3.47-12.1-3.47s-9.77,1.34-12.15,3.51a4.79,4.79,0,0,0,0,6.6c1.92,2.13,6.3,3.59,12.11,3.59,6.13,0,10.18-1.34,12.23-3.63a5,5,0,0,0,1.34-3.26A4.29,4.29,0,0,0,501.3,32Z" class="cls-1"/><path data-cppathid="10013" d="M531.77,47.43c-12.31,0-16.78-1.83-18.16-6.43a5.33,5.33,0,0,1-.29-1.54h6.3a2,2,0,0,0,.46,1.25c1,1.13,4,1.76,11.73,1.76,9.73,0,11.11-1.09,11.11-2.51,0-1.59-1.25-1.92-9.69-2.34-1.62-.08-4.55-.29-6.51-.41-9.23-.55-12.82-2.68-12.82-6.85,0-4.59,5.35-7.18,16-7.18s15.57,1.58,17.32,5.88a6.84,6.84,0,0,1,.38,1.84h-6.31A2.68,2.68,0,0,0,541,30c-1-1.08-3.85-1.79-10.61-1.79-9.18,0-10.35.88-10.35,2.17s1,1.67,9,2.09c2,.12,5,.29,7,.37,9.72.38,13.06,2.51,13.06,7.06C549,44.8,544.34,47.43,531.77,47.43Z" class="cls-1"/><path data-cppathid="10014" d="M604.23,27.69V14h6.35V44.18a22.79,22.79,0,0,0,.25,2.75h-6.26l-.17-4.26c-2,3.09-7.93,4.72-14,4.72-8.43,0-13.86-2.09-16.4-5.8a10.48,10.48,0,0,1-1.92-6.1,10.83,10.83,0,0,1,1.88-6.3c2.5-3.8,7.68-6,15.69-6C596.39,23.22,601.9,24.6,604.23,27.69ZM579.77,31.9a5.46,5.46,0,0,0-1.25,3.55A5.19,5.19,0,0,0,579.77,39c2,2.25,6.09,3.34,12.11,3.34s10-1.17,11.6-3.67a5.43,5.43,0,0,0,.88-3.18,5.19,5.19,0,0,0-1.29-3.59c-2-2.17-5.93-3.3-11.74-3.3S581.52,29.73,579.77,31.9Z" class="cls-1"/><path data-cppathid="10015" d="M654.7,42.3c-2.55,2.63-7.89,5.18-17.45,5.18-8.77,0-15.16-1.93-18-6.27a10.74,10.74,0,0,1-1.75-6.05,9.84,9.84,0,0,1,1.8-5.64c3-4.05,9.51-6.34,17.91-6.34,10.31,0,17.24,3.59,18.86,10a21.47,21.47,0,0,1,.59,4.38H623.93a4.12,4.12,0,0,0,1.88,2.38c2,1.71,5.89,2.8,11.81,2.8a25.86,25.86,0,0,0,9.48-1.46,7,7,0,0,0,2-1.51h7.09A7.14,7.14,0,0,1,654.7,42.3ZM648.77,31c-1.54-1.63-5.59-2.93-11.73-2.93-5.85,0-10.48,1.26-12.11,3.13a3.81,3.81,0,0,0-1,2.17h26.18A3.37,3.37,0,0,0,648.77,31Z" class="cls-1"/><path data-cppathid="10016" d="M717.27,40.84c-2.84,4.09-8.94,6.59-18.37,6.59-8.89,0-15.2-2.5-18.16-6.51a10.14,10.14,0,0,1-1.84-5.59,8.86,8.86,0,0,1,1.75-5.39c3-4.09,9.06-6.72,18.25-6.72,9.52,0,15.36,2.92,18.2,6.6a9.19,9.19,0,0,1,.17,11ZM711,32c-2.09-2.05-6.27-3.47-12.11-3.47s-9.77,1.34-12.15,3.51a4.81,4.81,0,0,0,0,6.6c1.92,2.13,6.31,3.59,12.11,3.59,6.13,0,10.18-1.34,12.23-3.63a5,5,0,0,0,1.34-3.26A4.32,4.32,0,0,0,711,32Z" class="cls-1"/><path data-cppathid="10017" d="M761.89,41.8c-2.92,3.5-8.35,5.51-15.28,5.51-5.18,0-11.86-1.25-14.11-4.05V54.7h-6.43V24h6.22V27.9c1.75-2.43,7.51-4.55,14.36-4.55,7.76,0,12.82,2.08,15.4,5.51a10.61,10.61,0,0,1,2.18,6.51A10.07,10.07,0,0,1,761.89,41.8Zm-6-10.19c-2-2-5.81-3.05-10.94-3.05s-9.39,1.21-11.27,3.47a5.18,5.18,0,0,0-1.42,3.59,4.85,4.85,0,0,0,1.33,3.3c1.8,2,5.85,3.21,11.36,3.21,5.3,0,9.23-1.17,11.23-3.21a5.23,5.23,0,0,0,1.38-3.63A5,5,0,0,0,755.92,31.61Z" class="cls-1"/><path data-cppathid="10018" d="M805.76,42.3c-2.55,2.63-7.89,5.18-17.45,5.18-8.77,0-15.16-1.93-18-6.27a10.66,10.66,0,0,1-1.75-6.05,9.91,9.91,0,0,1,1.79-5.64c3-4.05,9.52-6.34,17.91-6.34,10.31,0,17.24,3.59,18.87,10a22.19,22.19,0,0,1,.59,4.38H775a4.12,4.12,0,0,0,1.88,2.38c2,1.71,5.88,2.8,11.81,2.8a25.9,25.9,0,0,0,9.48-1.46,7,7,0,0,0,2-1.51h7.1A7.14,7.14,0,0,1,805.76,42.3ZM799.83,31c-1.55-1.63-5.6-2.93-11.73-2.93-5.85,0-10.48,1.26-12.11,3.13a3.69,3.69,0,0,0-1,2.17h26.17A3.4,3.4,0,0,0,799.83,31Z" class="cls-1"/><path data-cppathid="10019" d="M838.77,30.15a38.45,38.45,0,0,0-7.35-.67c-5.63,0-11,3.05-11,9.15v8.3H814V24h6.26v5.89c1.13-3.22,5.56-5.81,11.07-6.14a33.91,33.91,0,0,1,7.47.21Z" class="cls-1"/><path data-cppathid="10020" d="M870.62,46.93a16.06,16.06,0,0,1-.38-2.63c-1.5,1.55-6.55,3.13-15.19,3.13-9.31,0-14.49-2.08-14.49-6.76V40c0-5,5-7.51,18.12-7.55,3.21,0,8.77.33,11.65.62a4.21,4.21,0,0,0-.67-2.42c-1-1.33-4-2.46-10.48-2.46-5.89,0-8.81.71-10,1.88a2.47,2.47,0,0,0-.54,1.38h-6.39a7.16,7.16,0,0,1,.38-1.8c1.46-4,6.59-6.47,16.24-6.47,10.89,0,15.78,2.42,17,7.56a23.17,23.17,0,0,1,.37,4.84c0,.83-.08,3.88-.08,5.76a18.49,18.49,0,0,0,.71,5.55ZM858.14,36.79c-6.14,0-9,.71-10.27,1.84a2,2,0,0,0-.55,1.37,1.45,1.45,0,0,0,.34,1.09c1,1.13,3.71,1.75,8.22,1.75,8.81,0,14.45-1,14.45-5.55C867.57,37,862.6,36.79,858.14,36.79Z" class="cls-1"/><path data-cppathid="10021" d="M914.82,33.16c-.79-3-4.72-4.6-12.19-4.6-5.93,0-10.23,1.26-12.31,3.68a5,5,0,0,0-1.13,3.25,5.17,5.17,0,0,0,1.17,3.3c1.88,2.34,6.51,3.47,12.31,3.47s9-.84,10.65-2.17a6,6,0,0,0,1.46-1.84h6.51a9.3,9.3,0,0,1-1.92,4.09c-2.71,3.09-7.93,5.09-16.74,5.09-9.14,0-15.28-2.25-18-5.88a10,10,0,0,1-1.92-6.18,9.51,9.51,0,0,1,2-6c3-3.8,9.22-6.18,18-6.18,9,0,14.49,2.25,17,6a10.06,10.06,0,0,1,1.51,3.93Z" class="cls-1"/><path data-cppathid="10022" d="M928.84,20.84v-6.6h6.72v6.6Zm.67,26.09c-.38-.08-.54-1.12-.54-3.46V24h6.51V43.43c0,2.58,0,3.17.58,3.5Z" class="cls-1"/><path data-cppathid="10023" d="M981.65,40.84c-2.84,4.09-8.94,6.59-18.37,6.59-8.89,0-15.2-2.5-18.16-6.51a10.14,10.14,0,0,1-1.84-5.59A8.86,8.86,0,0,1,945,29.94c3-4.09,9.06-6.72,18.25-6.72,9.52,0,15.36,2.92,18.2,6.6a9.19,9.19,0,0,1,.17,11ZM975.39,32c-2.09-2.05-6.27-3.47-12.11-3.47s-9.77,1.34-12.15,3.51a4.81,4.81,0,0,0,0,6.6c1.92,2.13,6.31,3.59,12.11,3.59,6.14,0,10.19-1.34,12.23-3.63a5,5,0,0,0,1.34-3.26A4.32,4.32,0,0,0,975.39,32ZM965.07,14.49h6.77l-6.39,7.23h-6Z" class="cls-1"/><path data-cppathid="10024" d="M1018.34,46.93c-.3,0-.46-1.38-.46-11.19,0-4.55-3.09-6.88-9.9-6.88-5.8,0-11.1,2.71-11.1,6.93V46.93h-6.43V24h6.22v5.3c2.09-4.46,8.18-6,14.07-6,9.93,0,13.61,4.89,13.61,11.36,0,11.64.12,11.85.33,12.31Z" class="cls-1"/><path data-cppathid="10025" d="M39.49,92.39C37,95,31.6,97.56,22,97.56c-8.76,0-15.15-1.92-18-6.26a10.68,10.68,0,0,1-1.76-6,9.84,9.84,0,0,1,1.8-5.64c3-4,9.52-6.34,17.91-6.34,10.31,0,17.24,3.59,18.87,10a22.38,22.38,0,0,1,.58,4.39H8.73A4.06,4.06,0,0,0,10.6,90c2,1.71,5.89,2.79,11.82,2.79a25.94,25.94,0,0,0,9.48-1.46,6.77,6.77,0,0,0,2-1.5H41A7.27,7.27,0,0,1,39.49,92.39ZM33.57,81.07C32,79.45,28,78.15,21.83,78.15c-5.84,0-10.47,1.25-12.1,3.13a3.66,3.66,0,0,0-1,2.17H34.9A3.43,3.43,0,0,0,33.57,81.07Z" class="cls-1"/><path data-cppathid="10026" d="M63.11,97.52c-12.31,0-16.78-1.83-18.16-6.43a5.83,5.83,0,0,1-.29-1.54H51a2,2,0,0,0,.46,1.25c1,1.13,4,1.75,11.73,1.75,9.72,0,11.1-1.08,11.1-2.5,0-1.59-1.25-1.92-9.68-2.34-1.63-.08-4.56-.29-6.52-.42-9.22-.54-12.81-2.67-12.81-6.84,0-4.6,5.34-7.18,16-7.18s15.57,1.58,17.32,5.88A6.84,6.84,0,0,1,79,81H72.67a2.48,2.48,0,0,0-.37-.88c-1-1.08-3.84-1.79-10.61-1.79-9.18,0-10.35.87-10.35,2.17s1,1.67,9,2.09c2,.12,5,.29,7,.37C77,83.33,80.36,85.46,80.36,90,80.36,94.89,75.68,97.52,63.11,97.52Z" class="cls-1"/><path data-cppathid="10027" d="M96.21,79.7v8.39c0,3,1.34,4.17,5,4.17a43.77,43.77,0,0,0,6-.5v4.93a35.07,35.07,0,0,1-8,.83c-5.6,0-9.44-1.79-9.44-8.1V79.7h-7V74.39h7c.17-1.54.17-5.88.17-5.88l6.22-.17v6h11.35V79.7Z" class="cls-1"/><path data-cppathid="10028" d="M141.84,97a16.06,16.06,0,0,1-.38-2.63c-1.5,1.55-6.55,3.13-15.19,3.13-9.31,0-14.49-2.09-14.49-6.76v-.63c0-5,5-7.51,18.12-7.55,3.21,0,8.77.33,11.65.62a4.21,4.21,0,0,0-.67-2.42c-1-1.33-4-2.46-10.48-2.46-5.89,0-8.81.71-10,1.88a2.47,2.47,0,0,0-.54,1.37h-6.39a7.18,7.18,0,0,1,.38-1.79c1.46-4,6.59-6.47,16.24-6.47,10.89,0,15.78,2.42,17,7.55a23.33,23.33,0,0,1,.37,4.85c0,.83-.08,3.88-.08,5.76A18.6,18.6,0,0,0,148.1,97ZM129.36,86.88c-6.14,0-9,.71-10.27,1.83a2,2,0,0,0-.55,1.38,1.46,1.46,0,0,0,.34,1.09c1,1.12,3.71,1.75,8.22,1.75,8.81,0,14.45-1,14.45-5.55C138.79,87.13,133.82,86.88,129.36,86.88Zm3.13-22.3h6.76l-6.39,7.23h-6Z" class="cls-1"/><path data-cppathid="10029" d="M184.5,97c-.3,0-.46-1.38-.46-11.19,0-4.55-3.09-6.89-9.9-6.89-5.8,0-11.1,2.72-11.1,6.93V97h-6.43v-23h6.22v5.3c2.09-4.47,8.18-6,14.07-6,9.93,0,13.61,4.88,13.61,11.36,0,11.64.12,11.85.33,12.31Z" class="cls-1"/><path data-cppathid="10030" d="M229.41,77.78V64.12h6.35V94.27A22.79,22.79,0,0,0,236,97h-6.27l-.16-4.26c-2,3.09-7.94,4.72-14,4.72-8.43,0-13.86-2.09-16.41-5.8a10.51,10.51,0,0,1-1.92-6.1,10.91,10.91,0,0,1,1.88-6.3c2.51-3.8,7.68-6,15.7-6C221.56,73.31,227.07,74.69,229.41,77.78ZM204.94,82a5.46,5.46,0,0,0-1.25,3.55,5.19,5.19,0,0,0,1.25,3.51c2,2.25,6.1,3.34,12.11,3.34s10-1.17,11.61-3.68a5.44,5.44,0,0,0,.87-3.17A5.13,5.13,0,0,0,228.24,82c-2-2.17-5.93-3.3-11.73-3.3S206.7,79.82,204.94,82Z" class="cls-1"/><path data-cppathid="10031" d="M272.78,97a16.06,16.06,0,0,1-.38-2.63c-1.5,1.55-6.55,3.13-15.19,3.13-9.31,0-14.49-2.09-14.49-6.76v-.63c0-5,5-7.51,18.12-7.55,3.21,0,8.77.33,11.64.62a4.19,4.19,0,0,0-.66-2.42c-1.05-1.33-4.05-2.46-10.48-2.46-5.89,0-8.81.71-10,1.88a2.47,2.47,0,0,0-.54,1.37h-6.39a7.18,7.18,0,0,1,.38-1.79c1.46-4,6.59-6.47,16.24-6.47,10.89,0,15.78,2.42,17,7.55a23.33,23.33,0,0,1,.37,4.85c0,.83-.08,3.88-.08,5.76A18.27,18.27,0,0,0,279,97ZM260.29,86.88c-6.13,0-9,.71-10.27,1.83a2,2,0,0,0-.54,1.38,1.46,1.46,0,0,0,.34,1.09c1,1.12,3.71,1.75,8.22,1.75,8.81,0,14.44-1,14.44-5.55C269.73,87.13,264.76,86.88,260.29,86.88Z" class="cls-1"/><path data-cppathid="10032" d="M312.35,80.24a38.53,38.53,0,0,0-7.35-.67c-5.64,0-11,3.05-11,9.14V97h-6.47v-23h6.26V80c1.13-3.22,5.55-5.81,11.06-6.14a34,34,0,0,1,7.48.21Z" class="cls-1"/><path data-cppathid="10033" d="M366.4,77.78V64.12h6.35V94.27A22.79,22.79,0,0,0,373,97h-6.27l-.16-4.26c-2,3.09-7.93,4.72-14,4.72-8.43,0-13.86-2.09-16.41-5.8a10.51,10.51,0,0,1-1.92-6.1,10.91,10.91,0,0,1,1.88-6.3c2.51-3.8,7.68-6,15.7-6C358.55,73.31,364.06,74.69,366.4,77.78ZM341.94,82a5.41,5.41,0,0,0-1.26,3.55,5.14,5.14,0,0,0,1.26,3.51c2,2.25,6.09,3.34,12.1,3.34s10-1.17,11.61-3.68a5.37,5.37,0,0,0,.88-3.17,5.14,5.14,0,0,0-1.3-3.59c-2-2.17-5.93-3.3-11.73-3.3S343.69,79.82,341.94,82Z" class="cls-1"/><path data-cppathid="10034" d="M416.87,92.39c-2.55,2.63-7.89,5.17-17.45,5.17-8.77,0-15.16-1.92-18-6.26a10.66,10.66,0,0,1-1.75-6,9.91,9.91,0,0,1,1.79-5.64c3-4,9.52-6.34,17.91-6.34,10.31,0,17.24,3.59,18.87,10a22.4,22.4,0,0,1,.59,4.39H386.1A4.12,4.12,0,0,0,388,90c2,1.71,5.88,2.79,11.81,2.79a25.9,25.9,0,0,0,9.48-1.46,6.77,6.77,0,0,0,2-1.5h7.1A7.23,7.23,0,0,1,416.87,92.39Zm-5.93-11.32c-1.55-1.62-5.6-2.92-11.73-2.92-5.85,0-10.48,1.25-12.11,3.13a3.66,3.66,0,0,0-1,2.17h26.17A3.43,3.43,0,0,0,410.94,81.07Z" class="cls-1"/><path data-cppathid="10035" d="M459.19,97.52c-12.32,0-16.79-1.83-18.16-6.43a5.49,5.49,0,0,1-.3-1.54H447a2,2,0,0,0,.46,1.25c1,1.13,4.05,1.75,11.73,1.75,9.73,0,11.1-1.08,11.1-2.5,0-1.59-1.25-1.92-9.68-2.34-1.63-.08-4.55-.29-6.51-.42-9.23-.54-12.82-2.67-12.82-6.84,0-4.6,5.34-7.18,16-7.18s15.57,1.58,17.33,5.88a6.74,6.74,0,0,1,.37,1.84h-6.3a2.53,2.53,0,0,0-.38-.88c-1-1.08-3.84-1.79-10.6-1.79-9.19,0-10.36.87-10.36,2.17s1,1.67,9,2.09c2,.12,5,.29,7,.37,9.73.38,13.07,2.51,13.07,7.06C476.43,94.89,471.75,97.52,459.19,97.52Z" class="cls-1"/><path data-cppathid="10036" d="M511,97a16.06,16.06,0,0,1-.38-2.63c-1.5,1.55-6.55,3.13-15.19,3.13-9.31,0-14.49-2.09-14.49-6.76v-.63c0-5,5-7.51,18.12-7.55,3.21,0,8.77.33,11.65.62a4.21,4.21,0,0,0-.67-2.42c-1-1.33-4-2.46-10.48-2.46-5.89,0-8.81.71-10,1.88a2.47,2.47,0,0,0-.54,1.37h-6.39a7.18,7.18,0,0,1,.38-1.79c1.46-4,6.59-6.47,16.24-6.47,10.89,0,15.78,2.42,17,7.55a23.33,23.33,0,0,1,.37,4.85c0,.83-.08,3.88-.08,5.76a18.27,18.27,0,0,0,.71,5.55ZM498.51,86.88c-6.14,0-9,.71-10.27,1.83a2,2,0,0,0-.55,1.38,1.46,1.46,0,0,0,.34,1.09c1,1.12,3.71,1.75,8.22,1.75,8.81,0,14.45-1,14.45-5.55C507.94,87.13,503,86.88,498.51,86.88Z" class="cls-1"/><path data-cppathid="10037" d="M553.65,97c-.29,0-.46-1.38-.46-11.19,0-4.55-3.09-6.89-9.9-6.89-5.8,0-11.1,2.72-11.1,6.93V97h-6.43v-23H532v5.3c2.09-4.47,8.18-6,14.07-6,9.93,0,13.61,4.88,13.61,11.36,0,11.64.12,11.85.33,12.31Z" class="cls-1"/><path data-cppathid="10038" d="M603.69,92.39c-2.54,2.63-7.89,5.17-17.45,5.17-8.76,0-15.15-1.92-18-6.26a10.68,10.68,0,0,1-1.76-6,9.84,9.84,0,0,1,1.8-5.64c3-4,9.52-6.34,17.91-6.34,10.31,0,17.24,3.59,18.87,10a22.38,22.38,0,0,1,.58,4.39H572.93A4.06,4.06,0,0,0,574.8,90c2,1.71,5.89,2.79,11.82,2.79a25.94,25.94,0,0,0,9.48-1.46,6.77,6.77,0,0,0,2-1.5h7.1A7.27,7.27,0,0,1,603.69,92.39Zm-5.92-11.32c-1.55-1.62-5.6-2.92-11.74-2.92-5.84,0-10.47,1.25-12.1,3.13a3.66,3.66,0,0,0-1,2.17H599.1A3.43,3.43,0,0,0,597.77,81.07Z" class="cls-1"/><path data-cppathid="10039" d="M639.42,97a16.34,16.34,0,0,1-.37-2.63c-1.51,1.55-6.56,3.13-15.2,3.13-9.31,0-14.49-2.09-14.49-6.76v-.63c0-5,5-7.51,18.12-7.55,3.22,0,8.77.33,11.65.62a4.13,4.13,0,0,0-.67-2.42c-1-1.33-4.05-2.46-10.48-2.46-5.88,0-8.81.71-10,1.88a2.41,2.41,0,0,0-.55,1.37h-6.38a7.14,7.14,0,0,1,.37-1.79c1.46-4,6.6-6.47,16.24-6.47,10.9,0,15.78,2.42,17,7.55a24,24,0,0,1,.38,4.85c0,.83-.08,3.88-.08,5.76a18.27,18.27,0,0,0,.71,5.55ZM626.94,86.88c-6.14,0-9,.71-10.27,1.83a2,2,0,0,0-.54,1.38,1.49,1.49,0,0,0,.33,1.09c1,1.12,3.72,1.75,8.23,1.75,8.8,0,14.44-1,14.44-5.55C636.37,87.13,631.41,86.88,626.94,86.88Z" class="cls-1"/><path data-cppathid="10040" d="M703,85.87c0-3.75-1.76-6.93-8.94-6.93-5,0-9.31,2-9.31,6.93V97h-6V85.33c0-3.92-3.5-6.39-8.68-6.39-5.84,0-9.52,3.3-9.52,6.81V97h-6.43v-23h6.22v5.3c1.63-3.92,6.89-5.88,11.94-5.88,5.3,0,10,1.75,11.53,6,1.75-3.93,6-6,12.19-6,9.39,0,12.6,4.59,12.6,11.23,0,11.73.05,12,.42,12.31H703.5C703,97,703,94.56,703,85.87Z" class="cls-1"/><path data-cppathid="10041" d="M718.68,70.93v-6.6h6.72v6.6ZM719.35,97c-.38-.08-.54-1.13-.54-3.46V74.06h6.51V93.51c0,2.59,0,3.18.58,3.51Z" class="cls-1"/><path data-cppathid="10042" d="M770.44,92.39C767.9,95,762.56,97.56,753,97.56c-8.76,0-15.15-1.92-18-6.26a10.66,10.66,0,0,1-1.75-6A9.91,9.91,0,0,1,735,79.61c3-4,9.52-6.34,17.91-6.34,10.31,0,17.24,3.59,18.87,10a22.4,22.4,0,0,1,.59,4.39H739.68A4.12,4.12,0,0,0,741.56,90c2,1.71,5.88,2.79,11.81,2.79a25.9,25.9,0,0,0,9.48-1.46,6.77,6.77,0,0,0,2-1.5H772A7.12,7.12,0,0,1,770.44,92.39Zm-5.92-11.32c-1.55-1.62-5.6-2.92-11.73-2.92-5.85,0-10.48,1.25-12.11,3.13a3.66,3.66,0,0,0-1,2.17h26.17A3.43,3.43,0,0,0,764.52,81.07Z" class="cls-1"/><path data-cppathid="10043" d="M806.55,97c-.29,0-.46-1.38-.46-11.19,0-4.55-3.09-6.89-9.89-6.89-5.81,0-11.11,2.72-11.11,6.93V97h-6.43v-23h6.22v5.3c2.09-4.47,8.18-6,14.07-6,9.94,0,13.61,4.88,13.61,11.36,0,11.64.13,11.85.34,12.31Z" class="cls-1"/><path data-cppathid="10044" d="M830.8,79.7v8.39c0,3,1.33,4.17,5,4.17a43.92,43.92,0,0,0,6.06-.5v4.93a35.24,35.24,0,0,1-8.06.83c-5.59,0-9.43-1.79-9.43-8.1V79.7h-7.06V74.39h7.06c.16-1.54.16-5.88.16-5.88l6.22-.17v6h11.36V79.7Z" class="cls-1"/><path data-cppathid="10045" d="M884.56,90.93c-2.84,4.09-8.93,6.59-18.37,6.59C857.3,97.52,851,95,848,91a10.2,10.2,0,0,1-1.83-5.59A8.86,8.86,0,0,1,848,80c3-4.09,9.06-6.72,18.24-6.72,9.52,0,15.37,2.92,18.21,6.59a9.19,9.19,0,0,1,.16,11Zm-6.26-8.81c-2.09-2.05-6.26-3.47-12.11-3.47S856.42,80,854,82.16a4.88,4.88,0,0,0-1.29,3.3,4.82,4.82,0,0,0,1.34,3.3c1.92,2.12,6.3,3.59,12.1,3.59,6.14,0,10.19-1.34,12.24-3.64a5,5,0,0,0,1.33-3.25A4.28,4.28,0,0,0,878.3,82.12Z" class="cls-1"/><path data-cppathid="10046" d="M921.91,99.86a19.06,19.06,0,0,1-12.23-17.7c0-8.85,7.22-15.74,12.23-17.74h6.6c-5.64,3-11.69,10.27-11.69,17.74,0,8.64,6.3,15.15,11.69,17.7Z" class="cls-1"/><path data-cppathid="10047" d="M974.1,83.58c-2.3,3.17-6.35,4.55-12.45,4.55H942V97h-6.76V64.42H961.7c6,0,10.14,1.42,12.06,3.92,1.38,1.75,2.3,4.38,2.3,8A12.13,12.13,0,0,1,974.1,83.58Zm-5.6-10.73c-1-1.63-3.63-2.59-8-2.59H941.91V82H960.4c4.64,0,7-.87,8.1-2.54a6.11,6.11,0,0,0,.67-3.3A6.79,6.79,0,0,0,968.5,72.85Z" class="cls-1"/><path data-cppathid="10048" d="M1025,69.47c3.55,3.09,4.84,6.59,4.84,11.1a14.3,14.3,0,0,1-4.72,11.11c-4.13,4-11,5.84-19.62,5.84-8.18,0-14.48-2-18.83-5.59a13.93,13.93,0,0,1-5.46-11.4A13.63,13.63,0,0,1,986,69.72c4.76-4.43,10.9-6.06,19.58-6.06S1020.55,65.5,1025,69.47Zm-5,17.82a8.51,8.51,0,0,0,2.92-6.68,8.28,8.28,0,0,0-3-6.84c-3.17-2.63-7.43-4-14.36-4-6.59,0-11.65,1.54-14.36,4.09a8.67,8.67,0,0,0-3,6.8,8.34,8.34,0,0,0,3.75,7.27c3.38,2.55,7.6,3.71,13.65,3.71C1012.2,91.59,1016.75,90.34,1020,87.29Z" class="cls-1"/><path data-cppathid="10049" d="M1038.24,97V64.42h38.2v6H1045v7.18h30.77v5.89H1045v7.39h31.86V97Z" class="cls-1"/><path data-cppathid="10050" d="M1107.74,97.52c-9.85,0-15.9-1-19.53-3.42a10.61,10.61,0,0,1-4.76-7.89h7.47a4.71,4.71,0,0,0,1.88,3.3c2,1.37,5.89,2.08,14.19,2.08,10.82,0,13.65-1.62,13.65-4.17s-2.12-3.38-11.52-4c-1.75-.17-6.18-.42-7.68-.54-13.15-.92-17.28-3.8-17.28-9.27,0-5.14,6.18-9.69,21-9.69,11.31,0,17.11,3,19.83,6.68a10.84,10.84,0,0,1,1.79,4h-7.59a4.94,4.94,0,0,0-.88-1.88c-1.38-1.79-4.59-2.92-13.74-2.92-10.48,0-13.44,1.21-13.44,3.72,0,2.25,2.42,2.88,13.07,3.67,2,.13,7,.54,8.6.67,11.19.88,15,3.92,15,9.23C1127.82,93.89,1121.44,97.52,1107.74,97.52Z" class="cls-1"/><path data-cppathid="10051" d="M1139.09,99.86h-6.64c5.43-2.5,11.73-9.06,11.73-17.7,0-7.47-6.14-14.78-11.73-17.74h6.64c5.05,2,12.19,8.89,12.19,17.74C1151.28,92.22,1143.68,98.06,1139.09,99.86Z" class="cls-1"/></svg>