<?xml version="1.0" encoding="UTF-8"?>
<svg xmlns="http://www.w3.org/2000/svg" onmouseup="{ if(window.parent.document.onmouseup) window.parent.document.onmouseup(arguments[0]);}" viewBox="0 0 1010.56 96.69" data-name="Capa 1" id="Capa_1"><defs><style>.cls-1{fill:#fff;}</style></defs><path data-cppathid="10000" d="M56.65,40.52V17L41.88,40.52H35L20.58,17V40.52H14V7.91H22.5L38.62,34,54.82,7.91h8.43V40.52Z" class="cls-1"/><path data-cppathid="10001" d="M109.5,34.42c-2.84,4.09-8.94,6.6-18.37,6.6-8.9,0-15.2-2.51-18.16-6.52a10.11,10.11,0,0,1-1.84-5.59,8.81,8.81,0,0,1,1.75-5.38c3-4.1,9.06-6.73,18.25-6.73,9.52,0,15.36,2.93,18.2,6.6a9.19,9.19,0,0,1,.17,11Zm-6.27-8.81c-2.08-2-6.26-3.46-12.1-3.46S81.36,23.48,79,25.65a4.79,4.79,0,0,0,0,6.6c1.92,2.13,6.3,3.59,12.11,3.59,6.13,0,10.18-1.34,12.23-3.63A5,5,0,0,0,104.69,29,4.28,4.28,0,0,0,103.23,25.61Z" class="cls-1"/><path data-cppathid="10002" d="M146.18,40.52c-.29,0-.46-1.38-.46-11.19,0-4.55-3.08-6.89-9.89-6.89-5.8,0-11.1,2.71-11.1,6.93V40.52H118.3v-23h6.22v5.31c2.08-4.47,8.18-6,14.07-6,9.93,0,13.61,4.88,13.61,11.35,0,11.65.12,11.86.33,12.32Z" class="cls-1"/><path data-cppathid="10003" d="M162,14.42V7.83h6.72v6.59Zm.67,26.1c-.38-.09-.54-1.13-.54-3.47V17.55h6.51V37c0,2.59,0,3.17.58,3.51Z" class="cls-1"/><path data-cppathid="10004" d="M188,23.19v8.39c0,3.05,1.34,4.18,5,4.18a43.77,43.77,0,0,0,6.05-.5v4.92A34.39,34.39,0,0,1,191,41c-5.6,0-9.44-1.8-9.44-8.1V23.19h-7.05v-5.3h7.05c.17-1.55.17-5.89.17-5.89l6.22-.16v6.05h11.36v5.3Z" class="cls-1"/><path data-cppathid="10005" d="M241.77,34.42c-2.84,4.09-8.93,6.6-18.37,6.6-8.89,0-15.2-2.51-18.16-6.52a10.11,10.11,0,0,1-1.84-5.59,8.82,8.82,0,0,1,1.76-5.38c3-4.1,9.06-6.73,18.24-6.73,9.52,0,15.36,2.93,18.2,6.6a9.19,9.19,0,0,1,.17,11Zm-6.26-8.81c-2.09-2-6.26-3.46-12.11-3.46s-9.77,1.33-12.15,3.5a4.81,4.81,0,0,0,0,6.6c1.92,2.13,6.31,3.59,12.11,3.59,6.14,0,10.19-1.34,12.23-3.63A5,5,0,0,0,237,29,4.32,4.32,0,0,0,235.51,25.61Z" class="cls-1"/><path data-cppathid="10006" d="M275.37,23.73a39.41,39.41,0,0,0-7.35-.66c-5.64,0-11,3-11,9.14v8.31h-6.47v-23h6.26v5.89c1.13-3.21,5.55-5.8,11.07-6.14a33.91,33.91,0,0,1,7.47.21Z" class="cls-1"/><path data-cppathid="10007" d="M314.9,35.88c-2.55,2.63-7.89,5.18-17.45,5.18-8.77,0-15.16-1.92-18-6.26a10.77,10.77,0,0,1-1.75-6.06,9.85,9.85,0,0,1,1.79-5.63c3-4.05,9.52-6.35,17.91-6.35,10.32,0,17.25,3.59,18.87,10a21.57,21.57,0,0,1,.59,4.38H284.13A4.12,4.12,0,0,0,286,33.5c2,1.71,5.89,2.8,11.81,2.8a25.86,25.86,0,0,0,9.48-1.46,6.81,6.81,0,0,0,2-1.5h7.1A7.11,7.11,0,0,1,314.9,35.88ZM309,24.57c-1.54-1.63-5.59-2.92-11.73-2.92-5.85,0-10.48,1.25-12.11,3.13a3.64,3.64,0,0,0-1,2.17h26.18A3.49,3.49,0,0,0,309,24.57Z" class="cls-1"/><path data-cppathid="10008" d="M358.77,34.42c-2.84,4.09-8.94,6.6-18.37,6.6-8.89,0-15.2-2.51-18.16-6.52a10.11,10.11,0,0,1-1.84-5.59,8.81,8.81,0,0,1,1.75-5.38c3-4.1,9.06-6.73,18.25-6.73,9.52,0,15.36,2.93,18.2,6.6a9.19,9.19,0,0,1,.17,11Zm-6.27-8.81c-2.08-2-6.26-3.46-12.1-3.46s-9.77,1.33-12.15,3.5a4.79,4.79,0,0,0,0,6.6c1.92,2.13,6.3,3.59,12.11,3.59,6.13,0,10.18-1.34,12.23-3.63A5,5,0,0,0,354,29,4.29,4.29,0,0,0,352.5,25.61Z" class="cls-1"/><path data-cppathid="10009" d="M415.74,21.27V7.62h6.35V37.76a22.81,22.81,0,0,0,.25,2.76h-6.27l-.16-4.26c-2,3.09-7.93,4.72-14,4.72-8.43,0-13.86-2.09-16.41-5.81a10.48,10.48,0,0,1-1.92-6.09,11,11,0,0,1,1.88-6.31c2.51-3.8,7.68-6,15.7-6C407.89,16.8,413.4,18.18,415.74,21.27Zm-24.46,4.22A5.39,5.39,0,0,0,390,29a5.14,5.14,0,0,0,1.26,3.5c2,2.26,6.09,3.34,12.1,3.34s10-1.17,11.61-3.67a5.39,5.39,0,0,0,.88-3.17,5.14,5.14,0,0,0-1.3-3.59c-2-2.18-5.93-3.3-11.73-3.3S393,23.32,391.28,25.49Z" class="cls-1"/><path data-cppathid="10010" d="M466.21,35.88c-2.55,2.63-7.89,5.18-17.45,5.18-8.77,0-15.16-1.92-18-6.26A10.69,10.69,0,0,1,429,28.74a9.85,9.85,0,0,1,1.79-5.63c3-4.05,9.52-6.35,17.91-6.35,10.31,0,17.24,3.59,18.87,10a22.3,22.3,0,0,1,.59,4.38H435.44a4.12,4.12,0,0,0,1.88,2.38c2,1.71,5.88,2.8,11.81,2.8a25.9,25.9,0,0,0,9.48-1.46,6.94,6.94,0,0,0,2-1.5h7.1A7.11,7.11,0,0,1,466.21,35.88Zm-5.93-11.31c-1.55-1.63-5.6-2.92-11.73-2.92-5.85,0-10.48,1.25-12.11,3.13a3.64,3.64,0,0,0-1,2.17h26.17A3.43,3.43,0,0,0,460.28,24.57Z" class="cls-1"/><path data-cppathid="10011" d="M494,40.52c-.25-.09-.42-.92-.42-2.34V10.75a15.61,15.61,0,0,0-.21-3.26h6.43a19.33,19.33,0,0,1,.17,3.13V37.84c0,1.22.08,2.51.5,2.68Z" class="cls-1"/><path data-cppathid="10012" d="M537.71,40.52a16.06,16.06,0,0,1-.38-2.63c-1.5,1.54-6.55,3.13-15.2,3.13-9.31,0-14.48-2.09-14.48-6.77v-.62c0-5,5-7.52,18.12-7.56,3.21,0,8.76.34,11.64.63a4.19,4.19,0,0,0-.66-2.42c-1-1.34-4-2.47-10.48-2.47-5.89,0-8.81.71-10,1.88a2.43,2.43,0,0,0-.54,1.38h-6.39a7.69,7.69,0,0,1,.37-1.8c1.47-4,6.6-6.47,16.24-6.47,10.9,0,15.79,2.42,17,7.56a23.93,23.93,0,0,1,.37,4.84c0,.84-.08,3.88-.08,5.76a18.3,18.3,0,0,0,.71,5.56ZM525.22,30.37c-6.13,0-9,.71-10.27,1.84a2,2,0,0,0-.54,1.38,1.47,1.47,0,0,0,.33,1.08c1,1.13,3.72,1.75,8.23,1.75,8.81,0,14.44-1,14.44-5.55C534.66,30.62,529.69,30.37,525.22,30.37Z" class="cls-1"/><path data-cppathid="10013" d="M567.88,41c-12.32,0-16.78-1.84-18.16-6.43a5.45,5.45,0,0,1-.29-1.55h6.3a2.07,2.07,0,0,0,.46,1.26c1,1.12,4,1.75,11.73,1.75,9.73,0,11.11-1.09,11.11-2.51,0-1.58-1.26-1.92-9.69-2.33-1.63-.09-4.55-.3-6.51-.42C553.6,30.25,550,28.12,550,23.94c0-4.59,5.35-7.18,16-7.18s15.58,1.59,17.33,5.89a6.67,6.67,0,0,1,.37,1.84h-6.3a2.46,2.46,0,0,0-.38-.88c-1-1.09-3.83-1.8-10.6-1.8-9.18,0-10.35.88-10.35,2.17s1,1.67,9,2.09c2,.13,5,.29,7,.38,9.72.37,13.06,2.5,13.06,7.05C585.12,38.39,580.45,41,567.88,41Z" class="cls-1"/><path data-cppathid="10014" d="M638.38,40.52a15.26,15.26,0,0,1-.37-2.63c-1.51,1.54-6.56,3.13-15.2,3.13-9.31,0-14.49-2.09-14.49-6.77v-.62c0-5,5-7.52,18.12-7.56,3.22,0,8.77.34,11.65.63a4.21,4.21,0,0,0-.67-2.42c-1-1.34-4-2.47-10.48-2.47-5.88,0-8.81.71-10,1.88a2.5,2.5,0,0,0-.54,1.38H610a7.25,7.25,0,0,1,.38-1.8c1.46-4,6.6-6.47,16.24-6.47,10.9,0,15.78,2.42,17,7.56A23.87,23.87,0,0,1,644,29.2c0,.84-.09,3.88-.09,5.76a18.62,18.62,0,0,0,.71,5.56ZM625.9,30.37c-6.14,0-9,.71-10.27,1.84a2,2,0,0,0-.54,1.38,1.47,1.47,0,0,0,.33,1.08c1,1.13,3.72,1.75,8.22,1.75,8.81,0,14.45-1,14.45-5.55C635.33,30.62,630.37,30.37,625.9,30.37Z" class="cls-1"/><path data-cppathid="10015" d="M682.58,26.74c-.79-3-4.71-4.59-12.19-4.59-5.92,0-10.22,1.25-12.31,3.67A5.07,5.07,0,0,0,657,29.08a5.21,5.21,0,0,0,1.17,3.3c1.88,2.33,6.51,3.46,12.32,3.46s9-.83,10.64-2.17a5.76,5.76,0,0,0,1.46-1.84h6.52a9.43,9.43,0,0,1-1.93,4.09C684.42,39,679.2,41,670.39,41c-9.14,0-15.28-2.26-18-5.89A10,10,0,0,1,650.44,29a9.51,9.51,0,0,1,2-6c3-3.8,9.23-6.18,18-6.18,9,0,14.49,2.26,17,6a10,10,0,0,1,1.5,3.92Z" class="cls-1"/><path data-cppathid="10016" d="M705,23.19v8.39c0,3.05,1.34,4.18,5,4.18a43.92,43.92,0,0,0,6.06-.5v4.92A34.56,34.56,0,0,1,708,41c-5.6,0-9.44-1.8-9.44-8.1V23.19h-7v-5.3h7c.17-1.55.17-5.89.17-5.89l6.22-.16v6.05h11.36v5.3Z" class="cls-1"/><path data-cppathid="10017" d="M723.52,14.42V7.83h6.73v6.59Zm.67,26.1c-.37-.09-.54-1.13-.54-3.47V17.55h6.51V37c0,2.59,0,3.17.59,3.51Z" class="cls-1"/><path data-cppathid="10018" d="M758.92,40.52h-7.64l-16.4-23h7l13.23,17.91,13.2-17.91h6.8Z" class="cls-1"/><path data-cppathid="10019" d="M779.5,14.42V7.83h6.72v6.59Zm.67,26.1c-.38-.09-.55-1.13-.55-3.47V17.55h6.52V37c0,2.59,0,3.17.58,3.51Z" class="cls-1"/><path data-cppathid="10020" d="M826.13,21.27V7.62h6.34V37.76a22.81,22.81,0,0,0,.25,2.76h-6.26l-.17-4.26c-2,3.09-7.93,4.72-14,4.72-8.44,0-13.86-2.09-16.41-5.81a10.48,10.48,0,0,1-1.92-6.09,11,11,0,0,1,1.88-6.31c2.5-3.8,7.68-6,15.7-6C818.28,16.8,823.79,18.18,826.13,21.27Zm-24.47,4.22A5.44,5.44,0,0,0,800.41,29a5.18,5.18,0,0,0,1.25,3.5c2,2.26,6.1,3.34,12.11,3.34s10-1.17,11.61-3.67a5.46,5.46,0,0,0,.87-3.17A5.13,5.13,0,0,0,825,25.45c-2-2.18-5.93-3.3-11.73-3.3S803.42,23.32,801.66,25.49Z" class="cls-1"/><path data-cppathid="10021" d="M869.5,40.52a16.06,16.06,0,0,1-.38-2.63c-1.5,1.54-6.56,3.13-15.2,3.13-9.31,0-14.48-2.09-14.48-6.77v-.62c0-5,5-7.52,18.12-7.56,3.21,0,8.76.34,11.64.63a4.19,4.19,0,0,0-.66-2.42c-1-1.34-4-2.47-10.48-2.47-5.89,0-8.81.71-10,1.88a2.43,2.43,0,0,0-.54,1.38h-6.39a7.69,7.69,0,0,1,.37-1.8c1.47-4,6.6-6.47,16.24-6.47,10.9,0,15.79,2.42,17,7.56a23.93,23.93,0,0,1,.37,4.84c0,.84-.08,3.88-.08,5.76a18.3,18.3,0,0,0,.71,5.56ZM857,30.37c-6.13,0-9,.71-10.27,1.84a2,2,0,0,0-.54,1.38,1.47,1.47,0,0,0,.33,1.08c1,1.13,3.72,1.75,8.23,1.75,8.81,0,14.44-1,14.44-5.55C866.45,30.62,861.48,30.37,857,30.37Z" class="cls-1"/><path data-cppathid="10022" d="M913.74,21.27V7.62h6.35V37.76a22.81,22.81,0,0,0,.25,2.76h-6.27l-.16-4.26c-2,3.09-7.93,4.72-14,4.72-8.43,0-13.86-2.09-16.41-5.81a10.48,10.48,0,0,1-1.92-6.09,11,11,0,0,1,1.88-6.31c2.51-3.8,7.68-6,15.7-6C905.89,16.8,911.4,18.18,913.74,21.27Zm-24.46,4.22A5.39,5.39,0,0,0,888,29a5.14,5.14,0,0,0,1.26,3.5c2,2.26,6.09,3.34,12.1,3.34s10-1.17,11.61-3.67a5.47,5.47,0,0,0,.88-3.17,5.14,5.14,0,0,0-1.3-3.59c-2-2.18-5.93-3.3-11.73-3.3S891,23.32,889.28,25.49Z" class="cls-1"/><path data-cppathid="10023" d="M964.21,35.88c-2.55,2.63-7.9,5.18-17.46,5.18-8.76,0-15.15-1.92-18-6.26A10.69,10.69,0,0,1,927,28.74a9.85,9.85,0,0,1,1.79-5.63c3-4.05,9.52-6.35,17.91-6.35,10.31,0,17.24,3.59,18.87,10a22.3,22.3,0,0,1,.59,4.38H933.44a4.1,4.1,0,0,0,1.87,2.38c2,1.71,5.89,2.8,11.82,2.8a25.9,25.9,0,0,0,9.48-1.46,6.94,6.94,0,0,0,2-1.5h7.1A7.11,7.11,0,0,1,964.21,35.88Zm-5.93-11.31c-1.55-1.63-5.6-2.92-11.73-2.92-5.85,0-10.48,1.25-12.11,3.13a3.64,3.64,0,0,0-1,2.17h26.17A3.43,3.43,0,0,0,958.28,24.57Z" class="cls-1"/><path data-cppathid="10024" d="M987.83,41c-12.32,0-16.79-1.84-18.16-6.43a5.49,5.49,0,0,1-.3-1.55h6.31a2,2,0,0,0,.46,1.26c1,1.12,4.05,1.75,11.73,1.75,9.73,0,11.1-1.09,11.1-2.51,0-1.58-1.25-1.92-9.68-2.33-1.63-.09-4.55-.3-6.52-.42-9.22-.54-12.81-2.67-12.81-6.85,0-4.59,5.34-7.18,16-7.18s15.57,1.59,17.32,5.89a6.77,6.77,0,0,1,.38,1.84h-6.3a2.65,2.65,0,0,0-.38-.88c-1-1.09-3.84-1.8-10.6-1.8-9.19,0-10.36.88-10.36,2.17s1,1.67,9,2.09c2,.13,5,.29,7,.38,9.73.37,13.07,2.5,13.07,7.05C1005.07,38.39,1000.39,41,987.83,41Z" class="cls-1"/><path data-cppathid="10025" d="M42.5,71.36V57.71h6.35V87.85a22.55,22.55,0,0,0,.25,2.75H42.84l-.17-4.25c-2,3.09-7.93,4.71-14,4.71-8.43,0-13.86-2.08-16.41-5.8a10.48,10.48,0,0,1-1.92-6.09,10.94,10.94,0,0,1,1.88-6.31c2.51-3.8,7.68-6,15.7-6C34.65,66.89,40.16,68.27,42.5,71.36ZM18,75.58a5.39,5.39,0,0,0-1.26,3.54A5.14,5.14,0,0,0,18,82.63C20,84.89,24.13,86,30.14,86s10-1.17,11.61-3.67a5.43,5.43,0,0,0,.88-3.18,5.17,5.17,0,0,0-1.3-3.59c-2-2.17-5.93-3.29-11.73-3.29S19.79,73.4,18,75.58Z" class="cls-1"/><path data-cppathid="10026" d="M93,86c-2.55,2.63-7.89,5.18-17.45,5.18-8.77,0-15.16-1.92-18-6.26a10.79,10.79,0,0,1-1.75-6.06,9.85,9.85,0,0,1,1.79-5.63c3-4,9.52-6.35,17.91-6.35,10.31,0,17.24,3.59,18.87,10a21.57,21.57,0,0,1,.59,4.38H62.2a4.12,4.12,0,0,0,1.88,2.38c2,1.71,5.88,2.8,11.81,2.8a25.9,25.9,0,0,0,9.48-1.46,6.83,6.83,0,0,0,2-1.51h7.1A7.06,7.06,0,0,1,93,86ZM87,74.66c-1.55-1.63-5.6-2.93-11.73-2.93-5.85,0-10.48,1.26-12.11,3.14a3.64,3.64,0,0,0-1,2.17H88.37A3.41,3.41,0,0,0,87,74.66Z" class="cls-1"/><path data-cppathid="10027" d="M120.76,90.6c-.25-.08-.42-.91-.42-2.33V60.84a15.61,15.61,0,0,0-.21-3.26h6.43a19.33,19.33,0,0,1,.17,3.13V87.93c0,1.21.08,2.51.5,2.67Z" class="cls-1"/><path data-cppathid="10028" d="M137.37,64.51V57.92h6.72v6.59ZM138,90.6c-.38-.08-.54-1.12-.54-3.46V67.64H144V87.1c0,2.59,0,3.17.58,3.5Z" class="cls-1"/><path data-cppathid="10029" d="M203.37,79.46c0-3.76-1.75-6.93-8.93-6.93-5,0-9.31,2-9.31,6.93V90.6h-6V78.91c0-3.92-3.51-6.38-8.69-6.38-5.84,0-9.51,3.3-9.51,6.8V90.6h-6.43v-23h6.22V73c1.63-3.93,6.89-5.89,11.94-5.89,5.3,0,10,1.75,11.52,6,1.75-3.93,6-6,12.19-6,9.39,0,12.61,4.59,12.61,11.23,0,11.73,0,12,.42,12.31h-5.6C203.37,90.6,203.37,88.14,203.37,79.46Z" class="cls-1"/><path data-cppathid="10030" d="M254.42,85.47C251.5,89,246.07,91,239.14,91c-5.18,0-11.86-1.25-14.11-4V98.37H218.6V67.69h6.22v3.88c1.75-2.42,7.51-4.55,14.36-4.55,7.76,0,12.82,2.08,15.4,5.51A10.63,10.63,0,0,1,256.76,79,10.07,10.07,0,0,1,254.42,85.47Zm-6-10.19c-2-2-5.8-3-10.94-3s-9.39,1.21-11.27,3.46a5.18,5.18,0,0,0-1.42,3.59,4.85,4.85,0,0,0,1.33,3.3c1.8,2,5.85,3.21,11.36,3.21,5.3,0,9.23-1.17,11.23-3.21A5.23,5.23,0,0,0,250.12,79,5,5,0,0,0,248.45,75.28Z" class="cls-1"/><path data-cppathid="10031" d="M264.09,64.51V57.92h6.73v6.59Zm.67,26.09c-.37-.08-.54-1.12-.54-3.46V67.64h6.51V87.1c0,2.59,0,3.17.59,3.5Z" class="cls-1"/><path data-cppathid="10032" d="M315.86,86c-2.55,2.63-7.89,5.18-17.45,5.18-8.77,0-15.16-1.92-18-6.26a10.79,10.79,0,0,1-1.75-6.06,9.85,9.85,0,0,1,1.79-5.63c3-4,9.52-6.35,17.91-6.35,10.32,0,17.25,3.59,18.87,10a21.57,21.57,0,0,1,.59,4.38H285.09A4.12,4.12,0,0,0,287,83.59c2,1.71,5.88,2.8,11.81,2.8a25.86,25.86,0,0,0,9.48-1.46,6.83,6.83,0,0,0,2-1.51h7.1A7.06,7.06,0,0,1,315.86,86Zm-5.93-11.31c-1.54-1.63-5.59-2.93-11.73-2.93-5.85,0-10.48,1.26-12.11,3.14a3.7,3.7,0,0,0-1,2.17h26.18A3.43,3.43,0,0,0,309.93,74.66Z" class="cls-1"/><path data-cppathid="10033" d="M321.57,90.6V85.76l21-12.52H322V68h31.35v4.55l-21.5,12.86h22.71V90.6Z" class="cls-1"/><path data-cppathid="10034" d="M388.94,90.6a16.34,16.34,0,0,1-.37-2.63c-1.51,1.55-6.56,3.14-15.2,3.14-9.31,0-14.48-2.09-14.48-6.77v-.62c0-5,5-7.52,18.11-7.56,3.22,0,8.77.33,11.65.63a4.13,4.13,0,0,0-.67-2.42c-1-1.34-4.05-2.47-10.48-2.47-5.88,0-8.8.71-10,1.88a2.52,2.52,0,0,0-.55,1.38H360.6a7.59,7.59,0,0,1,.37-1.8c1.46-4,6.6-6.47,16.24-6.47,10.9,0,15.78,2.42,17,7.56a23.87,23.87,0,0,1,.38,4.84c0,.84-.08,3.88-.08,5.76a18.17,18.17,0,0,0,.71,5.55ZM376.46,80.46c-6.14,0-9,.71-10.27,1.84a2,2,0,0,0-.54,1.37,1.48,1.48,0,0,0,.33,1.09c1,1.13,3.72,1.75,8.23,1.75,8.81,0,14.44-1,14.44-5.55C385.9,80.71,380.93,80.46,376.46,80.46Z" class="cls-1"/><path data-cppathid="10035" d="M437,98.37h-7.47l5.76-7.81L418.2,67.64h6.93l13.65,17.75,12.86-17.75h6.8Z" class="cls-1"/><path data-cppathid="10036" d="M512.16,71.36V57.71h6.35V87.85a22.55,22.55,0,0,0,.25,2.75h-6.27l-.16-4.25c-2,3.09-7.93,4.71-14,4.71-8.43,0-13.86-2.08-16.41-5.8A10.48,10.48,0,0,1,480,79.17a10.94,10.94,0,0,1,1.88-6.31c2.51-3.8,7.68-6,15.7-6C504.31,66.89,509.82,68.27,512.16,71.36ZM487.7,75.58a5.39,5.39,0,0,0-1.26,3.54,5.14,5.14,0,0,0,1.26,3.51c2,2.26,6.09,3.34,12.1,3.34s10-1.17,11.61-3.67a5.43,5.43,0,0,0,.88-3.18,5.17,5.17,0,0,0-1.3-3.59c-2-2.17-5.93-3.29-11.73-3.29S489.45,73.4,487.7,75.58Z" class="cls-1"/><path data-cppathid="10037" d="M562.63,86c-2.55,2.63-7.89,5.18-17.45,5.18-8.77,0-15.16-1.92-18-6.26a10.71,10.71,0,0,1-1.75-6.06,9.85,9.85,0,0,1,1.79-5.63c3-4,9.52-6.35,17.91-6.35,10.31,0,17.24,3.59,18.87,10a22.3,22.3,0,0,1,.59,4.38H531.86a4.12,4.12,0,0,0,1.88,2.38c2,1.71,5.88,2.8,11.81,2.8A25.9,25.9,0,0,0,555,84.93a7,7,0,0,0,2-1.51h7.1A7.06,7.06,0,0,1,562.63,86ZM556.7,74.66c-1.55-1.63-5.6-2.93-11.73-2.93-5.85,0-10.48,1.26-12.11,3.14a3.64,3.64,0,0,0-1,2.17H558A3.41,3.41,0,0,0,556.7,74.66Z" class="cls-1"/><path data-cppathid="10038" d="M586.25,91.11c-12.32,0-16.79-1.84-18.16-6.43a5.49,5.49,0,0,1-.3-1.55h6.31a2,2,0,0,0,.46,1.25c1,1.13,4.05,1.76,11.73,1.76,9.73,0,11.1-1.09,11.1-2.51,0-1.58-1.25-1.92-9.68-2.34-1.63-.08-4.55-.29-6.51-.41-9.23-.55-12.82-2.67-12.82-6.85,0-4.59,5.34-7.18,16-7.18s15.57,1.59,17.33,5.89a6.68,6.68,0,0,1,.37,1.83h-6.3a2.5,2.5,0,0,0-.38-.87c-1-1.09-3.84-1.8-10.6-1.8-9.19,0-10.36.88-10.36,2.17s1,1.67,9,2.09c2,.13,5,.29,7,.38,9.73.37,13.07,2.5,13.07,7C603.49,88.48,598.81,91.11,586.25,91.11Z" class="cls-1"/><path data-cppathid="10039" d="M611,64.51V57.92h6.73v6.59Zm.67,26.09c-.37-.08-.54-1.12-.54-3.46V67.64h6.51V87.1c0,2.59,0,3.17.59,3.5Z" class="cls-1"/><path data-cppathid="10040" d="M656,90.6c-.3,0-.46-1.37-.46-11.18,0-4.55-3.09-6.89-9.9-6.89-5.8,0-11.1,2.71-11.1,6.93V90.6h-6.43v-23h6.22V73c2.09-4.47,8.18-6,14.07-6,9.93,0,13.61,4.89,13.61,11.36,0,11.65.12,11.86.33,12.31Z" class="cls-1"/><path data-cppathid="10041" d="M681.08,73.28V90.6h-6.47V73.28h-7.22V68h7.22V65.89c0-5,3.17-8.73,11.1-8.73,2,0,6.56.17,7.64.34v5.38a63.69,63.69,0,0,0-7.05-.37c-4.22,0-5.35,1.5-5.35,3.76V68h12.49v5.3Z" class="cls-1"/><path data-cppathid="10042" d="M733.22,86c-2.55,2.63-7.89,5.18-17.45,5.18-8.77,0-15.16-1.92-18-6.26A10.79,10.79,0,0,1,696,78.83a9.85,9.85,0,0,1,1.79-5.63c3-4,9.52-6.35,17.91-6.35,10.31,0,17.24,3.59,18.87,10a21.57,21.57,0,0,1,.59,4.38H702.45a4.12,4.12,0,0,0,1.88,2.38c2,1.71,5.88,2.8,11.81,2.8a25.9,25.9,0,0,0,9.48-1.46,6.83,6.83,0,0,0,2-1.51h7.1A7.06,7.06,0,0,1,733.22,86Zm-5.93-11.31c-1.55-1.63-5.6-2.93-11.73-2.93-5.85,0-10.48,1.26-12.11,3.14a3.64,3.64,0,0,0-1,2.17h26.17A3.41,3.41,0,0,0,727.29,74.66Z" class="cls-1"/><path data-cppathid="10043" d="M770.87,76.83c-.8-3-4.72-4.59-12.2-4.59-5.92,0-10.22,1.25-12.31,3.67a5,5,0,0,0-1.13,3.26,5.17,5.17,0,0,0,1.17,3.29c1.88,2.34,6.51,3.47,12.32,3.47s9-.84,10.64-2.17a5.76,5.76,0,0,0,1.46-1.84h6.52A9.41,9.41,0,0,1,775.42,86c-2.72,3.09-7.94,5.1-16.75,5.1-9.14,0-15.27-2.26-18-5.89A10,10,0,0,1,738.72,79a9.51,9.51,0,0,1,2-6c3-3.8,9.23-6.18,18-6.18,9,0,14.49,2.26,17,6a10,10,0,0,1,1.5,3.93Z" class="cls-1"/><path data-cppathid="10044" d="M813.9,76.83c-.79-3-4.72-4.59-12.19-4.59-5.93,0-10.23,1.25-12.32,3.67a5,5,0,0,0-1.12,3.26,5.17,5.17,0,0,0,1.17,3.29c1.87,2.34,6.51,3.47,12.31,3.47s9-.84,10.65-2.17a5.9,5.9,0,0,0,1.46-1.84h6.51A9.41,9.41,0,0,1,818.45,86c-2.71,3.09-7.93,5.1-16.74,5.1-9.14,0-15.28-2.26-18-5.89A10,10,0,0,1,781.75,79a9.46,9.46,0,0,1,2-6c3-3.8,9.22-6.18,18-6.18,9,0,14.49,2.26,17,6a9.89,9.89,0,0,1,1.5,3.93Z" class="cls-1"/><path data-cppathid="10045" d="M827.92,64.51V57.92h6.72v6.59Zm.67,26.09c-.38-.08-.55-1.12-.55-3.46V67.64h6.52V87.1c0,2.59,0,3.17.58,3.5Z" class="cls-1"/><path data-cppathid="10046" d="M880.73,84.51c-2.84,4.09-8.94,6.6-18.37,6.6-8.89,0-15.2-2.51-18.16-6.52A10.14,10.14,0,0,1,842.36,79a8.86,8.86,0,0,1,1.75-5.39c3-4.09,9.06-6.72,18.25-6.72,9.52,0,15.36,2.92,18.2,6.6a9.19,9.19,0,0,1,.17,11Zm-6.27-8.81c-2.08-2-6.26-3.46-12.1-3.46s-9.77,1.33-12.15,3.5a4.79,4.79,0,0,0,0,6.6c1.92,2.13,6.3,3.59,12.11,3.59,6.13,0,10.18-1.34,12.23-3.63A5,5,0,0,0,875.93,79,4.29,4.29,0,0,0,874.46,75.7ZM864.15,58.17h6.77l-6.39,7.22h-6Z" class="cls-1"/><path data-cppathid="10047" d="M917.41,90.6c-.29,0-.45-1.37-.45-11.18,0-4.55-3.09-6.89-9.9-6.89-5.8,0-11.1,2.71-11.1,6.93V90.6h-6.43v-23h6.22V73c2.08-4.47,8.18-6,14.07-6,9.93,0,13.61,4.89,13.61,11.36,0,11.65.12,11.86.33,12.31Z" class="cls-1"/></svg>