<?xml version="1.0" encoding="UTF-8"?>
<svg xmlns="http://www.w3.org/2000/svg" onmouseup="{ if(window.parent.document.onmouseup) window.parent.document.onmouseup(arguments[0]);}" viewBox="0 0 833.1 96.69" data-name="Capa 1" id="Capa_1"><defs><style>.cls-1{fill:#fff;}</style></defs><path data-cppathid="10000" d="M18.19,65H10.88L32.59,32.41h7.68L61.48,65H53.92L49,57.75H23.15Zm20-24.3L36.22,37.5l-2,3.22L26.62,51.86h19Z" class="cls-1"/><path data-cppathid="10001" d="M95.41,51.24c-.79-3-4.72-4.59-12.19-4.59-5.93,0-10.23,1.25-12.31,3.67a5,5,0,0,0-1.13,3.26A5.17,5.17,0,0,0,71,56.87c1.88,2.34,6.51,3.47,12.31,3.47s9-.84,10.65-2.17a5.9,5.9,0,0,0,1.46-1.84h6.51A9.3,9.3,0,0,1,100,60.42c-2.71,3.09-7.93,5.1-16.74,5.1-9.14,0-15.28-2.26-18-5.89a10,10,0,0,1-1.92-6.18,9.51,9.51,0,0,1,2-6c3-3.8,9.22-6.18,18-6.18,9,0,14.49,2.26,17,6a10.06,10.06,0,0,1,1.51,3.93Z" class="cls-1"/><path data-cppathid="10002" d="M138.45,51.24c-.8-3-4.72-4.59-12.19-4.59-5.93,0-10.23,1.25-12.32,3.67a5,5,0,0,0-1.13,3.26A5.17,5.17,0,0,0,114,56.87c1.88,2.34,6.51,3.47,12.32,3.47s9-.84,10.64-2.17a5.76,5.76,0,0,0,1.46-1.84h6.52A9.41,9.41,0,0,1,143,60.42c-2.72,3.09-7.93,5.1-16.74,5.1-9.15,0-15.28-2.26-18-5.89a10,10,0,0,1-1.92-6.18,9.51,9.51,0,0,1,2-6c3-3.8,9.23-6.18,18-6.18,9,0,14.48,2.26,17,6a10,10,0,0,1,1.5,3.93Z" class="cls-1"/><path data-cppathid="10003" d="M152.47,38.92V32.33h6.72v6.59Zm.66,26.1c-.37-.09-.54-1.13-.54-3.47V42.05h6.51V61.51c0,2.59.05,3.17.59,3.51Z" class="cls-1"/><path data-cppathid="10004" d="M205.27,58.92c-2.84,4.09-8.93,6.6-18.37,6.6C178,65.52,171.71,63,168.74,59a10.2,10.2,0,0,1-1.83-5.59A8.86,8.86,0,0,1,168.66,48c3-4.09,9.06-6.72,18.24-6.72,9.52,0,15.37,2.92,18.21,6.6a9.17,9.17,0,0,1,.16,11ZM199,50.11c-2.09-2-6.26-3.46-12.11-3.46s-9.76,1.33-12.14,3.5a4.79,4.79,0,0,0,0,6.6c1.92,2.13,6.3,3.59,12.1,3.59,6.14,0,10.19-1.34,12.24-3.63a5,5,0,0,0,1.33-3.26A4.28,4.28,0,0,0,199,50.11Z" class="cls-1"/><path data-cppathid="10005" d="M242,65c-.29,0-.46-1.38-.46-11.19,0-4.55-3.09-6.89-9.89-6.89-5.81,0-11.11,2.71-11.11,6.93V65h-6.43v-23h6.22v5.31c2.09-4.47,8.19-6,14.07-6,9.94,0,13.61,4.89,13.61,11.36,0,11.65.13,11.86.34,12.32Z" class="cls-1"/><path data-cppathid="10006" d="M292,60.38c-2.55,2.63-7.89,5.18-17.45,5.18-8.77,0-15.16-1.92-18-6.26a10.79,10.79,0,0,1-1.75-6.06,9.78,9.78,0,0,1,1.8-5.63c3-4,9.51-6.35,17.9-6.35,10.32,0,17.25,3.59,18.87,10a21.57,21.57,0,0,1,.59,4.38H261.24A4.12,4.12,0,0,0,263.12,58c2,1.71,5.89,2.8,11.81,2.8a25.86,25.86,0,0,0,9.48-1.46,6.66,6.66,0,0,0,2-1.51h7.1A7.06,7.06,0,0,1,292,60.38Zm-5.93-11.31c-1.54-1.63-5.59-2.93-11.73-2.93-5.85,0-10.48,1.26-12.11,3.14a3.7,3.7,0,0,0-1,2.17h26.18A3.43,3.43,0,0,0,286.08,49.07Z" class="cls-1"/><path data-cppathid="10007" d="M315.63,65.52c-12.32,0-16.78-1.84-18.16-6.43a5.45,5.45,0,0,1-.29-1.55h6.3a2,2,0,0,0,.46,1.25c1,1.13,4.05,1.76,11.73,1.76,9.73,0,11.11-1.09,11.11-2.51,0-1.58-1.26-1.92-9.69-2.33-1.63-.09-4.55-.3-6.51-.42-9.23-.55-12.82-2.67-12.82-6.85,0-4.59,5.35-7.18,16-7.18s15.57,1.59,17.33,5.89a6.68,6.68,0,0,1,.37,1.83h-6.3a2.42,2.42,0,0,0-.38-.87c-1-1.09-3.84-1.8-10.6-1.8-9.18,0-10.35.88-10.35,2.17s1,1.67,9,2.09c2,.13,5,.29,7,.38,9.73.37,13.07,2.5,13.07,7C332.87,62.89,328.2,65.52,315.63,65.52Z" class="cls-1"/><path data-cppathid="10008" d="M388.05,51.24c-.79-3-4.72-4.59-12.19-4.59-5.93,0-10.23,1.25-12.31,3.67a5,5,0,0,0-1.13,3.26,5.17,5.17,0,0,0,1.17,3.29c1.88,2.34,6.51,3.47,12.31,3.47s9-.84,10.65-2.17A5.9,5.9,0,0,0,388,56.33h6.51a9.3,9.3,0,0,1-1.92,4.09c-2.71,3.09-7.93,5.1-16.74,5.1-9.14,0-15.28-2.26-18-5.89a10,10,0,0,1-1.92-6.18,9.51,9.51,0,0,1,2-6c3-3.8,9.22-6.18,18-6.18,9,0,14.49,2.26,17,6a10.06,10.06,0,0,1,1.51,3.93Z" class="cls-1"/><path data-cppathid="10009" d="M437.31,58.92c-2.84,4.09-8.94,6.6-18.37,6.6-8.9,0-15.2-2.51-18.16-6.52a10.14,10.14,0,0,1-1.84-5.59A8.86,8.86,0,0,1,400.69,48c3-4.09,9.06-6.72,18.25-6.72,9.52,0,15.36,2.92,18.2,6.6a9.19,9.19,0,0,1,.17,11ZM431,50.11c-2.08-2-6.26-3.46-12.1-3.46s-9.77,1.33-12.15,3.5a4.79,4.79,0,0,0,0,6.6c1.92,2.13,6.3,3.59,12.11,3.59,6.13,0,10.18-1.34,12.23-3.63a5,5,0,0,0,1.34-3.26A4.29,4.29,0,0,0,431,50.11Z" class="cls-1"/><path data-cppathid="10010" d="M470.9,48.23a38.34,38.34,0,0,0-7.34-.67c-5.64,0-11,3-11,9.15V65h-6.47v-23h6.26v5.89c1.13-3.21,5.55-5.8,11.06-6.14a33.91,33.91,0,0,1,7.47.21Z" class="cls-1"/><path data-cppathid="10011" d="M501.08,48.23a38.42,38.42,0,0,0-7.34-.67c-5.64,0-11,3-11,9.15V65h-6.48v-23h6.27v5.89c1.12-3.21,5.55-5.8,11.06-6.14a33.91,33.91,0,0,1,7.47.21Z" class="cls-1"/><path data-cppathid="10012" d="M540.61,60.38c-2.54,2.63-7.89,5.18-17.45,5.18-8.77,0-15.15-1.92-18-6.26a10.73,10.73,0,0,1-1.76-6.06,9.78,9.78,0,0,1,1.8-5.63c3-4,9.52-6.35,17.91-6.35,10.31,0,17.24,3.59,18.87,10a22.28,22.28,0,0,1,.58,4.38H509.84A4.12,4.12,0,0,0,511.72,58c2,1.71,5.89,2.8,11.82,2.8A25.83,25.83,0,0,0,533,59.34a6.84,6.84,0,0,0,2-1.51h7.09A6.92,6.92,0,0,1,540.61,60.38Zm-5.93-11.31c-1.54-1.63-5.59-2.93-11.73-2.93-5.84,0-10.48,1.26-12.1,3.14a3.71,3.71,0,0,0-1,2.17H536A3.39,3.39,0,0,0,534.68,49.07Z" class="cls-1"/><path data-cppathid="10013" d="M578.26,51.24c-.79-3-4.72-4.59-12.19-4.59-5.93,0-10.23,1.25-12.32,3.67a5,5,0,0,0-1.12,3.26,5.17,5.17,0,0,0,1.17,3.29c1.88,2.34,6.51,3.47,12.31,3.47s9-.84,10.65-2.17a5.9,5.9,0,0,0,1.46-1.84h6.51a9.3,9.3,0,0,1-1.92,4.09c-2.71,3.09-7.93,5.1-16.74,5.1-9.14,0-15.28-2.26-18-5.89a10,10,0,0,1-1.92-6.18,9.46,9.46,0,0,1,2-6c3-3.8,9.22-6.18,18-6.18,9,0,14.49,2.26,17,6a10.06,10.06,0,0,1,1.51,3.93Z" class="cls-1"/><path data-cppathid="10014" d="M600.67,47.69v8.39c0,3.05,1.34,4.18,5,4.18a42.2,42.2,0,0,0,6.05-.51v4.93a34.46,34.46,0,0,1-8.05.84c-5.6,0-9.44-1.8-9.44-8.1V47.69h-7.05v-5.3h7.05c.17-1.55.17-5.89.17-5.89l6.22-.17v6.06h11.35v5.3Z" class="cls-1"/><path data-cppathid="10015" d="M619.2,38.92V32.33h6.72v6.59Zm.67,26.1c-.38-.09-.54-1.13-.54-3.47V42.05h6.51V61.51c0,2.59,0,3.17.58,3.51Z" class="cls-1"/><path data-cppathid="10016" d="M654.6,65H647l-16.41-23h7L650.8,60,664,42.05h6.81Z" class="cls-1"/><path data-cppathid="10017" d="M701,65a16.24,16.24,0,0,1-.38-2.63c-1.5,1.54-6.55,3.13-15.2,3.13-9.31,0-14.48-2.09-14.48-6.77v-.62c0-5,5-7.52,18.12-7.56,3.21,0,8.76.33,11.64.63a4.24,4.24,0,0,0-.66-2.43c-1-1.33-4-2.46-10.48-2.46-5.89,0-8.81.71-10,1.88a2.5,2.5,0,0,0-.54,1.38h-6.39a7.16,7.16,0,0,1,.38-1.8c1.46-4,6.59-6.47,16.23-6.47,10.9,0,15.79,2.42,17,7.56a23.93,23.93,0,0,1,.37,4.84c0,.84-.08,3.88-.08,5.76a18.3,18.3,0,0,0,.71,5.56ZM688.49,54.87c-6.13,0-9,.71-10.27,1.84a2,2,0,0,0-.54,1.37,1.45,1.45,0,0,0,.34,1.09c1,1.13,3.71,1.75,8.22,1.75,8.81,0,14.44-1,14.44-5.55C697.93,55.12,693,54.87,688.49,54.87Z" class="cls-1"/><path data-cppathid="10018" d="M731.15,65.52c-12.31,0-16.78-1.84-18.16-6.43a5.45,5.45,0,0,1-.29-1.55H719a2,2,0,0,0,.46,1.25c1,1.13,4,1.76,11.73,1.76,9.73,0,11.11-1.09,11.11-2.51,0-1.58-1.25-1.92-9.69-2.33-1.63-.09-4.55-.3-6.51-.42-9.23-.55-12.82-2.67-12.82-6.85,0-4.59,5.35-7.18,16-7.18s15.58,1.59,17.33,5.89A6.78,6.78,0,0,1,747,49h-6.31a2.56,2.56,0,0,0-.37-.87c-1-1.09-3.84-1.8-10.61-1.8-9.18,0-10.35.88-10.35,2.17s1,1.67,9,2.09c2,.13,5,.29,7,.38,9.72.37,13.06,2.5,13.06,7C748.39,62.89,743.72,65.52,731.15,65.52Z" class="cls-1"/></svg>