<?xml version="1.0" encoding="UTF-8"?>
<svg xmlns="http://www.w3.org/2000/svg" onmouseup="{ if(window.parent.document.onmouseup) window.parent.document.onmouseup(arguments[0]);}" xml:space="preserve" style="enable-background:new 0 0 436 96.7;" viewBox="0 0 436 96.7" y="0px" x="0px" id="Capa_1" version="1.1" xmlns:xlink="http://www.w3.org/1999/xlink"><style type="text/css">
	.st0{fill:#263E7C;}
</style><path data-cppathid="10000" d="M53.3,32.5c-2.1,2.9-5.8,4.1-11.3,4.1c-0.8,0-18,0-18,0v8.1h-6.2V15H42c5.5,0,9.2,1.3,11,3.6  c1.3,1.6,2.1,4,2.1,7.3C55.1,28.7,54.4,30.9,53.3,32.5z M48.2,22.7c-1-1.5-3.3-2.4-7.3-2.4H23.9v10.7h16.9c4.2,0,6.4-0.8,7.4-2.3  c0.5-0.8,0.6-1.8,0.6-3C48.8,24.6,48.6,23.4,48.2,22.7z" class="st0"/><path data-cppathid="10001" d="M84.5,29.5c-2.1-0.4-4.1-0.6-6.7-0.6c-5.1,0-10,2.8-10,8.3v7.6H62V23.8h5.7v5.4c1-2.9,5.1-5.3,10.1-5.6  c3.1-0.2,5,0,6.8,0.2V29.5z" class="st0"/><path data-cppathid="10002" d="M121.5,39.2c-2.6,3.7-8.1,6-16.7,6c-8.1,0-13.8-2.3-16.5-5.9c-1-1.6-1.7-3.2-1.7-5.1c0-1.7,0.5-3.5,1.6-4.9  c2.7-3.7,8.3-6.1,16.6-6.1c8.7,0,14,2.7,16.6,6c1.2,1.5,1.8,3.3,1.8,5C123.1,36,122.6,37.9,121.5,39.2z M115.8,31.2  c-1.9-1.9-5.7-3.2-11-3.2c-5.4,0-8.9,1.2-11.1,3.2c-0.8,0.8-1.2,2-1.2,3c0,1.1,0.4,2.1,1.2,3c1.8,1.9,5.7,3.3,11,3.3  c5.6,0,9.3-1.2,11.1-3.3c0.8-0.9,1.2-1.9,1.2-3C117.2,33.1,116.8,32,115.8,31.2z" class="st0"/><path data-cppathid="10003" d="M153.3,24.9c1.7-1.4,6.3-1.7,8.4-1.3v4.1c-2.3,0-4.9,0.2-5.6,0.6c0.6,0.5,1.3,1.5,1.6,2.6  c0.1,0.7,0.1,1.7-0.1,2.4c-0.8,3.5-4.6,5.8-14.2,5.8c-3.8,0-8-0.7-9.2-1.2c-0.7,0.1-1.1,0.6-1.1,1.2c0,0.9,0.8,1.4,11.9,1.4  c12.3,0,16,1.3,16,5.4c0,4.6-5.9,6.7-18,6.7c-13,0-16.8-2.5-16.8-5.5c0-2.3,2.7-3.5,4.9-3.8c-1.8-0.7-3.1-1.9-3.1-3.5  c0-1.5,1.3-3.2,3.6-3.2c-2.2-0.8-3.7-2.5-4.1-5c-0.1-0.5-0.1-1.3,0-1.8c0.6-3.7,5.2-6.7,14.8-6.7C147.3,23,151.1,23.8,153.3,24.9z   M154.9,46.2c0-1.4-1.3-1.4-10.3-1.7c-3.7-0.1-8.6,0-10.9-0.1c-1.1,0.2-1.9,0.6-1.9,1.6c0,1.1,1.8,2.2,10.8,2.2  C152.8,48.3,154.9,47.4,154.9,46.2z M133.2,30.7c0,0.3-0.1,0.6,0,1c0.2,2.2,3.3,3.3,9.3,3.3c6.7,0,9.2-1.3,9.5-3.4  c0-0.2,0-0.8,0-1.1c-0.4-1.9-3-3.2-9.3-3.2C136.5,27.3,133.5,28.5,133.2,30.7z" class="st0"/><path data-cppathid="10004" d="M188.2,29.5c-2.1-0.4-4.1-0.6-6.7-0.6c-5.1,0-10,2.8-10,8.3v7.6h-5.9V23.8h5.7v5.4c1-2.9,5.1-5.3,10.1-5.6  c3.1-0.2,5,0,6.8,0.2V29.5z" class="st0"/><path data-cppathid="10005" d="M217.2,44.8c0,0-0.4-1.8-0.3-2.4c-1.4,1.4-6,2.9-13.8,2.9c-8.5,0-13.2-1.9-13.2-6.2c0-0.2,0-0.3,0-0.6  c0-4.5,4.6-6.8,16.5-6.9c2.9,0,8,0.3,10.6,0.6c0-0.6-0.1-1.5-0.6-2.2c-1-1.2-3.7-2.2-9.5-2.2c-5.4,0-8,0.6-9.1,1.7  c-0.3,0.3-0.5,0.8-0.5,1.3h-5.8c0-0.4,0.2-1.2,0.3-1.6c1.3-3.7,6-5.9,14.8-5.9c9.9,0,14.4,2.2,15.5,6.9c0.2,1,0.4,2.9,0.3,4.4  c0,0.8-0.1,3.5-0.1,5.2c0,2.1,0.3,4.3,0.6,5.1H217.2z M205.8,35.5c-5.6,0-8.2,0.6-9.4,1.7c-0.3,0.3-0.5,0.8-0.5,1.3  c0,0.3,0,0.7,0.3,1c0.9,1,3.4,1.6,7.5,1.6c8,0,13.2-0.9,13.2-5.1C214.4,35.7,209.9,35.5,205.8,35.5z" class="st0"/><path data-cppathid="10006" d="M275.2,34.6c0-3.4-1.6-6.3-8.1-6.3c-4.5,0-8.5,1.9-8.5,6.3v10.2h-5.4c0-0.7,0-6.4,0-10.7c0-3.6-3.2-5.8-7.9-5.8  c-5.3,0-8.7,3-8.7,6.2v10.3h-5.9V23.8h5.7v4.8c1.5-3.6,6.3-5.4,10.9-5.4c4.8,0,9.1,1.6,10.5,5.4c1.6-3.6,5.5-5.4,11.1-5.4  c8.6,0,11.5,4.2,11.5,10.2c0,10.7,0,10.9,0.4,11.2h-5.1C275.2,44.8,275.2,42.5,275.2,34.6z" class="st0"/><path data-cppathid="10007" d="M314.2,44.8c0,0-0.4-1.8-0.3-2.4c-1.4,1.4-6,2.9-13.8,2.9c-8.5,0-13.2-1.9-13.2-6.2c0-0.2,0-0.3,0-0.6  c0-4.5,4.6-6.8,16.5-6.9c2.9,0,8,0.3,10.6,0.6c0-0.6-0.1-1.5-0.6-2.2c-1-1.2-3.7-2.2-9.5-2.2c-5.4,0-8,0.6-9.1,1.7  c-0.3,0.3-0.5,0.8-0.5,1.3h-5.8c0-0.4,0.2-1.2,0.3-1.6c1.3-3.7,6-5.9,14.8-5.9c9.9,0,14.4,2.2,15.5,6.9c0.2,1,0.4,2.9,0.3,4.4  c0,0.8-0.1,3.5-0.1,5.2c0,2.1,0.3,4.3,0.6,5.1H314.2z M302.8,35.5c-5.6,0-8.2,0.6-9.4,1.7c-0.3,0.3-0.5,0.8-0.5,1.3  c0,0.3,0,0.7,0.3,1c0.9,1,3.4,1.6,7.5,1.6c8,0,13.2-0.9,13.2-5.1C311.4,35.7,306.9,35.5,302.8,35.5z" class="st0"/><path data-cppathid="10008" d="M371.5,27.2V14.8h5.8c0,0,0,23.1,0,27.5c0,1,0.2,2.5,0.2,2.5h-5.7l-0.2-3.9c-1.8,2.8-7.2,4.3-12.8,4.3  c-7.7,0-12.6-1.9-15-5.3c-1.1-1.6-1.8-3.4-1.8-5.6c0-2.2,0.6-4.1,1.7-5.7c2.3-3.5,7-5.4,14.3-5.4C364.4,23.1,369.4,24.4,371.5,27.2z   M349.2,31.1c-0.8,1-1.1,2-1.1,3.2s0.4,2.3,1.1,3.2c1.8,2.1,5.6,3,11,3c5.6,0,9.1-1.1,10.6-3.3c0.6-0.8,0.8-1.8,0.8-2.9  c0-1.3-0.3-2.3-1.2-3.3c-1.8-2-5.4-3-10.7-3C354.4,28,350.8,29.1,349.2,31.1z" class="st0"/><path data-cppathid="10009" d="M417.5,40.5c-2.3,2.4-7.2,4.7-15.9,4.7c-8,0-13.8-1.8-16.4-5.7c-1.2-2-1.6-3.6-1.6-5.5c0-1.9,0.6-3.7,1.6-5.1  c2.7-3.7,8.7-5.8,16.3-5.8c9.4,0,15.7,3.3,17.2,9.1c0.3,0.7,0.5,3.2,0.5,4h-29.8c0.2,0.9,0.8,1.6,1.7,2.2c1.8,1.6,5.4,2.5,10.8,2.5  c4.2,0,7.1-0.7,8.6-1.3c0.6-0.3,1.4-0.9,1.8-1.4h6.5C418.6,38.9,418.2,39.8,417.5,40.5z M412.1,30.2c-1.4-1.5-5.1-2.7-10.7-2.7  c-5.3,0-9.5,1.1-11,2.9c-0.6,0.7-0.8,1.2-0.9,2h23.9C413.3,31.7,412.9,30.8,412.1,30.2z" class="st0"/><path data-cppathid="10010" d="M35.8,82.2c-11.2,0-15.3-1.7-16.5-5.9c-0.2-0.4-0.3-1.1-0.3-1.4h5.7c0,0.3,0.1,0.8,0.4,1.1  c0.9,1,3.7,1.6,10.7,1.6c8.9,0,10.1-1,10.1-2.3c0-1.4-1.1-1.8-8.8-2.1c-1.5-0.1-4.1-0.3-5.9-0.4c-8.4-0.5-11.7-2.4-11.7-6.2  c0-4.2,4.9-6.5,14.6-6.5c9.8,0,14.2,1.4,15.8,5.4c0.2,0.6,0.3,1.4,0.3,1.7h-5.7c0-0.2-0.2-0.5-0.3-0.8c-0.9-1-3.5-1.6-9.7-1.6  c-8.4,0-9.4,0.8-9.4,2c0,1.2,0.9,1.5,8.2,1.9c1.8,0.1,4.6,0.3,6.4,0.3c8.9,0.3,11.9,2.3,11.9,6.4C51.5,79.8,47.2,82.2,35.8,82.2z" class="st0"/><path data-cppathid="10011" d="M83,81.8c0,0-0.4-1.8-0.3-2.4c-1.4,1.4-6,2.9-13.8,2.9c-8.5,0-13.2-1.9-13.2-6.2c0-0.2,0-0.3,0-0.6  c0-4.5,4.6-6.8,16.5-6.9c2.9,0,8,0.3,10.6,0.6c0-0.6-0.1-1.5-0.6-2.2c-1-1.2-3.7-2.2-9.5-2.2c-5.4,0-8,0.6-9.1,1.7  c-0.3,0.3-0.5,0.8-0.5,1.3h-5.8c0-0.4,0.2-1.2,0.3-1.6c1.3-3.7,6-5.9,14.8-5.9c9.9,0,14.4,2.2,15.5,6.9c0.2,1,0.4,2.9,0.3,4.4  c0,0.8-0.1,3.5-0.1,5.2c0,2.1,0.3,4.3,0.6,5.1H83z M71.6,72.5c-5.6,0-8.2,0.6-9.4,1.7c-0.3,0.3-0.5,0.8-0.5,1.3c0,0.3,0,0.7,0.3,1  c0.9,1,3.4,1.6,7.5,1.6c8,0,13.2-0.9,13.2-5.1C80.2,72.8,75.7,72.5,71.6,72.5z" class="st0"/><path data-cppathid="10012" d="M121.8,81.8c-0.3,0-0.4-1.3-0.4-10.2c0-4.1-2.8-6.3-9-6.3c-5.3,0-10.1,2.5-10.1,6.3v10.2h-5.9V60.9h5.7v4.8  c1.9-4.1,7.5-5.5,12.8-5.5c9.1,0,12.4,4.5,12.4,10.3c0,10.6,0.1,10.8,0.3,11.2H121.8z" class="st0"/><path data-cppathid="10013" d="M167.5,77.6c-2.3,2.4-7.2,4.7-15.9,4.7c-8,0-13.8-1.8-16.4-5.7c-1.2-2-1.6-3.6-1.6-5.5c0-1.9,0.6-3.7,1.6-5.1  c2.7-3.7,8.7-5.8,16.3-5.8c9.4,0,15.7,3.3,17.2,9.1c0.3,0.7,0.5,3.2,0.5,4h-29.8c0.2,0.9,0.8,1.6,1.7,2.2c1.8,1.6,5.4,2.5,10.8,2.5  c4.2,0,7.1-0.7,8.6-1.3c0.6-0.3,1.4-0.9,1.8-1.4h6.5C168.6,76,168.2,76.8,167.5,77.6z M162.1,67.2c-1.4-1.5-5.1-2.7-10.7-2.7  c-5.3,0-9.5,1.1-11,2.9c-0.6,0.7-0.8,1.2-0.9,2h23.9C163.2,68.7,162.8,67.9,162.1,67.2z" class="st0"/><path data-cppathid="10014" d="M200,81.8c0,0-0.4-1.8-0.3-2.4c-1.4,1.4-6,2.9-13.8,2.9c-8.5,0-13.2-1.9-13.2-6.2c0-0.2,0-0.3,0-0.6  c0-4.5,4.6-6.8,16.5-6.9c2.9,0,8,0.3,10.6,0.6c0-0.6-0.1-1.5-0.6-2.2c-1-1.2-3.7-2.2-9.5-2.2c-5.4,0-8,0.6-9.1,1.7  c-0.3,0.3-0.5,0.8-0.5,1.3h-5.8c0-0.4,0.2-1.2,0.3-1.6c1.3-3.7,6-5.9,14.8-5.9c9.9,0,14.4,2.2,15.5,6.9c0.2,1,0.4,2.9,0.3,4.4  c0,0.8-0.1,3.5-0.1,5.2c0,2.1,0.3,4.3,0.6,5.1H200z M188.7,72.5c-5.6,0-8.2,0.6-9.4,1.7c-0.3,0.3-0.5,0.8-0.5,1.3c0,0.3,0,0.7,0.3,1  c0.9,1,3.4,1.6,7.5,1.6c8,0,13.2-0.9,13.2-5.1C197.3,72.8,192.7,72.5,188.7,72.5z" class="st0"/><path data-cppathid="10015" d="M258,71.6c0-3.4-1.6-6.3-8.1-6.3c-4.5,0-8.5,1.9-8.5,6.3v10.2H236c0-0.7,0-6.4,0-10.7c0-3.6-3.2-5.8-7.9-5.8  c-5.3,0-8.7,3-8.7,6.2v10.3h-5.9V60.9h5.7v4.8c1.5-3.6,6.3-5.4,10.9-5.4c4.8,0,9.1,1.6,10.5,5.4c1.6-3.6,5.5-5.4,11.1-5.4  c8.6,0,11.5,4.2,11.5,10.2c0,10.7,0,10.9,0.4,11.2h-5.1C258,81.8,258,79.5,258,71.6z" class="st0"/><path data-cppathid="10016" d="M272.3,58v-6h6.1v6H272.3z M272.9,81.8c-0.3-0.1-0.5-1-0.5-3.2c0-5.4,0-17.8,0-17.8h5.9c0,0,0,13.6,0,17.7  c0,2.4,0,2.9,0.5,3.2H272.9z" class="st0"/><path data-cppathid="10017" d="M319.5,77.6c-2.3,2.4-7.2,4.7-15.9,4.7c-8,0-13.8-1.8-16.4-5.7c-1.2-2-1.6-3.6-1.6-5.5c0-1.9,0.6-3.7,1.6-5.1  c2.7-3.7,8.7-5.8,16.3-5.8c9.4,0,15.7,3.3,17.2,9.1c0.3,0.7,0.5,3.2,0.5,4h-29.8c0.2,0.9,0.8,1.6,1.7,2.2c1.8,1.6,5.4,2.5,10.8,2.5  c4.2,0,7.1-0.7,8.6-1.3c0.6-0.3,1.4-0.9,1.8-1.4h6.5C320.6,76,320.2,76.8,319.5,77.6z M314.1,67.2c-1.4-1.5-5.1-2.7-10.7-2.7  c-5.3,0-9.5,1.1-11,2.9c-0.6,0.7-0.8,1.2-0.9,2h23.9C315.2,68.7,314.8,67.9,314.1,67.2z" class="st0"/><path data-cppathid="10018" d="M352.4,81.8c-0.3,0-0.4-1.3-0.4-10.2c0-4.1-2.8-6.3-9-6.3c-5.3,0-10.1,2.5-10.1,6.3v10.2H327V60.9h5.7v4.8  c1.9-4.1,7.5-5.5,12.8-5.5c9.1,0,12.4,4.5,12.4,10.3c0,10.6,0.1,10.8,0.3,11.2H352.4z" class="st0"/><path data-cppathid="10019" d="M374.5,66c0,0,0,7.5,0,7.6c0,2.8,1.2,3.8,4.5,3.8c1.4,0,4.5-0.2,5.5-0.5v4.5c-1.3,0.4-4.3,0.8-7.3,0.8  c-5.1,0-8.6-1.6-8.6-7.4c0-0.4,0-8.9,0-8.9h-6.4v-4.8h6.4c0.2-1.4,0.2-5.4,0.2-5.4l5.7-0.2c0,0,0,4.2,0,5.5h10.3V66H374.5z" class="st0"/><path data-cppathid="10020" d="M423.5,76.2c-2.6,3.7-8.1,6-16.7,6c-8.1,0-13.8-2.3-16.5-5.9c-1-1.6-1.7-3.2-1.7-5.1c0-1.7,0.5-3.5,1.6-4.9  c2.7-3.7,8.3-6.1,16.6-6.1c8.7,0,14,2.7,16.6,6c1.2,1.5,1.8,3.3,1.8,5C425.1,73,424.5,74.9,423.5,76.2z M417.8,68.2  c-1.9-1.9-5.7-3.2-11-3.2c-5.4,0-8.9,1.2-11.1,3.2c-0.8,0.8-1.2,2-1.2,3c0,1.1,0.4,2.1,1.2,3c1.8,1.9,5.7,3.3,11,3.3  c5.6,0,9.3-1.2,11.1-3.3c0.8-0.9,1.2-1.9,1.2-3C419.1,70.2,418.8,69.1,417.8,68.2z" class="st0"/></svg>