<?xml version="1.0" encoding="UTF-8"?>
<svg xmlns="http://www.w3.org/2000/svg" onmouseup="{ if(window.parent.document.onmouseup) window.parent.document.onmouseup(arguments[0]);}" viewBox="0 0 341.78 96.69" data-name="Capa 1" id="Capa_1"><defs><style>.cls-1{fill:#fff;}</style></defs><path data-cppathid="10000" d="M53.54,38.52a9,9,0,0,1-6.6,3.92l12,14.07H51.11L39.84,43.28H21.35V56.51H14.59V23.91H41.81c5.63,0,9.35,1.5,11.27,3.71a8.19,8.19,0,0,1,1.79,5.52A9.81,9.81,0,0,1,53.54,38.52Zm-6.06-6.93c-1-1.17-2.54-1.75-5.84-1.75H21.35v7.55H42.47c3,0,4.39-.5,5.1-1.58a3.72,3.72,0,0,0,.66-2.13A2.9,2.9,0,0,0,47.48,31.59Z" class="cls-1"/><path data-cppathid="10001" d="M99.41,51.88c-2.55,2.63-7.89,5.18-17.45,5.18-8.77,0-15.16-1.92-18-6.27a10.74,10.74,0,0,1-1.75-6A9.91,9.91,0,0,1,64,39.1c3-4,9.52-6.34,17.91-6.34,10.32,0,17.25,3.59,18.87,10a21.57,21.57,0,0,1,.59,4.38H68.64a4.12,4.12,0,0,0,1.88,2.38c2,1.71,5.88,2.8,11.81,2.8a25.86,25.86,0,0,0,9.48-1.46,6.83,6.83,0,0,0,2-1.51h7.1A7.06,7.06,0,0,1,99.41,51.88ZM93.48,40.57c-1.54-1.63-5.59-2.93-11.73-2.93-5.85,0-10.48,1.26-12.11,3.13a3.75,3.75,0,0,0-1,2.18H94.82A3.45,3.45,0,0,0,93.48,40.57Z" class="cls-1"/><path data-cppathid="10002" d="M133.72,34.68c1.83-1.54,6.93-1.84,9.22-1.46v4.47c-2.54,0-5.42.16-6.18.62a5.41,5.41,0,0,1,1.72,2.84,7.33,7.33,0,0,1-.13,2.67c-.92,3.84-5,6.39-15.57,6.39a37.64,37.64,0,0,1-10.15-1.29,1.28,1.28,0,0,0-1.16,1.29c0,1,.87,1.59,13.06,1.59,13.53,0,17.58,1.46,17.58,5.88,0,5-6.43,7.39-19.79,7.39-14.24,0-18.45-2.75-18.45-6,0-2.55,2.92-3.8,5.38-4.17-2-.76-3.38-2-3.38-3.89a3.81,3.81,0,0,1,3.93-3.55A6.55,6.55,0,0,1,105.33,42a6.16,6.16,0,0,1,0-2c.71-4,5.76-7.39,16.2-7.39C127.08,32.59,131.25,33.47,133.72,34.68Zm1.71,23.42c0-1.54-1.46-1.59-11.27-1.84-4-.08-9.48,0-11.94-.12-1.21.17-2.13.71-2.13,1.75,0,1.25,2,2.46,11.81,2.46C133.13,60.35,135.39,59.44,135.43,58.1Zm-23.84-17a4.62,4.62,0,0,0,0,1c.25,2.38,3.67,3.68,10.23,3.68,7.3,0,10.06-1.38,10.39-3.72a6.91,6.91,0,0,0,0-1.25c-.42-2.09-3.3-3.47-10.23-3.47C115.26,37.39,112,38.69,111.59,41.11Z" class="cls-1"/><path data-cppathid="10003" d="M148.07,30.42V23.83h6.72v6.59Zm.67,26.09c-.38-.08-.54-1.12-.54-3.46V33.55h6.51V53c0,2.59,0,3.17.58,3.5Z" class="cls-1"/><path data-cppathid="10004" d="M180.63,57c-12.32,0-16.78-1.83-18.16-6.42a5.45,5.45,0,0,1-.29-1.55h6.3a2,2,0,0,0,.46,1.25c1,1.13,4.05,1.76,11.73,1.76,9.73,0,11.11-1.09,11.11-2.51,0-1.58-1.26-1.92-9.69-2.34-1.63-.08-4.55-.29-6.51-.41-9.23-.55-12.82-2.68-12.82-6.85,0-4.59,5.35-7.18,16-7.18s15.57,1.59,17.33,5.89a6.68,6.68,0,0,1,.37,1.83h-6.3a2.42,2.42,0,0,0-.38-.87c-1-1.09-3.84-1.8-10.6-1.8-9.18,0-10.35.88-10.35,2.17s1,1.67,9,2.09c2,.12,5,.29,7,.37,9.73.38,13.07,2.51,13.07,7.06C197.87,54.39,193.2,57,180.63,57Z" class="cls-1"/><path data-cppathid="10005" d="M213.73,39.19v8.39c0,3.05,1.33,4.17,5,4.17a43.9,43.9,0,0,0,6.05-.5v4.93a34.67,34.67,0,0,1-8.06.83c-5.59,0-9.43-1.79-9.43-8.09V39.19H200.2v-5.3h7.06c.16-1.55.16-5.89.16-5.89l6.23-.17v6.06H225v5.3Z" class="cls-1"/><path data-cppathid="10006" d="M256.64,39.73a38.45,38.45,0,0,0-7.35-.67c-5.63,0-11,3-11,9.15v8.3h-6.47v-23h6.26v5.89c1.13-3.22,5.56-5.8,11.07-6.14a33.91,33.91,0,0,1,7.47.21Z" class="cls-1"/><path data-cppathid="10007" d="M297.21,50.42c-2.84,4.09-8.93,6.59-18.37,6.59-8.89,0-15.19-2.5-18.16-6.51a10.2,10.2,0,0,1-1.83-5.59,8.86,8.86,0,0,1,1.75-5.39c3-4.09,9.06-6.72,18.24-6.72,9.52,0,15.37,2.92,18.21,6.6a9.17,9.17,0,0,1,.16,11ZM291,41.61c-2.09-2-6.26-3.47-12.11-3.47s-9.76,1.34-12.14,3.51a4.79,4.79,0,0,0,0,6.6c1.92,2.13,6.3,3.59,12.1,3.59,6.14,0,10.19-1.34,12.24-3.63A5,5,0,0,0,292.41,45,4.28,4.28,0,0,0,291,41.61Z" class="cls-1"/><path data-cppathid="10008" d="M321.42,57c-12.32,0-16.78-1.83-18.16-6.42A5.45,5.45,0,0,1,303,49h6.3a2,2,0,0,0,.46,1.25c1,1.13,4,1.76,11.73,1.76,9.73,0,11.11-1.09,11.11-2.51,0-1.58-1.26-1.92-9.69-2.34-1.63-.08-4.55-.29-6.51-.41-9.23-.55-12.82-2.68-12.82-6.85,0-4.59,5.34-7.18,16-7.18s15.57,1.59,17.33,5.89a6.68,6.68,0,0,1,.37,1.83H331a2.42,2.42,0,0,0-.38-.87c-1-1.09-3.84-1.8-10.6-1.8-9.19,0-10.35.88-10.35,2.17s1,1.67,9,2.09c2,.12,5,.29,7,.37,9.73.38,13.07,2.51,13.07,7.06C338.66,54.39,334,57,321.42,57Z" class="cls-1"/></svg>