<?xml version="1.0" encoding="UTF-8"?>
<svg xmlns="http://www.w3.org/2000/svg" onmouseup="{ if(window.parent.document.onmouseup) window.parent.document.onmouseup(arguments[0]);}" viewBox="0 0 325.63 96.69" data-name="Capa 1" id="Capa_1"><defs><style>.cls-1{fill:#fff;}</style></defs><path data-cppathid="10000" d="M37,63.73V31.12h38.2v6.06H43.73v7.18H74.5v5.88H43.73v7.39H75.58v6.1Z" class="cls-1"/><path data-cppathid="10001" d="M109.1,40.77h8.22L102.5,51.87l15.2,11.86H109l-10.9-8.56L86.76,63.73H78.54L94,52.08,79.54,40.77h8.68l10.23,8Z" class="cls-1"/><path data-cppathid="10002" d="M149.88,63.73a16.06,16.06,0,0,1-.38-2.63c-1.5,1.54-6.55,3.13-15.19,3.13-9.31,0-14.49-2.09-14.49-6.76v-.63c0-5,5-7.52,18.12-7.56,3.21,0,8.77.34,11.65.63a4.21,4.21,0,0,0-.67-2.42c-1-1.34-4-2.46-10.48-2.46-5.89,0-8.81.71-10,1.87a2.5,2.5,0,0,0-.54,1.38h-6.39a7.09,7.09,0,0,1,.38-1.79c1.46-4,6.59-6.47,16.24-6.47,10.89,0,15.78,2.42,17,7.55a23.93,23.93,0,0,1,.38,4.84c-.05.84-.09,3.89-.09,5.77a18.6,18.6,0,0,0,.71,5.55ZM137.4,53.58c-6.14,0-9,.71-10.27,1.84a2,2,0,0,0-.55,1.38,1.48,1.48,0,0,0,.34,1.08c1,1.13,3.71,1.76,8.22,1.76,8.81,0,14.45-1,14.45-5.56C146.83,53.83,141.86,53.58,137.4,53.58Z" class="cls-1"/><path data-cppathid="10003" d="M213.5,52.58c0-3.76-1.76-6.93-8.94-6.93-5,0-9.31,2.05-9.31,6.93V63.73h-6V52c0-3.93-3.5-6.39-8.68-6.39-5.85,0-9.52,3.3-9.52,6.81V63.73h-6.43v-23h6.22v5.3c1.63-3.93,6.89-5.89,11.94-5.89,5.3,0,10,1.76,11.52,6,1.76-3.92,6.06-6,12.19-6,9.4,0,12.61,4.6,12.61,11.23,0,11.73,0,12,.42,12.32H214C213.5,63.73,213.5,61.27,213.5,52.58Z" class="cls-1"/><path data-cppathid="10004" d="M263.33,59.09c-2.55,2.63-7.89,5.18-17.45,5.18-8.77,0-15.15-1.92-18-6.26a10.76,10.76,0,0,1-1.75-6,9.81,9.81,0,0,1,1.8-5.64c3-4,9.51-6.35,17.91-6.35,10.31,0,17.24,3.59,18.87,10a22.28,22.28,0,0,1,.58,4.38H232.56a4.06,4.06,0,0,0,1.88,2.38c2,1.72,5.89,2.8,11.82,2.8a25.83,25.83,0,0,0,9.47-1.46,6.82,6.82,0,0,0,2-1.5h7.09A7.11,7.11,0,0,1,263.33,59.09ZM257.4,47.78c-1.54-1.63-5.59-2.92-11.73-2.92-5.84,0-10.48,1.25-12.11,3.13a3.76,3.76,0,0,0-1,2.17h26.18A3.41,3.41,0,0,0,257.4,47.78Z" class="cls-1"/><path data-cppathid="10005" d="M299.43,63.73c-.29,0-.45-1.38-.45-11.19,0-4.55-3.09-6.89-9.9-6.89-5.8,0-11.1,2.71-11.1,6.93V63.73h-6.43v-23h6.22v5.3c2.08-4.47,8.18-6,14.07-6,9.93,0,13.61,4.88,13.61,11.35,0,11.65.12,11.86.33,12.32Z" class="cls-1"/></svg>