<?xml version="1.0" encoding="UTF-8"?>
<svg xmlns="http://www.w3.org/2000/svg" onmouseup="{ if(window.parent.document.onmouseup) window.parent.document.onmouseup(arguments[0]);}" viewBox="0 0 1131.56 96.69" data-name="Capa 1" id="Capa_1"><defs><style>.cls-1{fill:#fff;}</style></defs><path data-cppathid="10000" d="M55.59,51.54c-3,5.51-9.65,8.81-21.71,8.81s-19.12-3.63-22.3-8.64a15.85,15.85,0,0,1-2.25-8.23,14.34,14.34,0,0,1,1.92-7.55c3.3-5.39,10.1-9.4,22.25-9.4s18.33,3.55,21.88,9.1a12.53,12.53,0,0,1,1.67,4.6H49.83a6.48,6.48,0,0,0-1.59-2.72C46,35.09,41.1,32.88,33.46,32.88c-8.1,0-14,2.38-16.24,6.55a8.74,8.74,0,0,0-.88,4,7.87,7.87,0,0,0,1.13,4.3c2.76,4.43,9.69,6.35,16,6.35,7.39,0,12.28-1.09,15.37-4.76A6.47,6.47,0,0,0,50,46.86h7.14A17.24,17.24,0,0,1,55.59,51.54Z" class="cls-1"/><path data-cppathid="10001" d="M91.69,59.85a16.06,16.06,0,0,1-.38-2.63c-1.5,1.54-6.55,3.13-15.19,3.13-9.31,0-14.49-2.09-14.49-6.77V53c0-5,5-7.52,18.12-7.56,3.21,0,8.77.34,11.65.63a4.21,4.21,0,0,0-.67-2.42c-1-1.34-4-2.47-10.48-2.47-5.89,0-8.81.71-10,1.88a2.5,2.5,0,0,0-.54,1.38H63.34a7.25,7.25,0,0,1,.38-1.8c1.46-4,6.59-6.47,16.24-6.47,10.89,0,15.78,2.43,17,7.56a23.93,23.93,0,0,1,.38,4.84c0,.84-.09,3.89-.09,5.76A18.62,18.62,0,0,0,98,59.85ZM79.21,49.7c-6.14,0-9,.71-10.27,1.84a2,2,0,0,0-.55,1.38A1.48,1.48,0,0,0,68.73,54c1,1.13,3.71,1.76,8.22,1.76,8.81,0,14.45-1,14.45-5.56C88.64,50,83.67,49.7,79.21,49.7Z" class="cls-1"/><path data-cppathid="10002" d="M107.34,59.85c-.25-.09-.42-.92-.42-2.34V30.08a15.61,15.61,0,0,0-.21-3.26h6.43a20.63,20.63,0,0,1,.17,3.14V57.18c0,1.21.08,2.5.5,2.67Z" class="cls-1"/><path data-cppathid="10003" d="M158.14,55.21c-2.55,2.63-7.89,5.18-17.45,5.18-8.77,0-15.15-1.92-18-6.26a10.77,10.77,0,0,1-1.75-6.06,9.78,9.78,0,0,1,1.8-5.63c3-4,9.51-6.35,17.91-6.35,10.31,0,17.24,3.59,18.87,10a22.28,22.28,0,0,1,.58,4.38H127.37a4.09,4.09,0,0,0,1.88,2.38c2,1.72,5.89,2.8,11.82,2.8a25.83,25.83,0,0,0,9.47-1.46,6.82,6.82,0,0,0,2-1.5h7.09A7.11,7.11,0,0,1,158.14,55.21ZM152.21,43.9c-1.54-1.63-5.59-2.92-11.73-2.92-5.84,0-10.48,1.25-12.11,3.13a3.76,3.76,0,0,0-1,2.17h26.18A3.41,3.41,0,0,0,152.21,43.9Z" class="cls-1"/><path data-cppathid="10004" d="M194.24,59.85c-.29,0-.45-1.38-.45-11.19,0-4.55-3.09-6.89-9.9-6.89-5.8,0-11.1,2.71-11.1,6.93V59.85h-6.43v-23h6.22v5.3c2.08-4.47,8.18-6,14.07-6,9.93,0,13.61,4.88,13.61,11.35,0,11.65.12,11.86.33,12.32Z" class="cls-1"/><path data-cppathid="10005" d="M239.16,40.6V27h6.34V57.09a22.81,22.81,0,0,0,.25,2.76h-6.26l-.17-4.26c-2,3.09-7.93,4.72-14,4.72-8.44,0-13.86-2.09-16.41-5.81A10.45,10.45,0,0,1,207,48.41a11,11,0,0,1,1.88-6.31c2.5-3.79,7.68-6,15.69-6C231.31,36.13,236.82,37.51,239.16,40.6Zm-24.47,4.22a5.44,5.44,0,0,0-1.25,3.55,5.18,5.18,0,0,0,1.25,3.5c2,2.26,6.1,3.34,12.11,3.34s10-1.17,11.61-3.67a5.46,5.46,0,0,0,.87-3.17A5.13,5.13,0,0,0,238,44.78c-2-2.18-5.93-3.3-11.73-3.3S216.45,42.65,214.69,44.82Z" class="cls-1"/><path data-cppathid="10006" d="M282.52,59.85a16.34,16.34,0,0,1-.37-2.63c-1.5,1.54-6.56,3.13-15.2,3.13-9.31,0-14.48-2.09-14.48-6.77V53c0-5,5-7.52,18.11-7.56,3.22,0,8.77.34,11.65.63a4.13,4.13,0,0,0-.67-2.42c-1-1.34-4-2.47-10.47-2.47-5.89,0-8.81.71-10,1.88a2.43,2.43,0,0,0-.54,1.38h-6.39a7.69,7.69,0,0,1,.37-1.8c1.46-4,6.6-6.47,16.24-6.47,10.9,0,15.78,2.43,17,7.56a24,24,0,0,1,.37,4.84c0,.84-.08,3.89-.08,5.76a18.3,18.3,0,0,0,.71,5.56ZM270,49.7c-6.13,0-9,.71-10.27,1.84a2,2,0,0,0-.54,1.38,1.47,1.47,0,0,0,.33,1.08c1,1.13,3.72,1.76,8.23,1.76,8.81,0,14.44-1,14.44-5.56C279.48,50,274.51,49.7,270,49.7Z" class="cls-1"/><path data-cppathid="10007" d="M322.09,43.06a39.3,39.3,0,0,0-7.34-.66c-5.64,0-11,3-11,9.14v8.31H297.3v-23h6.26v5.88c1.13-3.21,5.55-5.8,11.06-6.13a33.41,33.41,0,0,1,7.47.2Z" class="cls-1"/><path data-cppathid="10008" d="M328.39,33.75V27.16h6.72v6.59Zm.67,26.1c-.38-.09-.54-1.13-.54-3.47V36.89H335V56.34c0,2.59,0,3.17.58,3.51Z" class="cls-1"/><path data-cppathid="10009" d="M381.2,53.75c-2.84,4.09-8.93,6.6-18.37,6.6-8.89,0-15.2-2.51-18.16-6.51a10.17,10.17,0,0,1-1.84-5.6,8.82,8.82,0,0,1,1.76-5.38c3-4.1,9.06-6.73,18.24-6.73,9.52,0,15.36,2.93,18.2,6.6a9.19,9.19,0,0,1,.17,11Zm-6.26-8.81c-2.09-2-6.27-3.46-12.11-3.46s-9.77,1.33-12.15,3.5a4.81,4.81,0,0,0,0,6.6c1.92,2.13,6.31,3.59,12.11,3.59,6.14,0,10.19-1.33,12.23-3.63a5,5,0,0,0,1.34-3.26A4.32,4.32,0,0,0,374.94,44.94Z" class="cls-1"/><path data-cppathid="10010" d="M457.54,48.7c0-3.76-1.75-6.93-8.93-6.93-5,0-9.31,2-9.31,6.93V59.85h-6V48.16c0-3.93-3.51-6.39-8.68-6.39-5.85,0-9.52,3.3-9.52,6.81V59.85H408.7v-23h6.22v5.3c1.63-3.93,6.89-5.89,11.94-5.89,5.3,0,10,1.75,11.52,6,1.76-3.92,6.06-6,12.19-6,9.4,0,12.61,4.59,12.61,11.23,0,11.73,0,12,.42,12.32H458C457.54,59.85,457.54,57.38,457.54,48.7Z" class="cls-1"/><path data-cppathid="10011" d="M500.28,59.85a16.34,16.34,0,0,1-.37-2.63c-1.51,1.54-6.56,3.13-15.2,3.13-9.31,0-14.49-2.09-14.49-6.77V53c0-5,5-7.52,18.12-7.56,3.22,0,8.77.34,11.65.63a4.13,4.13,0,0,0-.67-2.42c-1-1.34-4.05-2.47-10.48-2.47-5.88,0-8.8.71-10,1.88a2.52,2.52,0,0,0-.55,1.38h-6.38a7.22,7.22,0,0,1,.37-1.8c1.46-4,6.6-6.47,16.24-6.47,10.9,0,15.78,2.43,17,7.56a23.93,23.93,0,0,1,.38,4.84c0,.84-.09,3.89-.09,5.76a18.62,18.62,0,0,0,.71,5.56ZM487.8,49.7c-6.14,0-9,.71-10.27,1.84a2,2,0,0,0-.54,1.38,1.47,1.47,0,0,0,.33,1.08c1,1.13,3.72,1.76,8.23,1.76,8.8,0,14.44-1,14.44-5.56C497.24,50,492.27,49.7,487.8,49.7Z" class="cls-1"/><path data-cppathid="10012" d="M549.66,55.21c-2.54,2.63-7.89,5.18-17.45,5.18-8.77,0-15.15-1.92-18-6.26a10.71,10.71,0,0,1-1.76-6.06,9.78,9.78,0,0,1,1.8-5.63c3-4,9.52-6.35,17.91-6.35,10.31,0,17.24,3.59,18.87,10a22.28,22.28,0,0,1,.58,4.38H518.89a4.09,4.09,0,0,0,1.88,2.38c2,1.72,5.89,2.8,11.82,2.8a25.83,25.83,0,0,0,9.47-1.46,6.82,6.82,0,0,0,2-1.5h7.1A7.15,7.15,0,0,1,549.66,55.21ZM543.73,43.9C542.19,42.27,538.14,41,532,41c-5.84,0-10.48,1.25-12.1,3.13a3.71,3.71,0,0,0-1,2.17h26.18A3.41,3.41,0,0,0,543.73,43.9Z" class="cls-1"/><path data-cppathid="10013" d="M573.28,60.35c-12.31,0-16.78-1.84-18.16-6.43a5.83,5.83,0,0,1-.29-1.55h6.3a2.07,2.07,0,0,0,.46,1.26c1,1.12,4,1.75,11.74,1.75,9.72,0,11.1-1.09,11.1-2.5,0-1.59-1.25-1.93-9.68-2.34-1.63-.09-4.56-.29-6.52-.42-9.22-.54-12.81-2.67-12.81-6.85,0-4.59,5.34-7.18,16-7.18S587,37.68,588.77,42a6.77,6.77,0,0,1,.38,1.84h-6.31a2.41,2.41,0,0,0-.37-.88c-1-1.09-3.84-1.8-10.61-1.8-9.18,0-10.35.88-10.35,2.17s1,1.67,9,2.09c2,.13,5,.29,7,.38,9.73.37,13.07,2.5,13.07,7C590.53,57.72,585.85,60.35,573.28,60.35Z" class="cls-1"/><path data-cppathid="10014" d="M606.38,42.52v8.39c0,3.05,1.34,4.18,5,4.18a43.77,43.77,0,0,0,6-.5v4.92a34.46,34.46,0,0,1-8,.84c-5.6,0-9.44-1.8-9.44-8.1V42.52h-7v-5.3h7c.17-1.54.17-5.89.17-5.89l6.22-.16v6h11.35v5.3Z" class="cls-1"/><path data-cppathid="10015" d="M649.29,43.06A39.3,39.3,0,0,0,642,42.4c-5.64,0-11,3-11,9.14v8.31H624.5v-23h6.26v5.88c1.12-3.21,5.55-5.8,11.06-6.13a33.41,33.41,0,0,1,7.47.2Z" class="cls-1"/><path data-cppathid="10016" d="M689.87,53.75c-2.84,4.09-8.94,6.6-18.37,6.6-8.9,0-15.2-2.51-18.16-6.51a10.17,10.17,0,0,1-1.84-5.6,8.81,8.81,0,0,1,1.75-5.38c3-4.1,9.06-6.73,18.25-6.73,9.52,0,15.36,2.93,18.2,6.6a9.19,9.19,0,0,1,.17,11Zm-6.27-8.81c-2.08-2-6.26-3.46-12.1-3.46s-9.77,1.33-12.15,3.5a4.79,4.79,0,0,0,0,6.6c1.92,2.13,6.3,3.59,12.11,3.59,6.13,0,10.18-1.33,12.23-3.63a5,5,0,0,0,1.34-3.26A4.29,4.29,0,0,0,683.6,44.94Z" class="cls-1"/><path data-cppathid="10017" d="M746.84,40.6V27h6.35V57.09a22.81,22.81,0,0,0,.25,2.76h-6.27L747,55.59c-2,3.09-7.93,4.72-14,4.72-8.43,0-13.86-2.09-16.41-5.81a10.45,10.45,0,0,1-1.92-6.09,11,11,0,0,1,1.88-6.31c2.51-3.79,7.68-6,15.7-6C739,36.13,744.5,37.51,746.84,40.6Zm-24.46,4.22a5.39,5.39,0,0,0-1.26,3.55,5.14,5.14,0,0,0,1.26,3.5c2,2.26,6.09,3.34,12.1,3.34s10-1.17,11.61-3.67a5.47,5.47,0,0,0,.88-3.17,5.14,5.14,0,0,0-1.3-3.59c-2-2.18-5.93-3.3-11.73-3.3S724.13,42.65,722.38,44.82Z" class="cls-1"/><path data-cppathid="10018" d="M797.31,55.21c-2.55,2.63-7.89,5.18-17.46,5.18-8.76,0-15.15-1.92-18-6.26a10.69,10.69,0,0,1-1.75-6.06,9.85,9.85,0,0,1,1.79-5.63c3-4,9.52-6.35,17.91-6.35,10.31,0,17.24,3.59,18.87,10a22.3,22.3,0,0,1,.59,4.38H766.54a4.09,4.09,0,0,0,1.88,2.38c2,1.72,5.88,2.8,11.81,2.8a25.9,25.9,0,0,0,9.48-1.46,6.77,6.77,0,0,0,2-1.5h7.1A7.11,7.11,0,0,1,797.31,55.21ZM791.38,43.9c-1.55-1.63-5.6-2.92-11.73-2.92-5.85,0-10.48,1.25-12.11,3.13a3.64,3.64,0,0,0-1,2.17h26.17A3.43,3.43,0,0,0,791.38,43.9Z" class="cls-1"/><path data-cppathid="10019" d="M825.1,59.85c-.25-.09-.42-.92-.42-2.34V30.08a15.61,15.61,0,0,0-.21-3.26h6.43a19.39,19.39,0,0,1,.17,3.14V57.18c0,1.21.08,2.5.5,2.67Z" class="cls-1"/><path data-cppathid="10020" d="M841.71,33.75V27.16h6.72v6.59Zm.67,26.1c-.38-.09-.55-1.13-.55-3.47V36.89h6.52V56.34c0,2.59,0,3.17.58,3.51Z" class="cls-1"/><path data-cppathid="10021" d="M907.71,48.7c0-3.76-1.75-6.93-8.93-6.93-5,0-9.31,2-9.31,6.93V59.85h-6V48.16c0-3.93-3.51-6.39-8.69-6.39-5.84,0-9.52,3.3-9.52,6.81V59.85h-6.43v-23h6.22v5.3C866.71,38.26,872,36.3,877,36.3c5.31,0,10,1.75,11.53,6,1.75-3.92,6.05-6,12.19-6,9.39,0,12.6,4.59,12.6,11.23,0,11.73,0,12,.42,12.32h-5.59C907.71,59.85,907.71,57.38,907.71,48.7Z" class="cls-1"/><path data-cppathid="10022" d="M958.75,54.71c-2.92,3.51-8.34,5.51-15.27,5.51-5.18,0-11.86-1.25-14.12-4V67.61h-6.42V36.93h6.22v3.88c1.75-2.42,7.51-4.55,14.36-4.55,7.76,0,12.81,2.09,15.4,5.51a10.63,10.63,0,0,1,2.17,6.51A10,10,0,0,1,958.75,54.71Zm-6-10.18c-2-2-5.81-3.05-10.94-3.05s-9.4,1.21-11.27,3.46a5.2,5.2,0,0,0-1.42,3.59,4.85,4.85,0,0,0,1.33,3.3c1.8,2,5.85,3.22,11.36,3.22,5.3,0,9.22-1.17,11.23-3.22a5.19,5.19,0,0,0,1.38-3.63A5,5,0,0,0,952.79,44.53Z" class="cls-1"/><path data-cppathid="10023" d="M968.43,33.75V27.16h6.72v6.59Zm.67,26.1c-.38-.09-.54-1.13-.54-3.47V36.89h6.51V56.34c0,2.59,0,3.17.58,3.51Z" class="cls-1"/><path data-cppathid="10024" d="M1020.2,55.21c-2.55,2.63-7.89,5.18-17.45,5.18-8.77,0-15.16-1.92-18-6.26A10.69,10.69,0,0,1,983,48.07a9.85,9.85,0,0,1,1.79-5.63c3-4,9.52-6.35,17.91-6.35,10.31,0,17.24,3.59,18.87,10a22.3,22.3,0,0,1,.59,4.38H989.43a4.09,4.09,0,0,0,1.88,2.38c2,1.72,5.88,2.8,11.81,2.8a25.9,25.9,0,0,0,9.48-1.46,6.77,6.77,0,0,0,2-1.5h7.1A7.11,7.11,0,0,1,1020.2,55.21Zm-5.93-11.31c-1.55-1.63-5.6-2.92-11.73-2.92-5.85,0-10.48,1.25-12.11,3.13a3.64,3.64,0,0,0-1,2.17h26.17A3.43,3.43,0,0,0,1014.27,43.9Z" class="cls-1"/><path data-cppathid="10025" d="M1025.91,59.85V55l20.95-12.52h-20.49V37.22h31.35v4.55l-21.5,12.86h22.71v5.22Z" class="cls-1"/><path data-cppathid="10026" d="M1093.28,59.85a15.26,15.26,0,0,1-.37-2.63c-1.51,1.54-6.56,3.13-15.2,3.13-9.31,0-14.49-2.09-14.49-6.77V53c0-5,5-7.52,18.12-7.56,3.22,0,8.77.34,11.65.63a4.21,4.21,0,0,0-.67-2.42c-1-1.34-4-2.47-10.48-2.47-5.88,0-8.81.71-10,1.88a2.5,2.5,0,0,0-.54,1.38h-6.39a7.25,7.25,0,0,1,.38-1.8c1.46-4,6.6-6.47,16.24-6.47,10.9,0,15.78,2.43,17,7.56a23.93,23.93,0,0,1,.38,4.84c0,.84-.09,3.89-.09,5.76a18.62,18.62,0,0,0,.71,5.56ZM1080.8,49.7c-6.14,0-9,.71-10.27,1.84a2,2,0,0,0-.54,1.38,1.47,1.47,0,0,0,.33,1.08c1,1.13,3.72,1.76,8.22,1.76,8.81,0,14.45-1,14.45-5.56C1090.23,50,1085.27,49.7,1080.8,49.7Z" class="cls-1"/></svg>