<?xml version="1.0" encoding="UTF-8"?>
<svg xmlns="http://www.w3.org/2000/svg" onmouseup="{ if(window.parent.document.onmouseup) window.parent.document.onmouseup(arguments[0]);}" viewBox="0 0 937.14 96.69" data-name="Capa 1" id="Capa_1"><defs><style>.cls-1{fill:#fff;}</style></defs><path data-cppathid="10000" d="M50.75,49.57c-2.29,3.18-6.34,4.55-12.44,4.55H18.61V63H11.85V30.41H38.36c6,0,10.14,1.42,12.06,3.92a12.7,12.7,0,0,1,2.3,8A12,12,0,0,1,50.75,49.57ZM45.16,38.84c-1-1.63-3.63-2.59-8-2.59H18.57V48H37.06c4.63,0,7-.88,8.1-2.55a6.09,6.09,0,0,0,.67-3.3A6.81,6.81,0,0,0,45.16,38.84Z" class="cls-1"/><path data-cppathid="10001" d="M85.06,46.23a38.45,38.45,0,0,0-7.35-.67c-5.63,0-11,3-11,9.15V63H60.26v-23h6.27v5.89c1.12-3.21,5.55-5.8,11.06-6.14a33.91,33.91,0,0,1,7.47.21Z" class="cls-1"/><path data-cppathid="10002" d="M125.64,56.92c-2.84,4.09-8.94,6.6-18.37,6.6-8.9,0-15.2-2.51-18.16-6.52a10.14,10.14,0,0,1-1.84-5.59A8.86,8.86,0,0,1,89,46c3-4.09,9.06-6.72,18.25-6.72,9.51,0,15.36,2.92,18.2,6.6a9.19,9.19,0,0,1,.17,11Zm-6.27-8.81c-2.08-2-6.26-3.46-12.1-3.46S97.5,46,95.12,48.15a4.79,4.79,0,0,0,0,6.6c1.92,2.13,6.3,3.59,12.11,3.59,6.13,0,10.18-1.34,12.23-3.63a5,5,0,0,0,1.33-3.26A4.28,4.28,0,0,0,119.37,48.11Z" class="cls-1"/><path data-cppathid="10003" d="M160.53,41.18c1.84-1.54,6.93-1.84,9.22-1.46v4.47c-2.54,0-5.42.16-6.17.62a5.4,5.4,0,0,1,1.71,2.84,7.33,7.33,0,0,1-.13,2.67c-.92,3.84-5,6.39-15.57,6.39a37.55,37.55,0,0,1-10.14-1.29,1.28,1.28,0,0,0-1.17,1.29c0,1,.87,1.59,13.06,1.59,13.53,0,17.58,1.46,17.58,5.88,0,5.06-6.43,7.39-19.79,7.39-14.23,0-18.45-2.75-18.45-6,0-2.54,2.92-3.8,5.38-4.17-2-.75-3.38-2-3.38-3.89A3.8,3.8,0,0,1,136.61,54a6.57,6.57,0,0,1-4.47-5.47,6.77,6.77,0,0,1,0-2c.71-4,5.76-7.39,16.2-7.39C153.89,39.09,158.07,40,160.53,41.18Zm1.71,23.42c0-1.54-1.46-1.58-11.27-1.84-4-.08-9.48,0-11.94-.12-1.21.17-2.13.71-2.13,1.75,0,1.26,2,2.47,11.81,2.47C159.94,66.86,162.2,65.94,162.24,64.6Zm-23.84-17a4.64,4.64,0,0,0,0,1c.25,2.38,3.67,3.68,10.23,3.68,7.3,0,10.06-1.38,10.39-3.72a6.12,6.12,0,0,0,0-1.25c-.42-2.09-3.3-3.47-10.23-3.47C142.08,43.89,138.78,45.19,138.4,47.61Z" class="cls-1"/><path data-cppathid="10004" d="M198.76,46.23a38.45,38.45,0,0,0-7.35-.67c-5.63,0-11,3-11,9.15V63H174v-23h6.27v5.89c1.12-3.21,5.55-5.8,11.06-6.14a33.91,33.91,0,0,1,7.47.21Z" class="cls-1"/><path data-cppathid="10005" d="M230.61,63a16.24,16.24,0,0,1-.38-2.63c-1.5,1.54-6.55,3.13-15.19,3.13-9.31,0-14.49-2.09-14.49-6.77v-.62c0-5,5-7.52,18.12-7.56,3.22,0,8.77.33,11.65.63a4.26,4.26,0,0,0-.67-2.43c-1-1.33-4.05-2.46-10.48-2.46-5.88,0-8.81.71-10,1.88a2.5,2.5,0,0,0-.54,1.38h-6.39a7.16,7.16,0,0,1,.38-1.8c1.46-4,6.6-6.47,16.24-6.47,10.9,0,15.78,2.42,17,7.56a23.87,23.87,0,0,1,.38,4.84c0,.84-.09,3.88-.09,5.76a18.62,18.62,0,0,0,.71,5.56ZM218.13,52.87c-6.14,0-9,.71-10.27,1.84a2,2,0,0,0-.54,1.37,1.48,1.48,0,0,0,.33,1.09c1,1.13,3.71,1.75,8.22,1.75,8.81,0,14.45-1,14.45-5.55C227.56,53.12,222.6,52.87,218.13,52.87Z" class="cls-1"/><path data-cppathid="10006" d="M294.23,51.87c0-3.76-1.76-6.93-8.94-6.93-5,0-9.31,2-9.31,6.93V63h-6V51.33c0-3.93-3.5-6.39-8.68-6.39-5.85,0-9.52,3.3-9.52,6.8V63h-6.43v-23h6.22v5.31c1.63-3.93,6.89-5.89,11.94-5.89,5.3,0,10,1.75,11.52,6,1.76-3.92,6.06-6,12.19-6,9.4,0,12.61,4.59,12.61,11.23,0,11.73,0,12,.42,12.32h-5.59C294.23,63,294.23,60.55,294.23,51.87Z" class="cls-1"/><path data-cppathid="10007" d="M337,63a16.53,16.53,0,0,1-.37-2.63c-1.5,1.54-6.56,3.13-15.2,3.13-9.31,0-14.48-2.09-14.48-6.77v-.62c0-5,5-7.52,18.11-7.56,3.22,0,8.77.33,11.65.63a4.18,4.18,0,0,0-.67-2.43c-1-1.33-4.05-2.46-10.47-2.46-5.89,0-8.81.71-10,1.88a2.43,2.43,0,0,0-.54,1.38h-6.39a7.59,7.59,0,0,1,.37-1.8c1.46-4,6.6-6.47,16.24-6.47,10.9,0,15.78,2.42,17,7.56a23.93,23.93,0,0,1,.37,4.84c0,.84-.08,3.88-.08,5.76a18.3,18.3,0,0,0,.71,5.56ZM324.48,52.87c-6.13,0-9,.71-10.27,1.84a2,2,0,0,0-.54,1.37,1.48,1.48,0,0,0,.33,1.09c1,1.13,3.72,1.75,8.23,1.75,8.81,0,14.44-1,14.44-5.55C333.92,53.12,329,52.87,324.48,52.87Z" class="cls-1"/><path data-cppathid="10008" d="M399.91,43.77V30.12h6.34V60.26a22,22,0,0,0,.26,2.76h-6.27l-.16-4.26c-2,3.09-7.94,4.71-14,4.71-8.43,0-13.86-2.08-16.41-5.8a10.48,10.48,0,0,1-1.92-6.09,10.94,10.94,0,0,1,1.88-6.31c2.51-3.8,7.68-6,15.7-6C392.06,39.3,397.57,40.68,399.91,43.77ZM375.44,48a5.43,5.43,0,0,0-1.25,3.54A5.19,5.19,0,0,0,375.44,55c2,2.26,6.1,3.34,12.11,3.34s10-1.17,11.61-3.67a5.47,5.47,0,0,0,.87-3.18,5.16,5.16,0,0,0-1.29-3.59c-2-2.17-5.93-3.29-11.73-3.29S377.2,45.81,375.44,48Z" class="cls-1"/><path data-cppathid="10009" d="M450.37,58.38c-2.54,2.63-7.89,5.18-17.45,5.18-8.76,0-15.15-1.92-18-6.26a10.71,10.71,0,0,1-1.75-6.06,9.78,9.78,0,0,1,1.79-5.63c3-4,9.52-6.35,17.91-6.35,10.31,0,17.24,3.59,18.87,10a22.28,22.28,0,0,1,.58,4.38H419.61A4.1,4.1,0,0,0,421.48,56c2,1.71,5.89,2.8,11.82,2.8a25.94,25.94,0,0,0,9.48-1.46,6.79,6.79,0,0,0,2-1.51h7.1A7.1,7.1,0,0,1,450.37,58.38Zm-5.92-11.31c-1.55-1.63-5.6-2.92-11.74-2.92-5.84,0-10.47,1.25-12.1,3.13a3.64,3.64,0,0,0-1,2.17h26.17A3.41,3.41,0,0,0,444.45,47.07Z" class="cls-1"/><path data-cppathid="10010" d="M492.7,63.52c-12.32,0-16.79-1.84-18.17-6.43a5.83,5.83,0,0,1-.29-1.55h6.31a2,2,0,0,0,.46,1.25c1,1.13,4.05,1.76,11.73,1.76,9.72,0,11.1-1.09,11.1-2.51,0-1.58-1.25-1.92-9.68-2.33-1.63-.09-4.55-.3-6.52-.42-9.22-.54-12.81-2.67-12.81-6.85,0-4.59,5.34-7.18,16-7.18s15.57,1.59,17.32,5.89a6.78,6.78,0,0,1,.38,1.83h-6.3a2.61,2.61,0,0,0-.38-.87c-1-1.09-3.84-1.8-10.6-1.8-9.19,0-10.36.88-10.36,2.17s1,1.67,9,2.09c2,.13,5,.29,7,.38,9.73.37,13.07,2.5,13.07,7C509.94,60.89,505.26,63.52,492.7,63.52Z" class="cls-1"/><path data-cppathid="10011" d="M544.5,63a16.24,16.24,0,0,1-.38-2.63c-1.5,1.54-6.55,3.13-15.2,3.13-9.31,0-14.48-2.09-14.48-6.77v-.62c0-5,5-7.52,18.12-7.56,3.21,0,8.76.33,11.64.63a4.24,4.24,0,0,0-.66-2.43c-1-1.33-4-2.46-10.48-2.46-5.89,0-8.81.71-10,1.88a2.5,2.5,0,0,0-.54,1.38h-6.39a7.16,7.16,0,0,1,.38-1.8c1.46-4,6.59-6.47,16.24-6.47,10.89,0,15.78,2.42,17,7.56a23.93,23.93,0,0,1,.37,4.84c0,.84-.08,3.88-.08,5.76a18.3,18.3,0,0,0,.71,5.56ZM532,52.87c-6.13,0-9,.71-10.27,1.84a2,2,0,0,0-.54,1.37,1.45,1.45,0,0,0,.34,1.09c1,1.13,3.71,1.75,8.22,1.75,8.81,0,14.44-1,14.44-5.55C541.45,53.12,536.48,52.87,532,52.87Z" class="cls-1"/><path data-cppathid="10012" d="M587.15,63c-.29,0-.45-1.38-.45-11.19,0-4.55-3.09-6.89-9.9-6.89-5.8,0-11.1,2.71-11.1,6.93V63h-6.43v-23h6.22v5.31c2.08-4.47,8.18-6,14.07-6,9.93,0,13.61,4.89,13.61,11.36,0,11.65.12,11.86.33,12.32Z" class="cls-1"/><path data-cppathid="10013" d="M637.2,58.38c-2.54,2.63-7.89,5.18-17.45,5.18-8.77,0-15.15-1.92-18-6.26A10.73,10.73,0,0,1,600,51.24a9.78,9.78,0,0,1,1.8-5.63c3-4,9.52-6.35,17.91-6.35,10.31,0,17.24,3.59,18.87,10a22.28,22.28,0,0,1,.58,4.38H606.43A4.12,4.12,0,0,0,608.31,56c2,1.71,5.89,2.8,11.82,2.8a25.83,25.83,0,0,0,9.47-1.46,6.84,6.84,0,0,0,2-1.51h7.1A7.1,7.1,0,0,1,637.2,58.38Zm-5.93-11.31c-1.54-1.63-5.59-2.92-11.73-2.92-5.84,0-10.48,1.25-12.1,3.13a3.71,3.71,0,0,0-1,2.17h26.18A3.39,3.39,0,0,0,631.27,47.07Z" class="cls-1"/><path data-cppathid="10014" d="M672.93,63a16.24,16.24,0,0,1-.38-2.63c-1.5,1.54-6.55,3.13-15.19,3.13-9.31,0-14.49-2.09-14.49-6.77v-.62c0-5,5-7.52,18.12-7.56,3.21,0,8.77.33,11.65.63a4.26,4.26,0,0,0-.67-2.43c-1-1.33-4.05-2.46-10.48-2.46-5.88,0-8.81.71-10,1.88a2.5,2.5,0,0,0-.54,1.38h-6.39a7.16,7.16,0,0,1,.38-1.8c1.46-4,6.6-6.47,16.24-6.47,10.9,0,15.78,2.42,17,7.56a23.87,23.87,0,0,1,.38,4.84c-.05.84-.09,3.88-.09,5.76a18.62,18.62,0,0,0,.71,5.56ZM660.45,52.87c-6.14,0-9,.71-10.27,1.84a2,2,0,0,0-.54,1.37,1.48,1.48,0,0,0,.33,1.09c1,1.13,3.71,1.75,8.22,1.75,8.81,0,14.45-1,14.45-5.55C669.88,53.12,664.91,52.87,660.45,52.87Z" class="cls-1"/><path data-cppathid="10015" d="M736.55,51.87c0-3.76-1.76-6.93-8.94-6.93-5,0-9.31,2-9.31,6.93V63h-6V51.33c0-3.93-3.51-6.39-8.68-6.39-5.85,0-9.52,3.3-9.52,6.8V63H687.7v-23h6.22v5.31c1.63-3.93,6.89-5.89,11.94-5.89,5.3,0,10,1.75,11.52,6,1.76-3.92,6.06-6,12.19-6,9.4,0,12.61,4.59,12.61,11.23,0,11.73,0,12,.42,12.32H737C736.55,63,736.55,60.55,736.55,51.87Z" class="cls-1"/><path data-cppathid="10016" d="M752.19,36.92V30.33h6.72v6.59Zm.67,26.1c-.38-.09-.54-1.13-.54-3.47V40.05h6.51V59.51c0,2.59,0,3.17.58,3.51Z" class="cls-1"/><path data-cppathid="10017" d="M804,58.38c-2.54,2.63-7.89,5.18-17.45,5.18-8.77,0-15.15-1.92-18-6.26a10.73,10.73,0,0,1-1.76-6.06,9.78,9.78,0,0,1,1.8-5.63c3-4,9.52-6.35,17.91-6.35,10.31,0,17.24,3.59,18.87,10a22.28,22.28,0,0,1,.58,4.38H773.19A4.06,4.06,0,0,0,775.06,56c2,1.71,5.89,2.8,11.82,2.8a25.94,25.94,0,0,0,9.48-1.46,6.79,6.79,0,0,0,2-1.51h7.1A7.1,7.1,0,0,1,804,58.38ZM798,47.07c-1.54-1.63-5.59-2.92-11.73-2.92-5.84,0-10.47,1.25-12.1,3.13a3.64,3.64,0,0,0-1,2.17h26.17A3.39,3.39,0,0,0,798,47.07Z" class="cls-1"/><path data-cppathid="10018" d="M840.06,63c-.3,0-.46-1.38-.46-11.19,0-4.55-3.09-6.89-9.9-6.89-5.8,0-11.1,2.71-11.1,6.93V63h-6.43v-23h6.22v5.31c2.09-4.47,8.18-6,14.07-6,9.94,0,13.61,4.89,13.61,11.36,0,11.65.12,11.86.33,12.32Z" class="cls-1"/><path data-cppathid="10019" d="M864.3,45.69v8.39c0,3.05,1.34,4.18,5,4.18a42.47,42.47,0,0,0,6.06-.51v4.93a34.56,34.56,0,0,1-8.06.84c-5.6,0-9.44-1.8-9.44-8.1V45.69h-7.05v-5.3h7.05c.17-1.55.17-5.89.17-5.89l6.22-.17v6.06h11.36v5.3Z" class="cls-1"/><path data-cppathid="10020" d="M918.07,56.92c-2.84,4.09-8.93,6.6-18.37,6.6-8.89,0-15.2-2.51-18.16-6.52a10.14,10.14,0,0,1-1.84-5.59A8.87,8.87,0,0,1,881.46,46c3-4.09,9.06-6.72,18.24-6.72,9.52,0,15.36,2.92,18.2,6.6a9.19,9.19,0,0,1,.17,11Zm-6.26-8.81c-2.09-2-6.26-3.46-12.11-3.46s-9.77,1.33-12.15,3.5a4.81,4.81,0,0,0,0,6.6c1.92,2.13,6.31,3.59,12.11,3.59,6.14,0,10.19-1.34,12.23-3.63a5,5,0,0,0,1.34-3.26A4.32,4.32,0,0,0,911.81,48.11Z" class="cls-1"/></svg>