<?xml version="1.0" encoding="UTF-8"?>
<svg xmlns="http://www.w3.org/2000/svg" onmouseup="{ if(window.parent.document.onmouseup) window.parent.document.onmouseup(arguments[0]);}" xml:space="preserve" enable-background="new 0 0 615.4 108.7" viewBox="0 0 615.4 108.7" y="0px" x="0px" id="Layer_1" version="1.0" xmlns:xlink="http://www.w3.org/1999/xlink"><g><g><g><path data-cppathid="10000" d="M228.2,0.8c1.5,0.5,2.7,1.3,3.6,2.3c0.9,1,1.5,2.3,1.8,3.7c0.3,1.4,0.3,2.9,0.1,4.5     c-0.3,1.6-0.8,3.1-1.5,4.7c-0.8,1.6-1.8,3-3.1,4.4c-1.3,1.3-2.8,2.5-4.5,3.5c-1.7,1-3.7,1.7-5.9,2.1l-0.2,6.9l-9.3-1l-0.6-30.2     c4.9-0.6,9.6-1.1,14.1-1.5C224.9,0.1,226.7,0.3,228.2,0.8z M223.4,12.4c0,0,0-0.2,0-0.4c0-0.3,0-0.6-0.1-0.9     c-0.1-0.4-0.3-0.7-0.7-0.9c-0.3-0.2-0.9-0.4-1.6-0.3c-0.7,0-1.7,0.3-3,0.7l-0.4,6.2c0.9-0.2,1.7-0.5,2.4-0.9     c0.7-0.4,1.3-0.8,1.7-1.2c0.5-0.4,0.8-0.9,1.1-1.2C223.1,12.9,223.3,12.6,223.4,12.4z" fill="#FFFFFF"/><path data-cppathid="10001" d="M239.7,9v4.3h0.1c0.7-2.9,2.6-4.3,5.8-4.3c0.7,0,1.3,0,2,0.1l-2,8.2c-0.2,0-0.4,0-0.6,0     c-0.2,0-0.4,0-0.8,0c-1.1,0-2,0.4-2.8,1.1c-0.8,0.7-1.2,1.8-1.2,3.3v9.9l-8.1,0.7l-0.2-22.6L239.7,9z" fill="#FFFFFF"/><path data-cppathid="10002" d="M269.8,23.7c-0.4,1.5-1.1,2.9-2,4c-0.9,1.2-2.1,2.1-3.5,2.9c-1.4,0.8-3,1.2-4.7,1.5     c-1.7,0.2-3.4,0.2-4.9-0.2c-1.6-0.3-3-0.9-4.2-1.8c-1.2-0.9-2.3-2-3.1-3.3c-0.8-1.4-1.3-2.9-1.6-4.7c-0.2-1.8-0.2-3.4,0.2-5     c0.4-1.5,1.1-2.9,2-4.1c0.9-1.2,2.1-2.2,3.5-2.9c1.4-0.7,3-1.2,4.7-1.5c1.7-0.2,3.4-0.2,4.9,0.2c1.6,0.3,3,0.9,4.2,1.8     c1.2,0.9,2.3,2,3.1,3.3c0.8,1.4,1.4,2.9,1.6,4.7C270.3,20.6,270.2,22.2,269.8,23.7z M255.9,24c0.9,0.3,2,0.2,3.2-0.3     c1.2-0.5,2-1.2,2.4-2.1c0.5-0.9,0.5-1.8,0.1-2.8c-0.5-1-1.1-1.6-2.1-1.9c-0.9-0.3-2-0.2-3.2,0.3c-1.2,0.5-2,1.2-2.5,2.1     c-0.5,0.9-0.5,1.9-0.1,2.8C254.3,23,254.9,23.7,255.9,24z" fill="#FFFFFF"/><path data-cppathid="10003" d="M292.1,31.8l-7.6,0.5v-2.2h-0.1c-0.6,0.8-1.5,1.4-2.5,1.8c-1.1,0.4-2.1,0.6-3.2,0.6     c-1.3,0-2.6-0.3-3.8-0.8c-1.2-0.5-2.3-1.3-3.3-2.3c-1-1-1.7-2.2-2.3-3.7c-0.6-1.4-0.8-3.1-0.8-4.9c0-1.6,0.2-3.2,0.7-4.7     c0.5-1.5,1.2-2.7,2.1-3.8c0.9-1.1,2-2,3.4-2.6c1.3-0.6,2.8-0.9,4.5-0.9c0.8,0,1.7,0.1,2.5,0.3c0.8,0.2,1.5,0.6,2.1,1.1l-0.4-9.2     l8.9-0.7L292.1,31.8z M282.8,23.3c0.4-0.4,0.7-0.7,0.9-1.2c0.2-0.4,0.3-0.9,0.4-1.3c0-0.5,0-0.9-0.2-1.4     c-0.2-0.4-0.4-0.8-0.7-1.1c-0.3-0.3-0.7-0.6-1.1-0.8c-0.4-0.2-0.9-0.3-1.4-0.3c-0.5,0-1.1,0.1-1.6,0.3c-0.6,0.2-1.1,0.5-1.5,0.9     c-0.4,0.4-0.7,0.7-0.9,1.2c-0.2,0.4-0.3,0.9-0.4,1.3c0,0.5,0.1,0.9,0.2,1.3c0.2,0.4,0.4,0.8,0.7,1.1c0.3,0.3,0.7,0.6,1.1,0.8     c0.4,0.2,0.9,0.3,1.4,0.3c0.5,0,1.1-0.1,1.7-0.3C281.9,23.9,282.4,23.7,282.8,23.3z" fill="#FFFFFF"/><path data-cppathid="10004" d="M307.5,28.7L307.5,28.7c-0.6,1.4-1.4,2.4-2.5,3c-1.1,0.6-2.4,0.9-3.8,0.9c-1.9,0-3.5-0.6-4.7-1.7     c-1.2-1.2-1.8-2.8-1.8-5V9.6l8.6-0.7L303,23.2c0,0.6,0.1,1.1,0.4,1.3c0.3,0.3,0.7,0.4,1.4,0.4c0.5,0,0.9-0.1,1.3-0.4     c0.3-0.2,0.5-0.7,0.4-1.3l-0.2-13.6l8.9-0.7l-0.6,23l-7.1,0.3V28.7z" fill="#FFFFFF"/><path data-cppathid="10005" d="M334.2,30.7c-0.7,0.4-1.5,0.7-2.3,0.9c-0.8,0.2-1.6,0.4-2.4,0.5c-0.8,0.1-1.6,0.1-2.3,0.1     c-1.7,0-3.4-0.3-4.8-0.9c-1.5-0.6-2.8-1.4-3.9-2.4c-1.1-1-1.9-2.3-2.6-3.7c-0.6-1.4-0.9-2.9-0.9-4.5c0-1.9,0.3-3.6,1-5.1     c0.6-1.5,1.5-2.8,2.7-3.8c1.1-1,2.5-1.8,4.1-2.4c1.6-0.6,3.3-0.8,5.1-0.8c1.8,0,3.4,0.3,4.8,0.9c1.3,0.6,2.5,1.2,3.4,1.8     l-5.1,6.7c-0.4-0.3-0.8-0.5-1.2-0.7c-0.5-0.2-1-0.3-1.5-0.4c-0.5-0.1-0.9-0.1-1.4-0.1c-0.4,0-0.8,0.1-1.1,0.3     c-0.5,0.3-0.9,0.6-1.3,0.9c-0.4,0.3-0.6,0.7-0.8,1.1c-0.2,0.4-0.3,0.9-0.3,1.3c0,0.5,0.1,1,0.4,1.4c0.5,1,1.3,1.7,2.2,1.9     c0.9,0.2,2,0.1,3-0.4l2-1l5.3,6.9C335.6,29.9,335,30.3,334.2,30.7z" fill="#FFFFFF"/><path data-cppathid="10006" d="M336.3,0.4l8.8-0.4l-0.5,6.8l-8.4,0.6L336.3,0.4z M336.3,10.2l8.6-0.7l-0.4,22.3l-8.2,0.7V10.2z" fill="#FFFFFF"/><path data-cppathid="10007" d="M354.7,12.2h0.1c0.9-1.2,1.7-1.9,2.6-2.4c0.9-0.4,1.9-0.6,2.9-0.6c1.1,0,2,0.2,2.9,0.6     c0.8,0.4,1.5,0.9,2.1,1.6c0.5,0.7,1,1.5,1.3,2.4c0.3,0.9,0.4,1.9,0.4,3v15l-8.3,0.7l0.1-14c0-0.5-0.1-0.9-0.5-1.2     c-0.4-0.3-0.8-0.5-1.3-0.5c-0.5,0-0.9,0.2-1.3,0.4c-0.4,0.3-0.6,0.7-0.6,1.2l0.2,13.9l-8.2-0.6l-0.3-22l8-0.7V12.2z" fill="#FFFFFF"/><path data-cppathid="10008" d="M373.9,32.2c0.9,0.2,1.9,0.3,2.8,0.3c0.4,0,0.8,0,1.2-0.1c0.4-0.1,0.8-0.2,1.1-0.3     c0.3-0.2,0.6-0.4,0.8-0.7c0.2-0.3,0.3-0.7,0.3-1.2c0-0.5-0.1-0.9-0.4-1.2c-0.3-0.3-0.6-0.6-1-0.8c-0.4-0.2-0.9-0.3-1.5-0.4     c-0.5-0.1-1.1-0.1-1.7-0.1c-0.7,0-1.4,0.1-2.1,0.3c-0.7,0.2-1.3,0.4-1.9,0.8l0.7-2.3c-1.7-0.8-3-1.9-4-3.4     c-0.9-1.4-1.4-3.2-1.4-5.2c0-1.1,0.2-2.1,0.6-3.3c0.4-1.1,1-2.1,1.9-3.1c0.9-0.9,1.9-1.7,3.2-2.3c1.3-0.6,2.9-0.9,4.7-0.9     c0.9,0,1.7,0.1,2.4,0.2c0.7,0.1,1.4,0.3,2,0.5l0.7-4.1l6.2,2.7l-2,3.9c0.8,0.8,1.5,1.7,1.9,2.8c0.4,1,0.6,2.2,0.6,3.3     c0,1.6-0.3,3-1,4.2c-0.7,1.1-1.6,2.1-2.9,3c2.5,1.4,3.8,3.5,3.8,6.4c0,1.4-0.3,2.6-0.9,3.7c-0.6,1.1-1.4,2-2.5,2.7     c-1.1,0.7-2.4,1.3-3.9,1.6c-1.5,0.4-3.2,0.6-5.1,0.6c-2.3,0-4.1-0.2-5.6-0.6c-1.5-0.4-2.7-0.7-3.6-1l3.7-6.8     C372,31.7,372.9,32,373.9,32.2z M380.6,19.5c0.5-0.5,0.6-1.1,0.5-1.8c-0.1-0.7-0.5-1.2-1.2-1.5c-0.6-0.3-1.4-0.4-2.2-0.2     c-0.9,0.2-1.5,0.6-2,1.1c-0.4,0.5-0.6,1.1-0.5,1.8c0.1,0.7,0.5,1.2,1.1,1.5c0.6,0.3,1.4,0.4,2.3,0.2     C379.5,20.4,380.1,20,380.6,19.5z" fill="#FFFFFF"/><path data-cppathid="10009" d="M426.8,12.7c0.8,0.4,1.6,0.8,2.5,1.2c0.8,0.5,1.6,1,2.3,1.7c0.7,0.7,1.2,1.5,1.7,2.4     c0.5,0.9,0.7,2,0.8,3.3c0.1,1.8-0.2,3.4-0.9,4.9c-0.7,1.4-1.6,2.6-2.8,3.5c-1.2,1-2.7,1.7-4.4,2.2c-1.7,0.5-3.5,0.8-5.5,0.9     c-0.9,0-1.8,0-2.8-0.1c-0.9-0.1-1.9-0.3-2.8-0.5c-0.9-0.2-1.8-0.5-2.7-0.8c-0.9-0.3-1.7-0.7-2.5-1l2.9-8.3     c0.4,0.2,0.8,0.4,1.4,0.6c0.5,0.2,1.1,0.5,1.7,0.7c0.6,0.2,1.3,0.4,1.9,0.5c0.7,0.2,1.3,0.2,2,0.2c0.9-0.1,1.8-0.2,2.4-0.5     c0.7-0.3,1-0.8,0.9-1.4c0-0.5-0.2-0.8-0.7-1c-0.4-0.2-0.9-0.5-1.5-0.7c-0.4-0.1-0.9-0.2-1.5-0.4c-0.6-0.2-1.3-0.4-2-0.7     c-0.7-0.3-1.4-0.7-2.2-1.1c-0.7-0.4-1.4-1-2-1.6c-0.6-0.6-1.1-1.3-1.5-2.2c-0.4-0.8-0.6-1.7-0.6-2.8c-0.1-1.8,0.3-3.4,0.9-4.8     c0.7-1.4,1.6-2.6,2.7-3.6c1.2-1,2.5-1.7,4-2.3c1.5-0.5,3.2-0.8,4.9-0.9c1.6-0.1,3.2,0,4.8,0.2c1.6,0.2,3.1,0.7,4.5,1.2l-2.3,8.9     c-1-0.4-2-0.8-2.8-1.1c-0.9-0.3-1.8-0.5-3-0.7c-0.3,0-0.8-0.1-1.3-0.1c-0.6,0-1.1,0.1-1.6,0.2c-0.5,0.1-1,0.3-1.4,0.5     c-0.4,0.3-0.6,0.6-0.6,1.1c0,0.2,0.1,0.4,0.3,0.5c0.2,0.1,0.4,0.2,0.7,0.3c0.3,0.1,0.6,0.1,0.8,0.1c0.3,0,0.5,0.1,0.7,0.1     c0.7,0.2,1.6,0.3,2.4,0.5C425.5,12.2,426.2,12.4,426.8,12.7z" fill="#FFFFFF"/><path data-cppathid="10010" d="M445.9,29.4L445.9,29.4c-0.8,1-1.7,1.7-2.7,2.1c-1.1,0.4-2.2,0.6-3.5,0.6c-1,0-2-0.2-2.9-0.6     c-0.9-0.4-1.8-0.9-2.4-1.6c-0.7-0.7-1.2-1.5-1.7-2.5c-0.4-1-0.6-2.1-0.6-3.3c0-1.1,0.2-2,0.6-2.9c0.4-0.9,1-1.7,1.7-2.3     c0.7-0.7,1.6-1.2,2.5-1.5c1-0.4,2-0.6,3.1-0.6c1.2,0,2.2,0.2,3,0.5c0.8,0.4,1.5,0.8,2.1,1.2v-1.2c0-1.2-0.4-2-1.2-2.4     c-0.8-0.4-1.8-0.6-3-0.6c-1.1,0-2.2,0.1-3.2,0.4c-1,0.2-2,0.5-3,0.8l1.5-6.1c1.2-0.4,2.5-0.6,3.9-0.7c1.3-0.1,2.7-0.2,4.1-0.2     c1.3,0,2.5,0.1,3.7,0.4c1.2,0.3,2.3,0.8,3.2,1.5c0.9,0.7,1.6,1.5,2.2,2.6c0.5,1.1,0.8,2.4,0.8,3.9l-0.4,14.6l-7.8,0.7V29.4z      M438.8,23.2c-0.6,0.5-0.8,1-0.7,1.6c0.1,0.6,0.5,1,1.1,1.3c0.6,0.3,1.4,0.4,2.5,0.2c1-0.2,1.8-0.5,2.2-1c0.5-0.5,0.7-1,0.6-1.6     c-0.1-0.5-0.4-0.9-1-1.2c-0.6-0.4-1.4-0.4-2.5-0.3C440.1,22.4,439.4,22.7,438.8,23.2z" fill="#FFFFFF"/><path data-cppathid="10011" d="M457.9,16.4h-2.7l1.2-6.6h1.4c0-1.4,0.2-2.6,0.5-3.8c0.4-1.1,0.9-2.1,1.6-2.9c0.7-0.8,1.7-1.4,2.8-1.8     c1.1-0.4,2.5-0.7,4.1-0.7c0.4,0,0.8,0,1.2,0.1c0.4,0.1,0.7,0.1,1.1,0.2l1,6.4h-1.3c-0.8,0-1.5,0.2-1.9,0.7     c-0.4,0.4-0.7,1-0.7,1.8h3.3v6.6h-3.3l0.2,15.3l-8.6,0.7L457.9,16.4z" fill="#FFFFFF"/><path data-cppathid="10012" d="M487,31.6c-1.6,0.5-3.5,0.8-5.7,0.8c-1.8,0-3.4-0.3-4.8-0.9c-1.5-0.6-2.7-1.4-3.8-2.4     c-1-1-1.9-2.2-2.5-3.6c-0.6-1.4-0.9-2.8-0.9-4.4c0-1.9,0.3-3.7,0.9-5.2c0.6-1.5,1.5-2.8,2.5-3.9c1-1.1,2.3-1.9,3.7-2.4     c1.4-0.6,2.9-0.8,4.5-0.8c2.6,0,4.8,0.7,6.7,2c1.9,1.3,3.3,3.1,4.2,5.3l-11.5,8.7c0.3,0.2,0.6,0.3,1.1,0.3c0.5,0,0.9,0.1,1.3,0.1     c1.2,0,2.2-0.2,3-0.6c0.8-0.4,1.5-0.9,2.2-1.5l3.8,6.3C490.2,30.3,488.6,31.1,487,31.6z M482.4,15.6c-0.4-0.1-0.9-0.2-1.4-0.2     c-0.5,0-1,0.1-1.4,0.3c-0.4,0.2-0.8,0.5-1.1,0.9c-0.3,0.4-0.6,0.8-0.7,1.3c-0.2,0.5-0.2,0.9-0.2,1.4c0,0.5,0,0.8,0.1,1     c0.1,0.2,0.1,0.4,0.2,0.6l5.8-4.4C483.2,16.1,482.8,15.8,482.4,15.6z" fill="#FFFFFF"/></g><g><path data-cppathid="10013" d="M361.4,78.4c0,0,3.8-0.8,3.8-3.9c0-3.1-4.2-11.7-10.4-11.7c-6.3,0.1-10.2,9.3-10.2,11.8     c0,2.5,2.9,3.9,3.9,3.9c0,0-2-5.3,6.4-5.3C363.3,73.2,361.4,78.4,361.4,78.4z" fill="#FFFFFF"/><path data-cppathid="10014" d="M352.6,75.4c0.9-0.8,2.3-0.7,2.3-0.7s3.4-0.2,3.4,2.9c0,3.1,0.1,4.5,0.1,4.5s-0.2,2.5-3.4,2.6     c-3.2,0-3.3-2.5-3.3-2.5l0-4.5C351.7,77.5,351.7,76.1,352.6,75.4z" fill="#FFFFFF"/></g><path data-cppathid="10015" d="M325.6,73.9c0-16.2,13.1-29.3,29.3-29.3l0,0c16.2,0,29.3,13.1,29.3,29.3l0,0c0,16.2-13.1,29.3-29.3,29.3    l0,0C338.8,103.2,325.6,90.1,325.6,73.9L325.6,73.9z M339.2,73.9c0,8.7,7.1,15.8,15.8,15.8l0,0c8.7,0,15.8-7.1,15.8-15.8l0,0    c0-8.7-7.1-15.8-15.8-15.8l0,0C346.2,58.2,339.2,65.2,339.2,73.9L339.2,73.9z" fill="#FFFFFF"/><path data-cppathid="10016" d="M23,23.8l22.2,28l21.4-22.1l22.2,61.1L67,108.7l-9.9-29.5l-12.3,21.6L29.9,77.9l-8.8,26.9L0,91.1L23,23.8z    " fill="#FFFFFF"/><path data-cppathid="10017" d="M116.8,94.3h-0.2c-1.2,3.3-3.1,5.7-5.7,7.1c-2.6,1.4-5.6,2.1-9,2.1c-4.5,0-8.2-1.3-11-4    c-2.8-2.7-4.2-6.6-4.2-11.7V49.6l20.2-1.6l-0.5,33.6c-0.1,1.5,0.3,2.5,1,3.1c0.7,0.6,1.8,1,3.2,1c1.2,0,2.2-0.3,2.9-0.9    c0.8-0.6,1.1-1.6,1.1-3.1l-0.6-32l20.9-1.6l-1.4,54l-16.7,0.7V94.3z" fill="#FFFFFF"/><path data-cppathid="10018" d="M143.8,85.5c1.7,0.3,3.5,0.5,5.4,0.5c0.8,0,1.7,0,2.7,0c0.9,0,1.8-0.1,2.5-0.3c0.8-0.2,1.4-0.4,1.9-0.8    c0.5-0.4,0.8-0.9,0.8-1.6c0-0.9-0.5-1.6-1.4-2c-0.9-0.5-2.1-0.9-3.5-1.3c-1.4-0.4-2.9-0.9-4.5-1.5c-1.6-0.6-3.1-1.4-4.5-2.5    c-1.4-1.1-2.5-2.6-3.4-4.5c-0.9-1.9-1.4-4.3-1.4-7.3c0-2,0.4-4,1.2-5.9c0.8-1.9,2.1-3.7,3.8-5.3c1.8-1.6,4-2.9,6.8-3.8    c2.8-1,6.1-1.5,10.1-1.5c1.5,0,3,0.1,4.5,0.2c1.5,0.1,2.9,0.3,4.3,0.5c1.4,0.2,2.6,0.4,3.8,0.6c1.2,0.2,2.1,0.4,2.9,0.6v16    c-1.5-0.4-3-0.7-4.4-0.9c-1.5-0.2-3-0.4-4.7-0.4c-0.4,0-0.9,0-1.7,0c-0.8,0-1.6,0.1-2.4,0.3c-0.8,0.2-1.5,0.4-2.1,0.8    c-0.6,0.4-0.9,0.8-0.9,1.4c0,1,0.5,1.7,1.5,2.2c1,0.5,2.2,0.9,3.6,1.3c1.4,0.4,3,0.9,4.7,1.6c1.7,0.6,3.3,1.5,4.7,2.6    c1.4,1.1,2.6,2.6,3.6,4.5c1,1.9,1.4,4.3,1.4,7.3c0,3.3-0.7,6-2.1,8.2c-1.4,2.2-3.3,3.9-5.6,5.2c-2.3,1.3-5,2.2-8,2.8    c-3,0.5-6.2,0.8-9.4,0.8c-2.5,0-5-0.2-7.5-0.5c-2.5-0.3-4.9-0.8-7.4-1.4v-17C140.5,84.8,142.2,85.2,143.8,85.5z" fill="#FFFFFF"/><path data-cppathid="10019" d="M200.6,53.8h0.2c1.5-2,3.3-3.4,5.3-4.3c2-0.9,4.2-1.3,6.7-1.3c2.6,0,4.8,0.4,6.8,1.4    c2,0.9,3.6,2.2,4.9,3.8c1.3,1.6,2.3,3.5,3.1,5.8c0.7,2.2,1,4.6,0.9,7.1l-0.6,35.1l-19.1,1.6V69.9c0-1-0.4-1.9-1.1-2.6    c-0.7-0.7-1.7-1.1-2.9-1.1c-1.2,0-2.1,0.3-3,1c-0.8,0.7-1.2,1.7-1.2,2.9v33l-19-1.6L180.9,30l20.3-1.6L200.6,53.8z" fill="#FFFFFF"/><path data-cppathid="10020" d="M252.2,48v10.1h0.2c1.6-6.7,6.1-10.1,13.6-10.1c1.6,0,3.2,0.1,4.6,0.3l-4.7,19.3c-0.4-0.1-0.9-0.1-1.4-0.1    c-0.4,0-1,0-1.8,0c-2.5,0-4.7,0.8-6.6,2.5c-1.8,1.7-2.8,4.3-2.8,7.8v23.3l-19.1,1.6l-0.5-53.2L252.2,48z" fill="#FFFFFF"/><path data-cppathid="10021" d="M325.2,82.7c-1,3.6-2.6,6.8-4.8,9.5c-2.2,2.7-5,5-8.3,6.8c-3.3,1.8-7,2.9-11,3.5c-4,0.6-7.9,0.4-11.6-0.4    c-3.7-0.8-7-2.2-9.9-4.2c-2.9-2-5.3-4.6-7.3-7.8c-1.9-3.2-3.2-6.8-3.7-11c-0.6-4.2-0.4-8.1,0.6-11.7c1-3.6,2.6-6.8,4.8-9.6    c2.2-2.8,5-5.1,8.3-6.8c3.3-1.8,7-3,11-3.5c4-0.5,7.9-0.4,11.6,0.4c3.7,0.8,6.9,2.2,9.8,4.2c2.9,2,5.3,4.6,7.3,7.8    c1.9,3.2,3.2,6.9,3.8,11.1C326.4,75.2,326.2,79.1,325.2,82.7z M292.6,83.4c2.2,0.7,4.8,0.5,7.6-0.7c2.8-1.2,4.7-2.8,5.8-4.9    c1.1-2.1,1.1-4.3,0.1-6.7c-1-2.3-2.7-3.8-4.9-4.6c-2.2-0.8-4.7-0.5-7.5,0.7c-2.8,1.2-4.8,2.9-5.9,5c-1.1,2.1-1.1,4.3-0.1,6.6    C288.7,81.1,290.3,82.7,292.6,83.4z" fill="#FFFFFF"/><path data-cppathid="10022" d="M440.5,70c0-1.2-0.4-2.1-1.3-2.8c-0.8-0.7-2-1.1-3.4-1.1c-1.5,0-2.6,0.4-3.4,1.3c-0.8,0.9-1.3,1.9-1.3,2.8    l0.5,31l-19.7,1.6l0.4-32.7c0.1-1.2-0.4-2.2-1.3-3c-0.9-0.8-2.1-1.1-3.6-1.1c-1.1,0-2.2,0.4-3.2,1.1c-1,0.7-1.5,1.8-1.4,3.1    l0.9,32.8l-19.1-1.6l-1.1-51.6l18.5-1.6v8.4h0.2c1.9-2.6,4.1-4.6,6.6-6.1c2.4-1.5,5.4-2.2,8.8-2.2c2.8,0,5.2,0.5,7.1,1.3    c1.9,0.9,3.6,2.2,5.2,4.1c1.6-1.6,3.3-2.9,5.3-3.9c2-1,4.2-1.5,6.6-1.5c2.7,0,5.1,0.5,7.2,1.4c2.1,0.9,3.8,2.3,5.2,3.9    c1.4,1.7,2.5,3.7,3.3,5.9c0.8,2.3,1.2,4.7,1.2,7.3l0.6,34.6l-19.7,1.6L440.5,70z" fill="#FFFFFF"/><path data-cppathid="10023" d="M468.2,85.5c1.7,0.3,3.5,0.5,5.4,0.5c0.8,0,1.7,0,2.7,0c0.9,0,1.8-0.1,2.5-0.3c0.8-0.2,1.4-0.4,1.9-0.8    c0.5-0.4,0.8-0.9,0.8-1.6c0-0.9-0.5-1.6-1.4-2c-0.9-0.5-2.1-0.9-3.5-1.3c-1.4-0.4-2.8-0.9-4.5-1.5c-1.6-0.6-3.1-1.4-4.5-2.5    c-1.4-1.1-2.5-2.6-3.5-4.5c-0.9-1.9-1.4-4.3-1.4-7.3c0-2,0.4-4,1.2-5.9c0.8-1.9,2.1-3.7,3.8-5.3c1.8-1.6,4-2.9,6.8-3.8    c2.8-1,6.1-1.5,10.1-1.5c1.5,0,3,0.1,4.5,0.2c1.5,0.1,2.9,0.3,4.3,0.5c1.4,0.2,2.6,0.4,3.8,0.6c1.2,0.2,2.1,0.4,2.9,0.6v16    c-1.5-0.4-3-0.7-4.4-0.9c-1.5-0.2-3-0.4-4.7-0.4c-0.4,0-0.9,0-1.7,0c-0.8,0-1.6,0.1-2.4,0.3c-0.8,0.2-1.5,0.4-2.1,0.8    c-0.6,0.4-0.9,0.8-0.9,1.4c0,1,0.5,1.7,1.4,2.2c1,0.5,2.2,0.9,3.6,1.3c1.4,0.4,3,0.9,4.7,1.6c1.7,0.6,3.2,1.5,4.7,2.6    c1.4,1.1,2.6,2.6,3.6,4.5c1,1.9,1.5,4.3,1.5,7.3c0,3.3-0.7,6-2.1,8.2c-1.4,2.2-3.3,3.9-5.6,5.2c-2.3,1.3-5,2.2-8,2.8    c-3,0.5-6.2,0.8-9.4,0.8c-2.5,0-5-0.2-7.5-0.5c-2.4-0.3-4.9-0.8-7.4-1.4v-17C464.9,84.8,466.6,85.2,468.2,85.5z" fill="#FFFFFF"/></g><g><g><path data-cppathid="10024" d="M583.1,65.9c0,0,9.3-2,9.3-9.4c0-7.4-9.9-28.3-24.9-28.3c-15.1,0-24.7,22.3-24.7,28.3s7,9.4,9.4,9.4     c0,0-4.8-12.7,15.4-12.7C587.8,53.3,583.1,65.9,583.1,65.9z" fill="#FFFFFF"/><path data-cppathid="10025" d="M562,58.4c2.2-1.9,5.6-1.8,5.6-1.8s8.2-0.4,8.2,7c0,7.4,0.1,10.8,0.1,10.8s-0.5,6.1-8.2,6.1     c-7.6,0-8-6.1-8-6.1l0-10.9C559.7,63.5,559.8,60.3,562,58.4z" fill="#FFFFFF"/></g><path data-cppathid="10026" d="M519.2,54.3c0-26.6,21.5-48.1,48.1-48.1l0,0c26.6,0,48.1,21.5,48.1,48.1l0,0c0,26.6-21.5,48.1-48.1,48.1    l0,0C540.7,102.4,519.2,80.9,519.2,54.3L519.2,54.3z M527.5,54.3c0,22,17.8,39.7,39.8,39.8l0,0c22,0,39.7-17.8,39.8-39.8l0,0    c0-22-17.8-39.7-39.8-39.8l0,0C545.3,14.6,527.6,32.4,527.5,54.3L527.5,54.3z" fill="#FFFFFF"/></g></g></svg>