<?xml version="1.0" encoding="UTF-8"?>
<svg xmlns="http://www.w3.org/2000/svg" onmouseup="{ if(window.parent.document.onmouseup) window.parent.document.onmouseup(arguments[0]);}" xml:space="preserve" enable-background="new 0 0 98.1 87.6" viewBox="0 0 98.1 87.6" y="0px" x="0px" id="Layer_1" version="1.1" xmlns:xlink="http://www.w3.org/1999/xlink"><g><path data-cppathid="10000" d="M90.4,43.9c0,22.9-18.5,41.4-41.2,41.4   c-22.8,0-41.2-18.5-41.2-41.4C7.9,21,26.4,2.5,49.2,2.5C71.9,2.5,90.4,21,90.4,43.9z" fill="#FFFFFF" clip-rule="evenodd" fill-rule="evenodd"/><g><path data-cppathid="10001" d="M77.6,44c0,15.9-12.9,28.8-28.8,28.8C33,72.7,20.1,59.9,20.1,44    c0-15.9,12.9-28.8,28.8-28.8C64.7,15.2,77.6,28.1,77.6,44z" fill="#EF404D" clip-rule="evenodd" fill-rule="evenodd"/></g><g><defs><path data-cppathid="10002" d="M91.7,43.8c0,23.4-19,42.4-42.4,42.4c-23.4,0-42.4-19-42.4-42.4c0-23.4,19-42.4,42.4-42.4     C72.7,1.4,91.7,20.4,91.7,43.8" id="SVGID_1_"/></defs><clipPath id="SVGID_2_"><use overflow="visible" xlink:href="#SVGID_1_"/></clipPath><path data-cppathid="10003" d="M91.7,43.8    c0,23.4-19,42.4-42.4,42.4c-23.4,0-42.4-19-42.4-42.4c0-23.4,19-42.4,42.4-42.4C72.7,1.4,91.7,20.4,91.7,43.8z" stroke-miterlimit="10" stroke-width="2.7" stroke="#E03F4D" fill="none" clip-path="url(#SVGID_2_)"/></g><g><path data-cppathid="10004" d="M50.6,38.6h43.7c2.1,0,3.8,1.7,3.8,3.8v11.4    c0,2.1-1.7,3.8-3.8,3.8H6.8c-2.1,0-3.8-1.7-3.8-3.8V42.4c0-2.1,1.7-3.8,3.8-3.8" fill="#B2CEEC" clip-rule="evenodd" fill-rule="evenodd"/><path data-cppathid="10005" d="M16.7,65.6l7.1-4.9l0.7,1.1l-7.1,4.9L16.7,65.6z" fill="#0085CB"/><path data-cppathid="10006" d="M25.3,75.6l0.1-6c0-1,0.1-2.1,0.1-3l0,0c-0.5,0.6-1,1.1-1.5,1.6l-3,3.1l-0.9-0.9l5.9-6.2l0.7,0.6l-0.1,5.5    c0,0.7,0,1.9-0.1,2.7l0,0c0.4-0.5,0.9-1,1.4-1.5l2.8-3l0.9,0.9l-6.1,6.4L25.3,75.6z" fill="#0085CB"/><path data-cppathid="10007" d="M31.1,79.2c-0.8-0.4-1.4-1.1-1.7-1.6l0.4-1.4c0.5,0.9,1.1,1.6,1.9,2c0.8,0.4,1.7,0.3,2-0.4    c0.3-0.7,0.2-1.3-0.6-2.1c-1.1-1.2-1.4-2.3-0.9-3.4c0.6-1.1,1.9-1.7,3.5-0.8c0.8,0.4,1.3,1,1.4,1.3l-0.7,0.8    c-0.2-0.3-0.6-0.9-1.2-1.2c-0.8-0.4-1.5-0.2-1.8,0.4c-0.3,0.5,0,1.1,0.6,1.8c1.1,1.2,1.6,2.3,0.9,3.6    C34.2,79.6,32.8,80.1,31.1,79.2z" fill="#0085CB"/><path data-cppathid="10008" d="M42.3,75.3l-1.8,7.3l-1.3-0.3L41,75l-2.7-0.7l0.3-1.1l6.7,1.6L45,75.9L42.3,75.3z" fill="#0085CB"/><path data-cppathid="10009" d="M46.9,83.4l0.4-8.6l1.3,0.1l-0.4,8.6L46.9,83.4z" fill="#0085CB"/><path data-cppathid="10010" d="M55,75.6l1.1,7.4l-1.3,0.2l-1.1-7.4L51,76.2L50.8,75l6.8-1l0.2,1.1L55,75.6z" fill="#0085CB"/><path data-cppathid="10011" d="M65.5,80.2c-1.8,0.9-3.7,0.4-4.5-1.4l-2.4-5l1.2-0.6l2.3,4.9c0.5,1.2,1.6,1.7,2.9,1    c1.4-0.6,1.6-1.8,1.1-2.9l-2.3-4.9l1.1-0.5l2.4,5C68.2,77.7,67.3,79.4,65.5,80.2z" fill="#0085CB"/><path data-cppathid="10012" d="M69.6,68.3l5,5.6l-1,0.9l-5-5.6L66.6,71l-0.7-0.8l5.1-4.6l0.7,0.8L69.6,68.3z" fill="#0085CB"/><path data-cppathid="10013" d="M79,69.3l-7-5l2.7-3.8l0.9,0.6l-1.9,2.7l2.1,1.5l1.6-2.3l0.9,0.7L76.7,66l2.2,1.5l2.2-3.1l0.9,0.6L79,69.3    z" fill="#0085CB"/><path data-cppathid="10014" d="M24.2,26.5l-2.4-0.3l-1.6,2.9l1.5,1.9l-0.6,1.1l-5.8-7.5l0.2-0.4l9.4,1L24.2,26.5z M18.5,25.8    c-0.3,0-0.7-0.1-1.1-0.2l0,0c0.3,0.3,0.6,0.6,0.7,0.8l1.4,1.8l1.2-2.1L18.5,25.8z" fill="#0084C9"/><path data-cppathid="10015" d="M32.8,17.7L30,15c-0.4-0.4-0.9-0.9-1.4-1.4l0,0c0.2,0.6,0.4,1.5,0.6,2.1l1,4.3l-0.4,0.3l-4.1-1.7    c-0.6-0.2-1.4-0.6-2-0.9l0,0c0.4,0.5,0.9,1.1,1.2,1.6l2.3,3.2l-0.9,0.8l-5-7l0.6-0.5l4.6,1.9c0.7,0.3,1.6,0.7,2.3,1l0,0    c-0.2-0.7-0.5-1.6-0.6-2.4l-1.2-4.8l0.6-0.5l6.2,6L32.8,17.7z" fill="#0084C9"/><path data-cppathid="10016" d="M36.5,15.9l-2.9-8.1l4.4-1.6l0.4,1.1l-3.1,1.1l0.9,2.5l2.6-0.9l0.4,1.1l-2.6,0.9l0.9,2.5l3.6-1.3l0.4,1.1    L36.5,15.9z" fill="#0084C9"/><path data-cppathid="10017" d="M49,13.3l-3-3.6l-1.2,0.1l0.3,3.8l-1.3,0.1l-0.6-8.6l2.7-0.2c1.2-0.1,2.6,0.6,2.8,2.2    c0.1,1.1-0.5,1.9-1.3,2.3l3.2,3.8L49,13.3z M45.8,6l-1.2,0.1l0.2,2.6l1.2-0.1c0.8-0.1,1.5-0.5,1.4-1.4C47.3,6.3,46.5,5.9,45.8,6z" fill="#0084C9"/><path data-cppathid="10018" d="M52.8,13.5L53.9,5l1.3,0.2l-1.1,8.5L52.8,13.5z" fill="#0084C9"/><path data-cppathid="10019" d="M66.1,10c-0.3-0.4-1-1-1.8-1.3c-1.6-0.6-3.6-0.2-4.4,1.9c-0.8,2.1,0.4,3.7,2,4.4c1,0.4,1.8,0.5,2.4,0.4    l-0.7,1.1c-0.6,0.1-1.2,0-2.3-0.4c-2-0.8-3.8-3.1-2.7-5.8c1.1-2.8,3.9-3.3,6-2.5c1.1,0.4,1.8,1,2.2,1.4L66.1,10z" fill="#0084C9"/><path data-cppathid="10020" d="M70.4,22l0.8-2.3l-2.5-2.2l-2.2,1.1l-1-0.8l8.5-4.2l0.4,0.3l-3,9L70.4,22z M72.3,16.4    c0.1-0.3,0.3-0.7,0.4-1l0,0c-0.3,0.2-0.7,0.4-1,0.6l-2,1l1.9,1.6L72.3,16.4z" fill="#0084C9"/><path data-cppathid="10021" d="M76.5,31.3l1.8-5.7c0.3-0.9,0.7-2,1-2.8l0,0c-0.7,0.4-1.3,0.8-1.9,1.1L73.7,26L73,24.8l7.5-4.3l0.4,0.8    l-1.7,5.2c-0.2,0.7-0.6,1.8-0.9,2.6l0,0c0.6-0.4,1.2-0.7,1.7-1l3.5-2l0.6,1.1l-7.6,4.4L76.5,31.3z" fill="#0084C9"/><path data-cppathid="10022" d="M77.3,32.3 M48.9,38.2H93c2.2,0,4,1.8,4,4.1v10.3    c0,2.2-1.8,4-4,4H4.7c-2.2,0-4.1-1.8-4.1-4V42.2c0-2.2,1.8-4.1,4.1-4.1H48.9z" fill="#FFFFFF" clip-rule="evenodd" fill-rule="evenodd"/></g><g><defs><path data-cppathid="10023" d="M48.9,38H93c2.4,0,4.3,1.9,4.3,4.3v10.3c0,2.4-1.9,4.3-4.3,4.3H4.7c-2.4,0-4.3-1.9-4.3-4.3V42.2     c0-2.4,1.9-4.3,4.3-4.3" id="SVGID_3_"/></defs><clipPath id="SVGID_4_"><use overflow="visible" xlink:href="#SVGID_3_"/></clipPath><path data-cppathid="10024" d="M48.9,38H93    c2.4,0,4.3,1.9,4.3,4.3v10.3c0,2.4-1.9,4.3-4.3,4.3H4.7c-2.4,0-4.3-1.9-4.3-4.3V42.2c0-2.4,1.9-4.3,4.3-4.3H48.9z" stroke-miterlimit="10" stroke-width="0.9" stroke="#E03F4D" fill="none" clip-path="url(#SVGID_4_)"/></g><g><path data-cppathid="10025" d="M9.8,45.9c-0.8,3.8-1.2,6.1-1.2,6.9c0,0.4,0.1,0.8,0.2,1.2c-0.6,0.3-1.2,0.4-1.7,0.4    c-0.7,0-1.1-0.3-1.1-0.8c0-0.4,0.3-1.7,1-4c0.1-0.5,0.5-1.9,1-4.2c0.1-0.4,0.2-0.9,0.3-1.3c0.1-0.5,0.2-1,0.2-1.4    c0-0.3-0.1-0.6-0.3-1c0.8-0.5,1.5-0.7,2.2-0.7c0.5,0,0.8,0.3,1,1c0.4,1.8,1,4.3,1.8,7.6c1.1-1.8,2.3-3.5,3.3-5.1    c0.9-1.5,1.4-2.4,1.4-2.8c0-0.1,0-0.2-0.1-0.4c0.6-0.2,1.2-0.3,1.9-0.3c0.7,0,1,0.2,1,0.7c0,0.2-0.1,0.5-0.2,0.9l-0.2,0.9    c-1.2,4.9-1.7,8-1.7,9.5c0,0.3,0.1,0.6,0.2,0.9c-0.6,0.3-1.2,0.5-1.8,0.5c-0.7,0-1-0.3-1-0.9c0-0.4,0.2-1.5,0.5-3.1l1-5.1    c-2.5,3.7-3.8,5.9-3.9,6.7c-0.5,0.3-1,0.5-1.3,0.5c-0.4,0-0.6-0.3-0.9-1c-0.2-0.7-0.4-1.6-0.7-2.7C10.2,47.5,10,46.5,9.8,45.9z" fill="#FCD7CD"/><path data-cppathid="10026" d="M28,43.9c0.5-0.1,1-0.2,1.5-0.2c0.9,0,1.3,0.3,1.3,1c0,0.3-0.1,0.8-0.2,1.2l-0.3,1.2    c-0.5,2-0.7,3.6-0.7,4.8c0,0.7,0.1,1.4,0.4,1.9c-0.5,0.4-1,0.6-1.6,0.6c-1.1,0-1.6-0.6-1.6-1.8c0-0.6,0.1-1.4,0.2-2.3    c-1.4,2.8-2.8,4.2-4.2,4.2c-1.1,0-1.6-0.6-1.6-1.7c0-0.8,0.2-2.1,0.6-4c0.4-1.9,0.6-3.2,0.6-4c0-0.3,0-0.5-0.1-0.8    c0.7-0.2,1.3-0.4,1.8-0.4c0.8,0,1.2,0.3,1.2,1c0,0.2-0.1,0.6-0.2,1.3c-0.7,3.2-1.1,5.2-1.1,5.9c0,0.3,0.1,0.4,0.3,0.4    c0.3,0,1.1-1,2.2-3c1.1-2,1.7-3.6,1.7-4.7C28.1,44.4,28.1,44.2,28,43.9z" fill="#FCD7CD"/><path data-cppathid="10027" d="M32.1,51.4c0.4,1.2,1,1.8,2,1.8c0.9,0,1.4-0.5,1.4-1.5c0-0.5-0.8-1.3-2.3-2.5c-0.5-0.5-0.8-1.1-0.8-1.9    c0-1.1,0.4-2.1,1.2-2.7c0.8-0.7,1.8-1,3.1-1c1.6,0,2.4,0.3,2.4,0.9c0,0.5-0.4,1.1-1.1,1.6c-0.6-0.8-1.2-1.3-1.8-1.3    c-0.8,0-1.2,0.4-1.2,1.3c0,0.5,0.3,0.9,0.8,1.3c0.5,0.4,1,0.7,1.5,1.1c0.6,0.5,0.8,1.2,0.8,1.9c0,1.2-0.4,2.2-1.3,3    c-0.9,0.7-2,1.1-3.4,1.1c-1.8,0-2.7-0.4-2.7-1.3C30.7,52.6,31.2,52,32.1,51.4z" fill="#FCD7CD"/><path data-cppathid="10028" d="M43.4,47.8c1.3-2.7,2.7-4,4.2-4c1.1,0,1.6,0.6,1.6,1.6c0,0.8-0.2,1.9-0.5,3.4c-0.4,1.5-0.5,2.7-0.5,3.4    c0,0.6,0.1,1.1,0.4,1.5c-0.6,0.4-1.2,0.6-1.7,0.6c-1,0-1.4-0.5-1.4-1.4c0-0.7,0.2-1.8,0.5-3.4c0.3-1.5,0.5-2.6,0.5-3.2    c0-0.3-0.1-0.4-0.3-0.4c-0.5,0-1.2,1-2.3,3c-1,2-1.6,3.5-1.6,4.4c0,0.2,0,0.4,0.1,0.7c-0.5,0.1-1,0.2-1.5,0.2    c-0.9,0-1.3-0.3-1.3-1c0-0.4,0.1-1,0.3-1.7c0.3-1.1,0.4-1.6,0.4-1.7l1-5.3c0.2-1.1,0.3-2,0.3-2.6c0-0.2,0-0.4-0.1-0.7    c0.6-0.4,1.2-0.5,1.7-0.5c0.8,0,1.2,0.3,1.2,1C44.5,42.4,44.1,44.3,43.4,47.8z" fill="#FCD7CD"/><path data-cppathid="10029" d="M52.9,54.2c-0.5,0.1-1,0.2-1.5,0.2c-0.9,0-1.3-0.3-1.3-0.9c0-0.4,0.2-1.2,0.5-2.5c0.7-2.9,1.1-5,1.1-6.2    c0-0.3,0-0.5-0.1-0.8c0.7-0.2,1.3-0.4,1.8-0.4c0.8,0,1.2,0.3,1.2,1c0,0.4-0.2,1.5-0.6,3.1c1.5-2.8,2.8-4.2,3.8-4.2    c0.5,0,0.8,0.3,0.8,0.8c0,1-0.5,2-1.4,3.1c-0.2-0.4-0.5-0.5-0.7-0.5c-0.7,0-1.4,0.9-2.3,2.7c-0.9,1.8-1.3,3.1-1.3,3.9    C52.8,53.7,52.9,53.9,52.9,54.2z" fill="#FCD7CD"/><path data-cppathid="10030" d="M61.6,54.5c-1.1,0-2-0.3-2.6-1c-0.7-0.7-1-1.6-1-2.7c0-1.8,0.6-3.5,1.7-5c1.2-1.5,2.6-2.3,4.2-2.3    c1.1,0,1.9,0.3,2.6,1c0.7,0.7,1,1.6,1,2.6c0,1.8-0.6,3.4-1.7,5C64.5,53.7,63.1,54.5,61.6,54.5z M62.1,53c0.7,0,1.3-0.6,1.7-1.9    c0.5-1.3,0.7-2.6,0.7-3.9c0-1.3-0.4-2-1.2-2c-0.7,0-1.3,0.6-1.8,1.9c-0.5,1.3-0.7,2.6-0.7,3.9C60.9,52.3,61.3,53,62.1,53z" fill="#FCD7CD"/><path data-cppathid="10031" d="M71.6,54.5c-1.1,0-2-0.3-2.6-1c-0.7-0.7-1-1.6-1-2.7c0-1.8,0.6-3.5,1.7-5c1.2-1.5,2.6-2.3,4.2-2.3    c1.1,0,1.9,0.3,2.6,1c0.7,0.7,1,1.6,1,2.6c0,1.8-0.6,3.4-1.7,5C74.5,53.7,73.2,54.5,71.6,54.5z M72.1,53c0.7,0,1.3-0.6,1.7-1.9    c0.5-1.3,0.7-2.6,0.7-3.9c0-1.3-0.4-2-1.2-2c-0.7,0-1.3,0.6-1.8,1.9c-0.5,1.3-0.7,2.6-0.7,3.9C70.9,52.3,71.3,53,72.1,53z" fill="#FCD7CD"/><path data-cppathid="10032" d="M86.1,54.2c-0.5,0.1-1,0.2-1.5,0.2c-0.8,0-1.2-0.3-1.2-0.9c0-0.2,0.1-0.7,0.3-1.5c0.7-3.3,1.1-5.2,1.1-5.8    c0-0.2-0.1-0.3-0.2-0.3c-0.3,0-1.1,1-2.3,3c-1.2,2-1.8,3.5-1.8,4.5c0,0.2,0,0.5,0.1,0.7c-0.5,0.1-1,0.2-1.4,0.2    c-0.8,0-1.3-0.3-1.3-1c0-0.3,0.1-0.8,0.2-1.2c0.9-3.8,1.4-6.3,1.4-7.4c0-0.3,0-0.5-0.1-0.8c0.7-0.2,1.2-0.4,1.7-0.4    c0.7,0,1.1,0.3,1.1,1c0,0.4-0.1,0.9-0.2,1.6l-0.4,1.6c1.6-2.8,3.1-4.2,4.3-4.2c0.9,0,1.4,0.6,1.4,1.7c0,0.3-0.1,0.7-0.2,1.3    c-0.1,0.6-0.2,1-0.2,1.3c1.6-2.8,3.1-4.2,4.4-4.2c0.9,0,1.4,0.5,1.4,1.5c0,0.3-0.1,0.9-0.3,1.8c-0.6,2.9-0.9,4.7-0.9,5.4    c0,0.6,0.2,1.2,0.5,1.6c-0.6,0.4-1.1,0.6-1.7,0.6C89.5,54.4,89,54,89,53c0-0.8,0.1-1.7,0.3-2.8c0.5-2.5,0.7-3.8,0.7-4.1    c0-0.2-0.1-0.3-0.2-0.3c-0.3,0-1.1,1-2.2,3c-1.2,2-1.7,3.5-1.7,4.5C85.9,53.7,86,53.9,86.1,54.2z" fill="#FCD7CD"/><path data-cppathid="10033" d="M8.9,44.8c-0.8,3.7-1.2,6.1-1.2,6.9c0,0.4,0.1,0.8,0.2,1.2c-0.6,0.3-1.2,0.4-1.7,0.4    c-0.7,0-1.1-0.3-1.1-0.8c0-0.4,0.3-1.7,1-4c0.1-0.5,0.5-1.9,1-4.2c0.1-0.4,0.2-0.9,0.3-1.3c0.1-0.5,0.2-1,0.2-1.4    c0-0.3-0.1-0.6-0.3-1C8,40.3,8.7,40,9.4,40c0.5,0,0.8,0.3,1,1c0.4,1.8,1,4.3,1.8,7.6c1.1-1.8,2.2-3.5,3.3-5.1    c0.9-1.5,1.4-2.4,1.4-2.8c0-0.1,0-0.2-0.1-0.4c0.6-0.2,1.2-0.3,1.9-0.3c0.7,0,1,0.2,1,0.7c0,0.2-0.1,0.5-0.2,0.9l-0.2,0.9    c-1.2,4.9-1.7,8-1.7,9.5c0,0.3,0.1,0.6,0.2,0.9c-0.6,0.3-1.2,0.5-1.8,0.5c-0.7,0-1-0.3-1-0.9c0-0.4,0.2-1.5,0.5-3.1l1-5.1    c-2.5,3.7-3.8,5.9-3.9,6.7c-0.5,0.3-1,0.5-1.3,0.5c-0.4,0-0.6-0.3-0.9-1c-0.2-0.7-0.4-1.6-0.7-2.7C9.3,46.4,9.1,45.4,8.9,44.8z" fill="#007FC3"/><path data-cppathid="10034" d="M27,42.9c0.5-0.1,1-0.2,1.5-0.2c0.9,0,1.3,0.3,1.3,1c0,0.3-0.1,0.8-0.2,1.2l-0.3,1.2    c-0.5,2-0.7,3.6-0.7,4.8c0,0.7,0.1,1.4,0.4,1.9c-0.5,0.4-1,0.6-1.6,0.6c-1.1,0-1.6-0.6-1.6-1.8c0-0.6,0.1-1.4,0.2-2.3    c-1.4,2.8-2.8,4.2-4.2,4.2c-1.1,0-1.6-0.6-1.6-1.7c0-0.8,0.2-2.1,0.6-4c0.4-1.9,0.6-3.2,0.6-4c0-0.3,0-0.5-0.1-0.8    c0.7-0.2,1.3-0.4,1.8-0.4c0.8,0,1.2,0.3,1.2,1c0,0.2-0.1,0.6-0.2,1.3c-0.7,3.2-1.1,5.2-1.1,5.9c0,0.3,0.1,0.4,0.3,0.4    c0.3,0,1.1-1,2.2-3c1.1-2,1.7-3.6,1.7-4.7C27.2,43.4,27.1,43.1,27,42.9z" fill="#007FC3"/><path data-cppathid="10035" d="M31.2,50.3c0.4,1.2,1,1.8,2,1.8c0.9,0,1.4-0.5,1.4-1.5c0-0.5-0.8-1.3-2.3-2.5c-0.5-0.5-0.8-1.1-0.8-1.9    c0-1.1,0.4-2.1,1.2-2.7c0.8-0.7,1.8-1,3.1-1c1.6,0,2.4,0.3,2.4,0.9c0,0.5-0.4,1.1-1.1,1.6c-0.6-0.8-1.2-1.3-1.8-1.3    c-0.8,0-1.2,0.4-1.2,1.3c0,0.5,0.3,0.9,0.8,1.3c0.5,0.4,1,0.7,1.5,1.1c0.6,0.5,0.8,1.2,0.8,1.9c0,1.2-0.4,2.2-1.3,3    c-0.9,0.7-2,1.1-3.4,1.1c-1.8,0-2.7-0.4-2.7-1.3C29.8,51.6,30.2,50.9,31.2,50.3z" fill="#007FC3"/><path data-cppathid="10036" d="M42.4,46.7c1.3-2.7,2.7-4,4.2-4c1.1,0,1.6,0.6,1.6,1.6c0,0.8-0.2,1.9-0.5,3.4c-0.4,1.5-0.5,2.7-0.5,3.4    c0,0.6,0.2,1.1,0.5,1.5c-0.6,0.4-1.2,0.6-1.7,0.6c-1,0-1.4-0.5-1.4-1.4c0-0.7,0.2-1.8,0.5-3.4c0.3-1.5,0.5-2.6,0.5-3.2    c0-0.3-0.1-0.4-0.3-0.4c-0.5,0-1.2,1-2.3,3c-1,2-1.6,3.5-1.6,4.4c0,0.2,0,0.4,0.1,0.7c-0.5,0.1-1,0.2-1.5,0.2    c-0.9,0-1.3-0.3-1.3-1c0-0.4,0.1-1,0.3-1.7c0.3-1.1,0.4-1.6,0.4-1.7l1-5.3c0.2-1.1,0.3-2,0.3-2.6c0-0.2,0-0.4-0.1-0.7    c0.6-0.4,1.2-0.5,1.7-0.5c0.8,0,1.2,0.3,1.2,1C43.5,41.4,43.1,43.3,42.4,46.7z" fill="#007FC3"/><path data-cppathid="10037" d="M52,53.2c-0.5,0.1-1,0.2-1.5,0.2c-0.9,0-1.3-0.3-1.3-0.9c0-0.4,0.2-1.2,0.5-2.5c0.7-2.9,1.1-5,1.1-6.2    c0-0.3,0-0.5-0.1-0.8c0.7-0.2,1.3-0.4,1.8-0.4c0.8,0,1.2,0.3,1.2,1c0,0.4-0.2,1.5-0.6,3.1c1.5-2.8,2.8-4.2,3.8-4.2    c0.5,0,0.8,0.3,0.8,0.8c0,1-0.5,2-1.4,3.1c-0.2-0.4-0.5-0.5-0.7-0.5c-0.7,0-1.4,0.9-2.3,2.7c-0.9,1.8-1.3,3.1-1.3,3.9    C51.8,52.7,51.9,52.9,52,53.2z" fill="#007FC3"/><path data-cppathid="10038" d="M60.6,53.5c-1.1,0-2-0.3-2.6-1c-0.7-0.7-1-1.6-1-2.7c0-1.8,0.6-3.5,1.7-5c1.2-1.5,2.6-2.3,4.2-2.3    c1.1,0,1.9,0.3,2.6,1c0.7,0.7,1,1.6,1,2.6c0,1.8-0.6,3.4-1.7,5C63.5,52.7,62.2,53.5,60.6,53.5z M61.1,51.9c0.7,0,1.3-0.6,1.7-1.9    c0.5-1.3,0.7-2.6,0.7-3.9c0-1.3-0.4-2-1.2-2c-0.7,0-1.3,0.6-1.8,1.9c-0.5,1.3-0.7,2.6-0.7,3.9C59.9,51.3,60.3,51.9,61.1,51.9z" fill="#007FC3"/><path data-cppathid="10039" d="M70.6,53.5c-1.1,0-2-0.3-2.6-1c-0.7-0.7-1-1.6-1-2.7c0-1.8,0.6-3.5,1.7-5c1.2-1.5,2.6-2.3,4.2-2.3    c1.1,0,1.9,0.3,2.6,1c0.7,0.7,1,1.6,1,2.6c0,1.8-0.6,3.4-1.7,5C73.5,52.7,72.2,53.5,70.6,53.5z M71.1,51.9c0.7,0,1.3-0.6,1.7-1.9    c0.5-1.3,0.7-2.6,0.7-3.9c0-1.3-0.4-2-1.2-2c-0.7,0-1.3,0.6-1.8,1.9c-0.5,1.3-0.7,2.6-0.7,3.9C69.9,51.3,70.3,51.9,71.1,51.9z" fill="#007FC3"/><path data-cppathid="10040" d="M85,53.2c-0.5,0.1-1,0.2-1.5,0.2c-0.8,0-1.2-0.3-1.2-0.9c0-0.2,0.1-0.7,0.3-1.5c0.7-3.3,1.1-5.2,1.1-5.8    c0-0.2-0.1-0.3-0.2-0.3c-0.3,0-1.1,1-2.3,3c-1.2,2-1.8,3.5-1.8,4.5c0,0.2,0,0.5,0.1,0.7c-0.5,0.1-1,0.2-1.4,0.2    c-0.8,0-1.3-0.3-1.3-1c0-0.3,0.1-0.8,0.2-1.2c0.9-3.8,1.4-6.3,1.4-7.4c0-0.3,0-0.5-0.1-0.8c0.7-0.2,1.2-0.4,1.7-0.4    c0.7,0,1.1,0.3,1.1,1c0,0.4-0.1,0.9-0.2,1.6l-0.4,1.6c1.6-2.8,3.1-4.2,4.3-4.2c0.9,0,1.4,0.6,1.4,1.7c0,0.3-0.1,0.7-0.2,1.3    c-0.1,0.6-0.2,1-0.2,1.3c1.6-2.8,3.1-4.2,4.4-4.2c0.9,0,1.4,0.5,1.4,1.5c0,0.3-0.1,0.9-0.3,1.8c-0.6,2.9-0.9,4.7-0.9,5.4    c0,0.6,0.1,1.2,0.4,1.6c-0.6,0.4-1.1,0.6-1.7,0.6c-0.9,0-1.4-0.5-1.4-1.4c0-0.8,0.1-1.7,0.3-2.8c0.5-2.5,0.7-3.8,0.7-4.1    c0-0.2-0.1-0.3-0.2-0.3c-0.3,0-1.1,1-2.2,3c-1.2,2-1.7,3.5-1.7,4.5C84.9,52.7,84.9,52.9,85,53.2z" fill="#007FC3"/></g><g><defs><rect data-cppathid="10041" height="23.6" width="25.1" y="16.3" x="37.1" id="SVGID_5_"/></defs><clipPath id="SVGID_6_"><use overflow="visible" xlink:href="#SVGID_5_"/></clipPath><g clip-path="url(#SVGID_6_)"><defs><rect data-cppathid="10042" height="23.3" width="25.1" y="16.6" x="37" id="SVGID_7_"/></defs><clipPath id="SVGID_8_"><use overflow="visible" xlink:href="#SVGID_7_"/></clipPath></g></g><g><polyline data-cppathid="10043" points="58,34.7 57.2,32.8 58,30.3 59.9,27.8 62.4,28.1     66,29.1 68.5,31.1 68.8,34.5 67.4,36.8 64.8,38 63.2,39.5 62.6,41.6 60.9,41 58.2,39.2 58.7,37.8 59.5,36.2 58,34.7   " fill="#FFFFFF" clip-rule="evenodd" fill-rule="evenodd"/></g><g><defs><polyline data-cppathid="10044" points="61.5,19 76.9,26.2 65.5,50.6 50.1,43.4    " id="SVGID_9_"/></defs><clipPath id="SVGID_10_"><use overflow="visible" xlink:href="#SVGID_9_"/></clipPath><g clip-path="url(#SVGID_10_)"><defs><rect data-cppathid="10045" height="15.9" width="16" transform="matrix(-0.9063 -0.4226 0.4226 -0.9063 104.9795 93.2765)" y="27.1" x="54.8" id="SVGID_11_"/></defs><clipPath id="SVGID_12_"><use overflow="visible" xlink:href="#SVGID_11_"/></clipPath></g></g><rect data-cppathid="10046" height="1.2" width="2.3" fill="#FFFFFF" y="35.1" x="37"/><path data-cppathid="10047" d="M31.4,31.2l2.1-1.7h3.1l1.7,2.7l3.6,2.2l-1.3,3.9l-2.9-1.3   l-1.5,2.1h-2.9l-2.4-1c0,0-0.4-2-0.6-2.6c-0.2-0.6,0.2-2.8,0.6-3.4C31.2,31.5,31.4,31.2,31.4,31.2" fill="#FFFFFF" clip-rule="evenodd" fill-rule="evenodd"/><path data-cppathid="10048" d="M46,18.9c0,0,4.3-1.1,7.8,1.3c3.6,2.3,3.1,4.9,3.1,4.9s-0.1,2.6-0.4,2.9c-0.3,0.3-0.4,1.7-1.3,2.2   c-0.9,0.4-1.6,1.1-1.6,1.1s-0.3,2.6-0.6,3c-0.3,0.3-0.3,2.4-0.3,2.4l-0.4,1.1l-2.9,0.5l-3.8-0.8v-4l0.4-0.3l0.1-0.5l1.6-0.2   L46.9,32c0,0-1.6,0.4-3-0.1c-1.4-0.4-3.9-3.6-3.9-3.6s-0.2-4.5,0.6-5.3c0.8-0.8,1.1-2,1.9-2.5c0.8-0.5,1.2-1.1,1.4-1.1   C44,19.5,46,18.9,46,18.9z" fill="#FFFFFF"/><g><defs><polyline data-cppathid="10049" points="25.8,38.2 30.7,24.8 47.2,30.8 42.3,44.2    " id="SVGID_13_"/></defs><clipPath id="SVGID_14_"><use overflow="visible" xlink:href="#SVGID_13_"/></clipPath><g clip-path="url(#SVGID_14_)"><defs><rect data-cppathid="10050" height="14.1" width="14.2" transform="matrix(-0.342 0.9397 -0.9397 -0.342 81.3825 12.0027)" y="27.4" x="29.4" id="SVGID_15_"/></defs><clipPath id="SVGID_16_"><use overflow="visible" xlink:href="#SVGID_15_"/></clipPath></g></g><g><path data-cppathid="10051" d="M55.4,19.4c0.9,0.4,1.7,0.9,1.9,1.2c0.6,0.6,1.2,1.3,1.6,2.1    c0.9,1.6,1.1,3.5,0.5,5.2c0.3,0,0.6-0.2,0.9-0.2c0.3-0.1,0.6-0.1,0.9-0.1c0.6,0,1.3,0,1.9,0.3c0.1,0,0.5,0.3,0.2,0.4    c-0.2,0.1-0.6,0-0.8,0c-0.7,0-1.3,0.1-1.9,0.3c-1.9,0.8-3.7,3.1-2.7,5.2c0.5,1,1.5,1.8,2.5,2.2c0.5,0.2,1,0.3,1.5,0.4    c0.2,0,0.9,0.2,0.5,0.5c-0.4,0.3-1.4,0-1.9-0.1c-1.1-0.3-2.1-1.1-2.8-1.9c-0.9-1-1.2-2.2-1.1-3.5c-0.2,0-0.4,0.3-0.6,0.3    c-0.3,0.1-0.6,0.2-0.8,0.4c-0.5,0.3-0.9,0.6-1.2,1.1c-0.5,1.1-0.2,2.5,0.2,3.5c0.2,0.4,0.6,1,0.5,1.5c-0.1,0.5-0.6,0.7-1,0.9    c-1.2,0.5-2.6,0.7-3.9,0.7c-1.4,0-2.8-0.4-4.1-0.8c-0.5-0.1-1.1-0.3-1.3-0.8c-0.2-0.5,0.1-1.1,0.2-1.6c0.1-0.7,0.1-1.4,0.3-2.1    c0.1-0.4,0-1.2,0.6-1.2c0.6,0,0.7,1.1,0.7,1.5c0,0.3,0,0.5,0,0.8c0,0.5-0.2,1.1,0,1.6c0.1,0.5,0.6,0.7,1.1,0.7    c0.6,0.1,1.3,0.1,1.9,0.1c0.6,0,1.3-0.1,1.9-0.3c0.4-0.1,1-0.3,1.1-0.8c0.1-0.2,0-0.5,0-0.8c0-0.3,0.1-0.6,0.2-0.9    c0.2-0.7,0.4-1.4,0.7-2c0.2-0.4,0.4-0.8-0.1-1c-0.4-0.1-0.8-0.1-1.1-0.3c-0.3-0.1-0.8-0.5-0.7-0.9c0.1-0.3,0.7-0.3,0.9-0.2    c2.3,0.2,4.2-1.8,4.6-4c0.3-1.7-0.5-3.6-1.5-4.8c-1.1-1.3-2.7-2.2-4.4-2.7c-0.4-0.1-0.9-0.1-1.3-0.2c-0.2,0-1-0.1-1-0.4    c0-0.3,0.5-0.5,0.7-0.5c0.5-0.1,0.9,0,1.4,0c1,0.1,2,0.3,3,0.5C53.7,18.7,54.6,19,55.4,19.4z" fill="#0083C3" clip-rule="evenodd" fill-rule="evenodd"/><path data-cppathid="10052" d="M46.2,18.7c0.1,0.4-0.5,0.5-0.7,0.6c-0.6,0.2-1.3,0.5-1.8,0.9    c-1,0.7-1.9,1.7-2.5,2.8c-1.1,2-1.3,4.7,0,6.6c1.2,1.8,3.5,2.4,5.5,2.4c0.6,0,1.2-0.1,1.8-0.2c0.5-0.1,0.8-0.3,1.3-0.4    c0.1,0,0.8-0.2,0.7,0.1c0,0.3-0.5,0.5-0.6,0.6c-1.8,1-3.7,1-5.7,0.6c-2.1-0.4-4.2-1.5-5.3-3.4c-0.6-1.1-0.9-2.4-0.8-3.7    c0.1-0.7,0.2-1.3,0.5-1.9c0.2-0.6,0.6-1.2,0.9-1.7c0.3-0.5,0.7-0.8,1.1-1.2c0.5-0.5,1.1-0.8,1.7-1.1    C43.6,19.1,44.9,18.7,46.2,18.7" fill="#0083C3" clip-rule="evenodd" fill-rule="evenodd"/><path data-cppathid="10053" d="M35.1,28c0.6,0.2,1.3,0.1,1.9,0.4c0.6,0.2,1,0.7,1.4,1.2    c0.3,0.5,0.5,1.1,0.6,1.7c0.1,0.6,0.1,1.2,0.6,1.6c0.4,0.4,1,0.5,1.5,0.4c0.4,0,1-0.2,1.3,0.2c0.3,0.4,0.2,1.1,0.1,1.6    c-0.1,0.7-0.3,1.3-0.6,1.9c-0.3,0.5-0.6,1.1-1,1.6c-0.5,0.6-1,0.3-1.5-0.1c-0.4-0.3-1.3-0.5-1.5-0.9c-0.2-0.5,0.8-0.4,1-0.3    c0.4,0.2,0.8,0.5,1.2,0.4c0.5-0.1,0.8-0.7,1-1.2c0.1-0.4,0.3-1.1,0.1-1.5c-0.2-0.6-0.8-0.8-1.3-1.1c-0.3-0.2-0.8-0.8-1.1-0.6    c-0.3,0.2-0.4,0.5-0.7,0.7c-0.3,0.2-0.5,0-0.4-0.3c0.1-0.5,0.4-0.9,0.3-1.4c-0.4-2.1-2.8-2.8-4.5-2c-0.9,0.4-1.6,1.1-2.1,2    c-0.2,0.3-0.4,0.7-0.7,0.8c-0.3,0.1,0-1,0.1-1.1c0.3-0.9,1-1.8,1.7-2.4c0.4-0.3,0.8-0.7,1.2-0.9C33.9,28.3,34.5,28.2,35.1,28" fill="#0083C3" clip-rule="evenodd" fill-rule="evenodd"/><path data-cppathid="10054" d="M66.4,29.1l1.1,0.7c0.5,0.5,1,0.9,1.4,1.4c0.7,1,1.1,2.2,0.9,3.5    C69.6,35.9,69,37,68,37.6c-0.5,0.3-1.1,0.5-1.8,0.5c-0.6,0.1-1.3,0-1.9,0.3c-0.8,0.4-0.9,1.5-1,2.4c-0.1,0.9-0.8,1.2-1.6,1.1    c-0.9-0.2-1.9-0.6-2.7-1.1c-0.9-0.5-2.3-1.5-1.5-2.7c0.3-0.5,0.6-1,0.9-1.4c0.2-0.3,0.8-0.6,0.8,0c0,0.9-1.4,2-0.3,2.8    c0.7,0.5,2,1.2,2.8,0.8c0.4-0.2,0.6-0.9,1-1.2c0.3-0.3,0.8-0.6,1-1c0.1-0.4-0.4-0.7-0.6-0.9c-0.1-0.1-0.3-0.3-0.2-0.5    c0.1-0.3,0.6-0.1,0.8,0c1.1,0.5,2.3,0.2,3.2-0.5c1.6-1.5,1.1-4.3-0.3-5.7c-0.3-0.3-0.6-0.6-1-0.8c-0.2-0.2-0.8-0.5-0.8-0.8    c0-0.2,0.4-0.1,0.5-0.1L66.4,29.1z" fill="#0083C3" clip-rule="evenodd" fill-rule="evenodd"/><path data-cppathid="10055" d="M30.2,34.1c0.4,0.1,0.2,0.7,0.1,1c0,0.6,0.2,1.3,0.5,1.8    c0.6,1,1.5,1.7,2.6,2c1.1,0.2,2.2-0.1,3-0.9c0.4-0.4,0.7-1,0.8-1.5c0.1-0.5,0.1-1.1,0.2-1.6c0-0.3,0.3-0.7,0.5-0.2    c0.2,0.4,0.2,0.9,0.1,1.3c-0.2,1.2-0.9,2.4-1.7,3.2c-1.6,1.5-4.1,1.3-5.5-0.3c-0.5-0.7-0.8-1.4-0.9-2.3    C29.8,35.6,29.7,34.6,30.2,34.1" fill="#0083C3" clip-rule="evenodd" fill-rule="evenodd"/></g></g></svg>